<mxfile host="Electron" agent="Mozilla/5.0 (Macintosh; Intel Mac OS X 10_15_7) AppleWebKit/537.36 (KHTML, like Gecko) draw.io/26.1.1 Chrome/132.0.6834.210 Electron/34.3.3 Safari/537.36" version="26.1.1" pages="3">
  <diagram id="LjPOl_AACKOtSnejSikv" name="Connector Conventions">
    <mxGraphModel dx="2876" dy="348" grid="1" gridSize="10" guides="1" tooltips="1" connect="1" arrows="1" fold="1" page="1" pageScale="1" pageWidth="2336" pageHeight="1654" math="0" shadow="0">
      <root>
        <mxCell id="s87YEGLy_1aI-YGkXKWT-0" />
        <mxCell id="s87YEGLy_1aI-YGkXKWT-1" parent="s87YEGLy_1aI-YGkXKWT-0" />
        <mxCell id="_eCJhCDo3JRrDzbs_fod-0" value="&lt;font style=&quot;font-size: 19px;&quot;&gt;TYPES OF CONNECTORS&lt;/font&gt;" style="text;html=1;strokeColor=none;fillColor=none;align=center;verticalAlign=middle;whiteSpace=wrap;rounded=0;fontSize=16;fontColor=#4376BB;fontStyle=1;fontFamily=IBM Plex Sans;" parent="s87YEGLy_1aI-YGkXKWT-1" vertex="1">
          <mxGeometry x="-2085" y="200" width="240" height="20" as="geometry" />
        </mxCell>
        <mxCell id="_eCJhCDo3JRrDzbs_fod-1" value="" style="endArrow=oval;html=1;fontSize=16;fontColor=#4376BB;strokeWidth=2;endFill=1;strokeColor=#198038;startArrow=oval;startFill=1;fontFamily=IBM Plex Sans;" parent="s87YEGLy_1aI-YGkXKWT-1" edge="1">
          <mxGeometry width="50" height="50" relative="1" as="geometry">
            <mxPoint x="-1820" y="934" as="sourcePoint" />
            <mxPoint x="-1620" y="934" as="targetPoint" />
          </mxGeometry>
        </mxCell>
        <mxCell id="_eCJhCDo3JRrDzbs_fod-2" value="Private Connection" style="edgeLabel;html=1;align=center;verticalAlign=middle;resizable=0;points=[];fontFamily=IBM Plex Sans;" parent="_eCJhCDo3JRrDzbs_fod-1" vertex="1" connectable="0">
          <mxGeometry x="-0.08" y="1" relative="1" as="geometry">
            <mxPoint y="16" as="offset" />
          </mxGeometry>
        </mxCell>
        <mxCell id="_eCJhCDo3JRrDzbs_fod-3" value="" style="endArrow=oval;html=1;fontSize=16;fontColor=#4376BB;strokeWidth=2;endFill=1;strokeColor=#4376BB;startArrow=oval;startFill=1;fontFamily=IBM Plex Sans;" parent="s87YEGLy_1aI-YGkXKWT-1" edge="1">
          <mxGeometry width="50" height="50" relative="1" as="geometry">
            <mxPoint x="-1820" y="974" as="sourcePoint" />
            <mxPoint x="-1620" y="974" as="targetPoint" />
          </mxGeometry>
        </mxCell>
        <mxCell id="_eCJhCDo3JRrDzbs_fod-4" value="Public Connection" style="edgeLabel;html=1;align=center;verticalAlign=middle;resizable=0;points=[];fontFamily=IBM Plex Sans;" parent="_eCJhCDo3JRrDzbs_fod-3" vertex="1" connectable="0">
          <mxGeometry x="-0.08" y="1" relative="1" as="geometry">
            <mxPoint y="16" as="offset" />
          </mxGeometry>
        </mxCell>
        <mxCell id="_eCJhCDo3JRrDzbs_fod-6" value="&lt;font style=&quot;&quot;&gt;&lt;span style=&quot;font-size: 22px;&quot;&gt;Relationships / UML&lt;/span&gt;&lt;br&gt;&lt;font style=&quot;font-weight: normal; font-size: 17px;&quot; color=&quot;#000000&quot;&gt;logical relationship between elements&lt;/font&gt;&lt;/font&gt;" style="text;html=1;strokeColor=none;fillColor=none;align=center;verticalAlign=middle;whiteSpace=wrap;rounded=0;fontSize=16;fontColor=#4376BB;fontStyle=1;fontFamily=IBM Plex Sans;" parent="s87YEGLy_1aI-YGkXKWT-1" vertex="1">
          <mxGeometry x="-760" y="380" width="240" height="20" as="geometry" />
        </mxCell>
        <mxCell id="_eCJhCDo3JRrDzbs_fod-7" value="&lt;font style=&quot;font-size: 18px;&quot;&gt;&lt;font style=&quot;font-size: 22px;&quot;&gt;Connections&lt;/font&gt;&lt;br&gt;&lt;font color=&quot;#000000&quot; style=&quot;font-size: 17px; font-weight: normal;&quot;&gt;physical/protocol network connections, network messages, invocations between elements. They use the following &lt;/font&gt;&lt;font color=&quot;#000000&quot; style=&quot;font-size: 17px;&quot;&gt;&lt;span style=&quot;font-weight: normal;&quot;&gt;arrow styles (example:&amp;nbsp;&lt;/span&gt;&lt;/font&gt;&lt;span style=&quot;background-color: rgb(31, 31, 31); color: rgb(204, 204, 204); font-weight: normal; white-space: pre;&quot;&gt;endArrow=oval&lt;/span&gt;&lt;span style=&quot;font-weight: normal; color: rgb(0, 0, 0); background-color: initial;&quot;&gt;):&lt;/span&gt;&lt;font color=&quot;#000000&quot; style=&quot;font-size: 17px;&quot;&gt;&lt;span style=&quot;font-weight: normal;&quot;&gt;&lt;br&gt;&lt;/span&gt;&lt;/font&gt;&lt;font color=&quot;#000000&quot; style=&quot;font-size: 17px;&quot;&gt;&lt;ol style=&quot;&quot;&gt;&lt;li style=&quot;text-align: left;&quot;&gt;&lt;span style=&quot;font-weight: normal;&quot;&gt;Unidirectional: &lt;/span&gt;oval&lt;span style=&quot;font-weight: normal;&quot;&gt; in start and &lt;/span&gt;block&lt;span style=&quot;font-weight: normal;&quot;&gt; in end or the other way around&lt;/span&gt;&lt;/li&gt;&lt;li style=&quot;text-align: left;&quot;&gt;&lt;span style=&quot;font-weight: normal;&quot;&gt;Bidirectional option 1: &lt;/span&gt;oval&lt;span style=&quot;font-weight: normal;&quot;&gt; in both start and end side&lt;/span&gt;&lt;/li&gt;&lt;li style=&quot;text-align: left;&quot;&gt;&lt;span style=&quot;font-weight: normal;&quot;&gt;Bidirectional option 1:&amp;nbsp;&lt;/span&gt;block&lt;span style=&quot;font-weight: normal;&quot;&gt;&amp;nbsp;in both start and end side&lt;/span&gt;&lt;/li&gt;&lt;/ol&gt;&lt;/font&gt;&lt;/font&gt;" style="text;html=1;strokeColor=none;fillColor=none;align=center;verticalAlign=middle;whiteSpace=wrap;rounded=0;fontSize=16;fontColor=#4376BB;fontStyle=1;fontFamily=IBM Plex Sans;" parent="s87YEGLy_1aI-YGkXKWT-1" vertex="1">
          <mxGeometry x="-1653" y="309" width="485" height="270" as="geometry" />
        </mxCell>
        <mxCell id="_eCJhCDo3JRrDzbs_fod-8" value="" style="endArrow=box;html=1;fontSize=16;fontColor=#4376BB;strokeWidth=2;endFill=0;rounded=0;startArrow=box;startFill=0;shape=link;fontFamily=IBM Plex Sans;" parent="s87YEGLy_1aI-YGkXKWT-1" edge="1">
          <mxGeometry width="50" height="50" relative="1" as="geometry">
            <mxPoint x="-1815" y="749" as="sourcePoint" />
            <mxPoint x="-1615" y="749" as="targetPoint" />
          </mxGeometry>
        </mxCell>
        <mxCell id="_eCJhCDo3JRrDzbs_fod-9" value="Physical Connection" style="edgeLabel;html=1;align=center;verticalAlign=middle;resizable=0;points=[];fontFamily=IBM Plex Sans;" parent="_eCJhCDo3JRrDzbs_fod-8" vertex="1" connectable="0">
          <mxGeometry x="-0.07" y="2" relative="1" as="geometry">
            <mxPoint x="7" y="16.5" as="offset" />
          </mxGeometry>
        </mxCell>
        <mxCell id="_eCJhCDo3JRrDzbs_fod-10" value="" style="shape=curlyBracket;whiteSpace=wrap;html=1;rounded=1;fontFamily=IBM Plex Sans;" parent="s87YEGLy_1aI-YGkXKWT-1" vertex="1">
          <mxGeometry x="-1870" y="629" width="20" height="70" as="geometry" />
        </mxCell>
        <mxCell id="_eCJhCDo3JRrDzbs_fod-11" value="" style="shape=curlyBracket;whiteSpace=wrap;html=1;rounded=1;fontFamily=IBM Plex Sans;" parent="s87YEGLy_1aI-YGkXKWT-1" vertex="1">
          <mxGeometry x="-1870" y="709" width="20" height="200" as="geometry" />
        </mxCell>
        <mxCell id="_eCJhCDo3JRrDzbs_fod-12" value="" style="shape=curlyBracket;whiteSpace=wrap;html=1;rounded=1;fontFamily=IBM Plex Sans;" parent="s87YEGLy_1aI-YGkXKWT-1" vertex="1">
          <mxGeometry x="-1870" y="919" width="20" height="70" as="geometry" />
        </mxCell>
        <mxCell id="_eCJhCDo3JRrDzbs_fod-13" value="Logical messages exchanged &lt;br&gt;between elements&amp;nbsp;" style="text;html=1;resizable=0;autosize=1;align=center;verticalAlign=middle;points=[];fillColor=none;strokeColor=none;rounded=0;fontFamily=IBM Plex Sans;" parent="s87YEGLy_1aI-YGkXKWT-1" vertex="1">
          <mxGeometry x="-2050" y="644" width="180" height="40" as="geometry" />
        </mxCell>
        <mxCell id="_eCJhCDo3JRrDzbs_fod-14" value="Network connections&lt;br&gt;between elements" style="text;html=1;resizable=0;autosize=1;align=center;verticalAlign=middle;points=[];fillColor=none;strokeColor=none;rounded=0;fontFamily=IBM Plex Sans;" parent="s87YEGLy_1aI-YGkXKWT-1" vertex="1">
          <mxGeometry x="-2010" y="744" width="140" height="40" as="geometry" />
        </mxCell>
        <mxCell id="_eCJhCDo3JRrDzbs_fod-15" value="Color annotation to describe&lt;br&gt;if message/connection is through&lt;br&gt;public or private network" style="text;html=1;resizable=0;autosize=1;align=center;verticalAlign=middle;points=[];fillColor=none;strokeColor=none;rounded=0;fontFamily=IBM Plex Sans;" parent="s87YEGLy_1aI-YGkXKWT-1" vertex="1">
          <mxGeometry x="-2065" y="924" width="200" height="60" as="geometry" />
        </mxCell>
        <mxCell id="_eCJhCDo3JRrDzbs_fod-16" value="" style="shape=curlyBracket;whiteSpace=wrap;html=1;rounded=1;fontFamily=IBM Plex Sans;" parent="s87YEGLy_1aI-YGkXKWT-1" vertex="1">
          <mxGeometry x="-1870" y="999" width="20" height="70" as="geometry" />
        </mxCell>
        <mxCell id="_eCJhCDo3JRrDzbs_fod-17" value="Annotation to describe&lt;br&gt;what protocol is used &lt;br&gt;by the message/connection" style="text;html=1;resizable=0;autosize=1;align=center;verticalAlign=middle;points=[];fillColor=none;strokeColor=none;rounded=0;fontFamily=IBM Plex Sans;" parent="s87YEGLy_1aI-YGkXKWT-1" vertex="1">
          <mxGeometry x="-2040" y="1004" width="170" height="60" as="geometry" />
        </mxCell>
        <mxCell id="_eCJhCDo3JRrDzbs_fod-18" value="Those are coming directly from UML&lt;br&gt;99% of the time will be used the&lt;br&gt;Dependency Relationship&lt;br&gt;with a description" style="text;html=1;resizable=0;autosize=1;align=center;verticalAlign=middle;points=[];fillColor=none;strokeColor=none;rounded=0;fontFamily=IBM Plex Sans;" parent="s87YEGLy_1aI-YGkXKWT-1" vertex="1">
          <mxGeometry x="-290" y="684" width="220" height="70" as="geometry" />
        </mxCell>
        <mxCell id="_eCJhCDo3JRrDzbs_fod-19" value="" style="endArrow=none;html=1;edgeStyle=orthogonalEdgeStyle;fontFamily=IBM Plex Sans;" parent="s87YEGLy_1aI-YGkXKWT-1" edge="1">
          <mxGeometry relative="1" as="geometry">
            <mxPoint x="-630" y="905" as="sourcePoint" />
            <mxPoint x="-470" y="905" as="targetPoint" />
          </mxGeometry>
        </mxCell>
        <mxCell id="_eCJhCDo3JRrDzbs_fod-20" value="0..N" style="edgeLabel;resizable=0;html=1;align=left;verticalAlign=bottom;fontFamily=IBM Plex Sans;" parent="_eCJhCDo3JRrDzbs_fod-19" connectable="0" vertex="1">
          <mxGeometry x="-1" relative="1" as="geometry" />
        </mxCell>
        <mxCell id="_eCJhCDo3JRrDzbs_fod-21" value="0..N" style="edgeLabel;resizable=0;html=1;align=right;verticalAlign=bottom;fontFamily=IBM Plex Sans;" parent="_eCJhCDo3JRrDzbs_fod-19" connectable="0" vertex="1">
          <mxGeometry x="1" relative="1" as="geometry">
            <mxPoint as="offset" />
          </mxGeometry>
        </mxCell>
        <mxCell id="_eCJhCDo3JRrDzbs_fod-22" value="Label" style="edgeLabel;html=1;align=center;verticalAlign=middle;resizable=0;points=[];fontFamily=IBM Plex Sans;" parent="_eCJhCDo3JRrDzbs_fod-19" vertex="1" connectable="0">
          <mxGeometry x="-0.0375" relative="1" as="geometry">
            <mxPoint y="10" as="offset" />
          </mxGeometry>
        </mxCell>
        <mxCell id="_eCJhCDo3JRrDzbs_fod-23" value="Those are coming directly from UML&lt;br&gt;Annotation to capture cardinality of&lt;br&gt;the source/target elements&lt;br&gt;of the relationship&amp;nbsp;" style="text;html=1;resizable=0;autosize=1;align=center;verticalAlign=middle;points=[];fillColor=none;strokeColor=none;rounded=0;fontFamily=IBM Plex Sans;" parent="s87YEGLy_1aI-YGkXKWT-1" vertex="1">
          <mxGeometry x="-290" y="859" width="220" height="70" as="geometry" />
        </mxCell>
        <mxCell id="_eCJhCDo3JRrDzbs_fod-24" value="" style="shape=curlyBracket;whiteSpace=wrap;html=1;rounded=1;rotation=-180;fontFamily=IBM Plex Sans;" parent="s87YEGLy_1aI-YGkXKWT-1" vertex="1">
          <mxGeometry x="-315" y="619" width="20" height="200" as="geometry" />
        </mxCell>
        <mxCell id="_eCJhCDo3JRrDzbs_fod-25" value="" style="shape=curlyBracket;whiteSpace=wrap;html=1;rounded=1;rotation=-180;fontFamily=IBM Plex Sans;" parent="s87YEGLy_1aI-YGkXKWT-1" vertex="1">
          <mxGeometry x="-315" y="859" width="20" height="70" as="geometry" />
        </mxCell>
        <mxCell id="_eCJhCDo3JRrDzbs_fod-26" value="" style="endArrow=oval;html=1;fontSize=16;fontColor=#4376BB;strokeWidth=2;endFill=1;startArrow=oval;startFill=1;fontFamily=IBM Plex Sans;" parent="s87YEGLy_1aI-YGkXKWT-1" edge="1">
          <mxGeometry width="50" height="50" relative="1" as="geometry">
            <mxPoint x="-1820" y="1033.5" as="sourcePoint" />
            <mxPoint x="-1620" y="1033.5" as="targetPoint" />
          </mxGeometry>
        </mxCell>
        <mxCell id="_eCJhCDo3JRrDzbs_fod-27" value="Label&lt;br&gt;&lt;b&gt;[&lt;/b&gt;Protocol/Application NAME&lt;br&gt;Encyption/Security:PORT&lt;b&gt;]&lt;/b&gt;" style="edgeLabel;html=1;align=center;verticalAlign=middle;resizable=0;points=[];fontFamily=IBM Plex Sans;" parent="_eCJhCDo3JRrDzbs_fod-26" vertex="1" connectable="0">
          <mxGeometry x="-0.08" y="1" relative="1" as="geometry">
            <mxPoint x="3.2800000000000002" y="26.5" as="offset" />
          </mxGeometry>
        </mxCell>
        <mxCell id="_eCJhCDo3JRrDzbs_fod-28" value="Extends" style="endArrow=block;endSize=16;endFill=0;html=1;fontFamily=IBM Plex Sans;" parent="s87YEGLy_1aI-YGkXKWT-1" edge="1">
          <mxGeometry y="-10" width="160" relative="1" as="geometry">
            <mxPoint x="-630" y="845" as="sourcePoint" />
            <mxPoint x="-470" y="845" as="targetPoint" />
            <mxPoint as="offset" />
          </mxGeometry>
        </mxCell>
        <mxCell id="_eCJhCDo3JRrDzbs_fod-29" value="" style="endArrow=open;html=1;endSize=12;startArrow=diamondThin;startSize=14;startFill=0;edgeStyle=orthogonalEdgeStyle;align=left;verticalAlign=bottom;fontFamily=IBM Plex Sans;" parent="s87YEGLy_1aI-YGkXKWT-1" edge="1">
          <mxGeometry x="-1" y="3" relative="1" as="geometry">
            <mxPoint x="-630" y="725" as="sourcePoint" />
            <mxPoint x="-470" y="725" as="targetPoint" />
          </mxGeometry>
        </mxCell>
        <mxCell id="_eCJhCDo3JRrDzbs_fod-30" value="Aggregation" style="edgeLabel;html=1;align=center;verticalAlign=middle;resizable=0;points=[];fontFamily=IBM Plex Sans;" parent="_eCJhCDo3JRrDzbs_fod-29" vertex="1" connectable="0">
          <mxGeometry x="-0.075" y="1" relative="1" as="geometry">
            <mxPoint x="6" y="7" as="offset" />
          </mxGeometry>
        </mxCell>
        <mxCell id="_eCJhCDo3JRrDzbs_fod-31" value="" style="endArrow=open;html=1;endSize=12;startArrow=diamondThin;startSize=14;startFill=1;edgeStyle=orthogonalEdgeStyle;align=left;verticalAlign=bottom;fontFamily=IBM Plex Sans;" parent="s87YEGLy_1aI-YGkXKWT-1" edge="1">
          <mxGeometry x="-1" y="3" relative="1" as="geometry">
            <mxPoint x="-630" y="765" as="sourcePoint" />
            <mxPoint x="-470" y="765" as="targetPoint" />
          </mxGeometry>
        </mxCell>
        <mxCell id="_eCJhCDo3JRrDzbs_fod-32" value="Composition" style="edgeLabel;html=1;align=center;verticalAlign=middle;resizable=0;points=[];fontFamily=IBM Plex Sans;" parent="_eCJhCDo3JRrDzbs_fod-31" vertex="1" connectable="0">
          <mxGeometry x="-0.05" y="1" relative="1" as="geometry">
            <mxPoint y="11" as="offset" />
          </mxGeometry>
        </mxCell>
        <mxCell id="_eCJhCDo3JRrDzbs_fod-33" value="Dependendency" style="endArrow=open;endSize=12;dashed=1;html=1;fontFamily=IBM Plex Sans;" parent="s87YEGLy_1aI-YGkXKWT-1" edge="1">
          <mxGeometry y="-10" width="160" relative="1" as="geometry">
            <mxPoint x="-836.4299999999998" y="645" as="sourcePoint" />
            <mxPoint x="-676.4300000000003" y="645" as="targetPoint" />
            <mxPoint as="offset" />
          </mxGeometry>
        </mxCell>
        <mxCell id="_eCJhCDo3JRrDzbs_fod-34" value="" style="endArrow=block;dashed=1;endFill=0;endSize=12;html=1;fontFamily=IBM Plex Sans;" parent="s87YEGLy_1aI-YGkXKWT-1" edge="1">
          <mxGeometry width="160" relative="1" as="geometry">
            <mxPoint x="-630" y="805" as="sourcePoint" />
            <mxPoint x="-470" y="805" as="targetPoint" />
          </mxGeometry>
        </mxCell>
        <mxCell id="_eCJhCDo3JRrDzbs_fod-35" value="Implementation" style="edgeLabel;html=1;align=center;verticalAlign=middle;resizable=0;points=[];fontFamily=IBM Plex Sans;" parent="_eCJhCDo3JRrDzbs_fod-34" vertex="1" connectable="0">
          <mxGeometry x="-0.0875" y="1" relative="1" as="geometry">
            <mxPoint y="11" as="offset" />
          </mxGeometry>
        </mxCell>
        <mxCell id="_eCJhCDo3JRrDzbs_fod-36" value="" style="endArrow=open;endFill=0;endSize=12;html=1;fontFamily=IBM Plex Sans;" parent="s87YEGLy_1aI-YGkXKWT-1" edge="1">
          <mxGeometry width="160" relative="1" as="geometry">
            <mxPoint x="-836.4299999999998" y="685" as="sourcePoint" />
            <mxPoint x="-676.4300000000003" y="685" as="targetPoint" />
          </mxGeometry>
        </mxCell>
        <mxCell id="_eCJhCDo3JRrDzbs_fod-37" value="Association" style="edgeLabel;html=1;align=center;verticalAlign=middle;resizable=0;points=[];fontFamily=IBM Plex Sans;" parent="_eCJhCDo3JRrDzbs_fod-36" vertex="1" connectable="0">
          <mxGeometry x="-0.0375" y="1" relative="1" as="geometry">
            <mxPoint y="11" as="offset" />
          </mxGeometry>
        </mxCell>
        <mxCell id="_eCJhCDo3JRrDzbs_fod-38" value="" style="endArrow=oval;html=1;fontSize=16;fontColor=#4376BB;strokeWidth=2;endFill=1;rounded=0;startArrow=oval;startFill=1;fontFamily=IBM Plex Sans;" parent="s87YEGLy_1aI-YGkXKWT-1" edge="1">
          <mxGeometry width="50" height="50" relative="1" as="geometry">
            <mxPoint x="-1815" y="718.7714814814817" as="sourcePoint" />
            <mxPoint x="-1615" y="718.7714814814817" as="targetPoint" />
          </mxGeometry>
        </mxCell>
        <mxCell id="_eCJhCDo3JRrDzbs_fod-39" value="Connection" style="edgeLabel;html=1;align=center;verticalAlign=middle;resizable=0;points=[];fontFamily=IBM Plex Sans;" parent="_eCJhCDo3JRrDzbs_fod-38" vertex="1" connectable="0">
          <mxGeometry x="-0.07" y="2" relative="1" as="geometry">
            <mxPoint x="-3" y="12" as="offset" />
          </mxGeometry>
        </mxCell>
        <mxCell id="_eCJhCDo3JRrDzbs_fod-40" value="Logical Connection / Link" style="html=1;verticalAlign=middle;startArrow=oval;startFill=1;endArrow=oval;startSize=6;strokeColor=#000000;align=center;dashed=1;strokeWidth=2;horizontal=1;labelPosition=center;verticalLabelPosition=middle;endFill=1;fontFamily=IBM Plex Sans;" parent="s87YEGLy_1aI-YGkXKWT-1" edge="1">
          <mxGeometry x="-0.1" y="-10" width="60" relative="1" as="geometry">
            <mxPoint x="-1815" y="663.7714814814813" as="sourcePoint" />
            <mxPoint x="-1615" y="663.7714814814813" as="targetPoint" />
            <mxPoint as="offset" />
          </mxGeometry>
        </mxCell>
        <mxCell id="_eCJhCDo3JRrDzbs_fod-41" value="&lt;font color=&quot;#000000&quot;&gt;Bidirectional&lt;/font&gt;" style="text;html=1;strokeColor=none;fillColor=none;align=center;verticalAlign=middle;whiteSpace=wrap;rounded=0;fontSize=16;fontColor=#4376BB;fontStyle=1;fontFamily=IBM Plex Sans;" parent="s87YEGLy_1aI-YGkXKWT-1" vertex="1">
          <mxGeometry x="-1820" y="605" width="546" height="24" as="geometry" />
        </mxCell>
        <mxCell id="_eCJhCDo3JRrDzbs_fod-42" value="&lt;font color=&quot;#000000&quot;&gt;Unidirectional&lt;/font&gt;" style="text;html=1;strokeColor=none;fillColor=none;align=center;verticalAlign=middle;whiteSpace=wrap;rounded=0;fontSize=16;fontColor=#4376BB;fontStyle=1;fontFamily=IBM Plex Sans;" parent="s87YEGLy_1aI-YGkXKWT-1" vertex="1">
          <mxGeometry x="-1255" y="629" width="240" height="20" as="geometry" />
        </mxCell>
        <mxCell id="_eCJhCDo3JRrDzbs_fod-43" value="" style="endArrow=block;html=1;fontSize=16;fontColor=#4376BB;strokeWidth=2;endFill=1;rounded=0;startArrow=oval;startFill=1;fontFamily=IBM Plex Sans;" parent="s87YEGLy_1aI-YGkXKWT-1" edge="1">
          <mxGeometry width="50" height="50" relative="1" as="geometry">
            <mxPoint x="-1235" y="712.4814814814818" as="sourcePoint" />
            <mxPoint x="-1035" y="711.21" as="targetPoint" />
          </mxGeometry>
        </mxCell>
        <mxCell id="_eCJhCDo3JRrDzbs_fod-44" value="Unidirectional Connection" style="edgeLabel;html=1;align=center;verticalAlign=middle;resizable=0;points=[];fontFamily=IBM Plex Sans;" parent="_eCJhCDo3JRrDzbs_fod-43" vertex="1" connectable="0">
          <mxGeometry x="-0.07" y="2" relative="1" as="geometry">
            <mxPoint x="-3" y="12" as="offset" />
          </mxGeometry>
        </mxCell>
        <mxCell id="_eCJhCDo3JRrDzbs_fod-45" value="Unidirectional Logical Connection / Link" style="html=1;verticalAlign=middle;startArrow=oval;startFill=1;endArrow=block;startSize=6;strokeColor=#000000;align=center;dashed=1;strokeWidth=2;horizontal=1;labelPosition=center;verticalLabelPosition=middle;endFill=1;fontFamily=IBM Plex Sans;" parent="s87YEGLy_1aI-YGkXKWT-1" edge="1">
          <mxGeometry x="-0.1" y="-10" width="60" relative="1" as="geometry">
            <mxPoint x="-1235" y="656.1314814814813" as="sourcePoint" />
            <mxPoint x="-1035" y="656.1314814814813" as="targetPoint" />
            <mxPoint as="offset" />
          </mxGeometry>
        </mxCell>
        <mxCell id="_eCJhCDo3JRrDzbs_fod-46" value="" style="endArrow=block;html=1;fontSize=16;fontColor=#4376BB;strokeWidth=2;endFill=1;strokeColor=#198038;startArrow=oval;startFill=1;fontFamily=IBM Plex Sans;" parent="s87YEGLy_1aI-YGkXKWT-1" edge="1">
          <mxGeometry width="50" height="50" relative="1" as="geometry">
            <mxPoint x="-1230" y="933.75" as="sourcePoint" />
            <mxPoint x="-1030" y="933.75" as="targetPoint" />
          </mxGeometry>
        </mxCell>
        <mxCell id="_eCJhCDo3JRrDzbs_fod-47" value="Unidirectional Private Connection" style="edgeLabel;html=1;align=center;verticalAlign=middle;resizable=0;points=[];fontFamily=IBM Plex Sans;" parent="_eCJhCDo3JRrDzbs_fod-46" vertex="1" connectable="0">
          <mxGeometry x="-0.08" y="1" relative="1" as="geometry">
            <mxPoint y="16" as="offset" />
          </mxGeometry>
        </mxCell>
        <mxCell id="_eCJhCDo3JRrDzbs_fod-48" value="" style="endArrow=block;html=1;fontSize=16;fontColor=#4376BB;strokeWidth=2;endFill=1;strokeColor=#4376BB;startArrow=oval;startFill=1;fontFamily=IBM Plex Sans;" parent="s87YEGLy_1aI-YGkXKWT-1" edge="1">
          <mxGeometry width="50" height="50" relative="1" as="geometry">
            <mxPoint x="-1230" y="973.75" as="sourcePoint" />
            <mxPoint x="-1030" y="973.75" as="targetPoint" />
          </mxGeometry>
        </mxCell>
        <mxCell id="_eCJhCDo3JRrDzbs_fod-49" value="Unidirectional Public Connection" style="edgeLabel;html=1;align=center;verticalAlign=middle;resizable=0;points=[];fontFamily=IBM Plex Sans;" parent="_eCJhCDo3JRrDzbs_fod-48" vertex="1" connectable="0">
          <mxGeometry x="-0.08" y="1" relative="1" as="geometry">
            <mxPoint y="16" as="offset" />
          </mxGeometry>
        </mxCell>
        <mxCell id="_eCJhCDo3JRrDzbs_fod-50" value="" style="endArrow=block;html=1;fontSize=16;fontColor=#4376BB;strokeWidth=2;endFill=1;startArrow=oval;startFill=1;fontFamily=IBM Plex Sans;" parent="s87YEGLy_1aI-YGkXKWT-1" edge="1">
          <mxGeometry width="50" height="50" relative="1" as="geometry">
            <mxPoint x="-1230" y="1033.25" as="sourcePoint" />
            <mxPoint x="-1030" y="1033.25" as="targetPoint" />
          </mxGeometry>
        </mxCell>
        <mxCell id="_eCJhCDo3JRrDzbs_fod-51" value="Label&lt;br&gt;&lt;b&gt;[&lt;/b&gt;Protocol/Application NAME&lt;br&gt;Encyption/Security:PORT&lt;b&gt;]&lt;/b&gt;" style="edgeLabel;html=1;align=center;verticalAlign=middle;resizable=0;points=[];fontFamily=IBM Plex Sans;" parent="_eCJhCDo3JRrDzbs_fod-50" vertex="1" connectable="0">
          <mxGeometry x="-0.08" y="1" relative="1" as="geometry">
            <mxPoint x="3" y="26.75" as="offset" />
          </mxGeometry>
        </mxCell>
        <mxCell id="_eCJhCDo3JRrDzbs_fod-53" value="" style="endArrow=box;html=1;fontSize=16;fontColor=#4376BB;strokeWidth=2;endFill=0;rounded=0;startArrow=box;startFill=0;shape=link;fontFamily=IBM Plex Sans;" parent="s87YEGLy_1aI-YGkXKWT-1" edge="1">
          <mxGeometry width="50" height="50" relative="1" as="geometry">
            <mxPoint x="-1235" y="745.5" as="sourcePoint" />
            <mxPoint x="-1035" y="745.5" as="targetPoint" />
          </mxGeometry>
        </mxCell>
        <mxCell id="_eCJhCDo3JRrDzbs_fod-54" value="Physical Connection" style="edgeLabel;html=1;align=center;verticalAlign=middle;resizable=0;points=[];fontFamily=IBM Plex Sans;" parent="_eCJhCDo3JRrDzbs_fod-53" vertex="1" connectable="0">
          <mxGeometry x="-0.07" y="2" relative="1" as="geometry">
            <mxPoint x="7" y="16.5" as="offset" />
          </mxGeometry>
        </mxCell>
        <mxCell id="_eCJhCDo3JRrDzbs_fod-55" value="&lt;font color=&quot;#000000&quot;&gt;Standard&lt;/font&gt;" style="text;html=1;strokeColor=none;fillColor=none;align=center;verticalAlign=middle;whiteSpace=wrap;rounded=0;fontSize=16;fontColor=#4376BB;fontStyle=1;fontFamily=IBM Plex Sans;" parent="s87YEGLy_1aI-YGkXKWT-1" vertex="1">
          <mxGeometry x="-870" y="605" width="240" height="20" as="geometry" />
        </mxCell>
        <mxCell id="_eCJhCDo3JRrDzbs_fod-56" value="&lt;font color=&quot;#000000&quot;&gt;Extended/Advanced&lt;/font&gt;" style="text;html=1;strokeColor=none;fillColor=none;align=center;verticalAlign=middle;whiteSpace=wrap;rounded=0;fontSize=16;fontColor=#4376BB;fontStyle=1;fontFamily=IBM Plex Sans;" parent="s87YEGLy_1aI-YGkXKWT-1" vertex="1">
          <mxGeometry x="-665" y="605" width="240" height="20" as="geometry" />
        </mxCell>
        <mxCell id="_eCJhCDo3JRrDzbs_fod-61" value="Traffic Through DoubleTunnel/Encapsulation" style="text;html=1;align=center;verticalAlign=middle;resizable=0;points=[];autosize=1;fontFamily=IBM Plex Sans;" parent="s87YEGLy_1aI-YGkXKWT-1" vertex="1">
          <mxGeometry x="-1845" y="884" width="260" height="30" as="geometry" />
        </mxCell>
        <mxCell id="_eCJhCDo3JRrDzbs_fod-70" value="Annotation to describe&lt;br&gt;what encapsulation is used &lt;br&gt;by the message/connection" style="text;html=1;resizable=0;autosize=1;align=center;verticalAlign=middle;points=[];fillColor=none;strokeColor=none;rounded=0;fontFamily=IBM Plex Sans;" parent="s87YEGLy_1aI-YGkXKWT-1" vertex="1">
          <mxGeometry x="-2040" y="1084" width="170" height="60" as="geometry" />
        </mxCell>
        <mxCell id="_eCJhCDo3JRrDzbs_fod-71" value="" style="endArrow=oval;html=1;fontSize=16;fontColor=#4376BB;strokeWidth=2;endFill=1;startArrow=oval;startFill=1;fontFamily=IBM Plex Sans;" parent="s87YEGLy_1aI-YGkXKWT-1" edge="1">
          <mxGeometry width="50" height="50" relative="1" as="geometry">
            <mxPoint x="-1820" y="1113.5" as="sourcePoint" />
            <mxPoint x="-1620" y="1113.5" as="targetPoint" />
          </mxGeometry>
        </mxCell>
        <mxCell id="_eCJhCDo3JRrDzbs_fod-72" value="Label&lt;br&gt;&lt;b&gt;[&lt;/b&gt;Encapsulation NAME&lt;br&gt;Encyption/Security:PORT&lt;b&gt;]&lt;/b&gt;" style="edgeLabel;html=1;align=center;verticalAlign=middle;resizable=0;points=[];fontFamily=IBM Plex Sans;" parent="_eCJhCDo3JRrDzbs_fod-71" vertex="1" connectable="0">
          <mxGeometry x="-0.08" y="1" relative="1" as="geometry">
            <mxPoint x="13" y="27" as="offset" />
          </mxGeometry>
        </mxCell>
        <mxCell id="_eCJhCDo3JRrDzbs_fod-73" value="" style="endArrow=block;html=1;fontSize=16;fontColor=#4376BB;strokeWidth=2;endFill=1;startArrow=oval;startFill=1;fontFamily=IBM Plex Sans;" parent="s87YEGLy_1aI-YGkXKWT-1" edge="1">
          <mxGeometry width="50" height="50" relative="1" as="geometry">
            <mxPoint x="-1230" y="1113.25" as="sourcePoint" />
            <mxPoint x="-1030" y="1113.25" as="targetPoint" />
          </mxGeometry>
        </mxCell>
        <mxCell id="_eCJhCDo3JRrDzbs_fod-74" value="Label&lt;br&gt;&lt;b&gt;[&lt;/b&gt;Encapsulation NAME&lt;br&gt;Encyption/Security:PORT&lt;b&gt;]&lt;/b&gt;" style="edgeLabel;html=1;align=center;verticalAlign=middle;resizable=0;points=[];fontFamily=IBM Plex Sans;" parent="_eCJhCDo3JRrDzbs_fod-73" vertex="1" connectable="0">
          <mxGeometry x="-0.08" y="1" relative="1" as="geometry">
            <mxPoint x="3" y="32" as="offset" />
          </mxGeometry>
        </mxCell>
        <mxCell id="_eCJhCDo3JRrDzbs_fod-75" value="" style="shape=curlyBracket;whiteSpace=wrap;html=1;rounded=1;fontFamily=IBM Plex Sans;" parent="s87YEGLy_1aI-YGkXKWT-1" vertex="1">
          <mxGeometry x="-1870" y="1079" width="20" height="70" as="geometry" />
        </mxCell>
        <mxCell id="_eCJhCDo3JRrDzbs_fod-77" value="&lt;font color=&quot;#000000&quot;&gt;#&lt;/font&gt;" style="ellipse;whiteSpace=wrap;html=1;aspect=fixed;fontStyle=1;fontSize=17;fontColor=#990099;fontFamily=IBM Plex Sans;" parent="s87YEGLy_1aI-YGkXKWT-1" vertex="1">
          <mxGeometry x="-1738" y="1252" width="26" height="26" as="geometry" />
        </mxCell>
        <mxCell id="_eCJhCDo3JRrDzbs_fod-78" value="Sequencing or numbering &lt;br&gt;for flowcharts or use cases" style="text;html=1;align=center;verticalAlign=middle;resizable=0;points=[];autosize=1;fontFamily=IBM Plex Sans;" parent="s87YEGLy_1aI-YGkXKWT-1" vertex="1">
          <mxGeometry x="-2045" y="1243" width="170" height="40" as="geometry" />
        </mxCell>
        <mxCell id="_eCJhCDo3JRrDzbs_fod-79" value="" style="shape=curlyBracket;whiteSpace=wrap;html=1;rounded=1;fontFamily=IBM Plex Sans;" parent="s87YEGLy_1aI-YGkXKWT-1" vertex="1">
          <mxGeometry x="-1870" y="1241" width="20" height="48" as="geometry" />
        </mxCell>
        <mxCell id="_eCJhCDo3JRrDzbs_fod-80" value="&lt;font color=&quot;#000000&quot;&gt;#&lt;/font&gt;" style="ellipse;whiteSpace=wrap;html=1;aspect=fixed;fontStyle=1;fontSize=17;fontColor=#990099;fontFamily=IBM Plex Sans;" parent="s87YEGLy_1aI-YGkXKWT-1" vertex="1">
          <mxGeometry x="-1158" y="1257" width="26" height="26" as="geometry" />
        </mxCell>
        <mxCell id="rXn8ZBBdL_xO1bcos74R-0" value="&lt;font style=&quot;font-size: 11px&quot;&gt;Tunneling Connection&lt;/font&gt;" style="rounded=0;whiteSpace=wrap;html=1;fillColor=#FFD7D9;strokeColor=none;verticalAlign=middle;fontFamily=IBM Plex Sans;" parent="s87YEGLy_1aI-YGkXKWT-1" vertex="1">
          <mxGeometry x="-1815" y="789" width="200" height="20" as="geometry" />
        </mxCell>
        <mxCell id="rXn8ZBBdL_xO1bcos74R-1" value="&lt;font style=&quot;font-size: 11px&quot;&gt;Tunneling Connection&lt;/font&gt;" style="rounded=0;whiteSpace=wrap;html=1;fillColor=#FFD7D9;strokeColor=none;verticalAlign=middle;fontFamily=IBM Plex Sans;" parent="s87YEGLy_1aI-YGkXKWT-1" vertex="1">
          <mxGeometry x="-1235" y="781.5" width="200" height="20" as="geometry" />
        </mxCell>
        <mxCell id="rXn8ZBBdL_xO1bcos74R-2" value="" style="rounded=0;whiteSpace=wrap;html=1;fillColor=#FFD7D9;strokeColor=none;fontFamily=IBM Plex Sans;" parent="s87YEGLy_1aI-YGkXKWT-1" vertex="1">
          <mxGeometry x="-1815" y="823" width="200" height="20" as="geometry" />
        </mxCell>
        <mxCell id="rXn8ZBBdL_xO1bcos74R-3" style="rounded=0;orthogonalLoop=1;jettySize=auto;html=1;exitX=0;exitY=0.5;exitDx=0;exitDy=0;entryX=1;entryY=0.5;entryDx=0;entryDy=0;strokeWidth=2;endArrow=oval;endFill=1;startArrow=oval;startFill=1;fontFamily=IBM Plex Sans;" parent="s87YEGLy_1aI-YGkXKWT-1" source="rXn8ZBBdL_xO1bcos74R-2" target="rXn8ZBBdL_xO1bcos74R-2" edge="1">
          <mxGeometry relative="1" as="geometry">
            <Array as="points">
              <mxPoint x="-1720" y="833" />
            </Array>
          </mxGeometry>
        </mxCell>
        <mxCell id="rXn8ZBBdL_xO1bcos74R-4" value="Traffic Through Tunnel/Encapsulation" style="text;html=1;align=center;verticalAlign=middle;resizable=0;points=[];autosize=1;fontFamily=IBM Plex Sans;" parent="s87YEGLy_1aI-YGkXKWT-1" vertex="1">
          <mxGeometry x="-1830" y="838" width="230" height="30" as="geometry" />
        </mxCell>
        <mxCell id="rXn8ZBBdL_xO1bcos74R-5" value="" style="rounded=0;whiteSpace=wrap;html=1;fillColor=#FFD7D9;strokeColor=none;fontFamily=IBM Plex Sans;" parent="s87YEGLy_1aI-YGkXKWT-1" vertex="1">
          <mxGeometry x="-1235" y="815.5" width="200" height="20" as="geometry" />
        </mxCell>
        <mxCell id="rXn8ZBBdL_xO1bcos74R-6" style="rounded=0;orthogonalLoop=1;jettySize=auto;html=1;exitX=0;exitY=0.5;exitDx=0;exitDy=0;entryX=1;entryY=0.5;entryDx=0;entryDy=0;strokeWidth=2;endArrow=block;endFill=1;startArrow=oval;startFill=1;fontFamily=IBM Plex Sans;" parent="s87YEGLy_1aI-YGkXKWT-1" source="rXn8ZBBdL_xO1bcos74R-5" target="rXn8ZBBdL_xO1bcos74R-5" edge="1">
          <mxGeometry relative="1" as="geometry" />
        </mxCell>
        <mxCell id="rXn8ZBBdL_xO1bcos74R-7" value="Unidirectional Traffic Through Tunnel/Encapsulation" style="text;html=1;align=center;verticalAlign=middle;resizable=0;points=[];autosize=1;fontFamily=IBM Plex Sans;" parent="s87YEGLy_1aI-YGkXKWT-1" vertex="1">
          <mxGeometry x="-1285" y="830.5" width="300" height="30" as="geometry" />
        </mxCell>
        <mxCell id="rXn8ZBBdL_xO1bcos74R-8" value="" style="rounded=0;whiteSpace=wrap;html=1;fillColor=#FFD7D9;strokeColor=none;fontFamily=IBM Plex Sans;" parent="s87YEGLy_1aI-YGkXKWT-1" vertex="1">
          <mxGeometry x="-1815" y="869" width="200" height="20" as="geometry" />
        </mxCell>
        <mxCell id="rXn8ZBBdL_xO1bcos74R-9" value="" style="rounded=0;whiteSpace=wrap;html=1;strokeColor=none;fillColor=#DEFBE6;fontFamily=IBM Plex Sans;" parent="s87YEGLy_1aI-YGkXKWT-1" vertex="1">
          <mxGeometry x="-1815" y="874" width="200" height="10" as="geometry" />
        </mxCell>
        <mxCell id="rXn8ZBBdL_xO1bcos74R-10" style="edgeStyle=none;rounded=0;orthogonalLoop=1;jettySize=auto;html=1;entryX=1;entryY=0.5;entryDx=0;entryDy=0;startArrow=oval;startFill=1;endArrow=oval;endFill=1;strokeWidth=2;fontFamily=IBM Plex Sans;" parent="s87YEGLy_1aI-YGkXKWT-1" target="rXn8ZBBdL_xO1bcos74R-9" edge="1">
          <mxGeometry relative="1" as="geometry">
            <mxPoint x="-1815" y="879" as="sourcePoint" />
          </mxGeometry>
        </mxCell>
        <mxCell id="rXn8ZBBdL_xO1bcos74R-11" value="" style="rounded=0;whiteSpace=wrap;html=1;fillColor=#FFD7D9;strokeColor=none;fontFamily=IBM Plex Sans;" parent="s87YEGLy_1aI-YGkXKWT-1" vertex="1">
          <mxGeometry x="-1235" y="861.5" width="200" height="20" as="geometry" />
        </mxCell>
        <mxCell id="rXn8ZBBdL_xO1bcos74R-12" value="" style="rounded=0;whiteSpace=wrap;html=1;strokeColor=none;fillColor=#DEFBE6;fontFamily=IBM Plex Sans;" parent="s87YEGLy_1aI-YGkXKWT-1" vertex="1">
          <mxGeometry x="-1235" y="866.5" width="200" height="10" as="geometry" />
        </mxCell>
        <mxCell id="rXn8ZBBdL_xO1bcos74R-13" style="edgeStyle=none;rounded=0;orthogonalLoop=1;jettySize=auto;html=1;entryX=1;entryY=0.5;entryDx=0;entryDy=0;startArrow=oval;startFill=1;endArrow=block;endFill=1;strokeWidth=2;fontFamily=IBM Plex Sans;" parent="s87YEGLy_1aI-YGkXKWT-1" target="rXn8ZBBdL_xO1bcos74R-12" edge="1">
          <mxGeometry relative="1" as="geometry">
            <mxPoint x="-1235" y="871.5" as="sourcePoint" />
          </mxGeometry>
        </mxCell>
        <mxCell id="rXn8ZBBdL_xO1bcos74R-14" value="Unidirectional Traffic Through DoubleTunnel/Encapsulation" style="text;html=1;align=center;verticalAlign=middle;resizable=0;points=[];autosize=1;fontFamily=IBM Plex Sans;" parent="s87YEGLy_1aI-YGkXKWT-1" vertex="1">
          <mxGeometry x="-1305" y="879" width="340" height="30" as="geometry" />
        </mxCell>
        <mxCell id="hbLrhY0U5PtCLY0ESJKj-22" value="" style="endArrow=block;html=1;fontSize=16;fontColor=#4376BB;strokeWidth=2;endFill=1;strokeColor=#198038;startArrow=block;startFill=1;fontFamily=IBM Plex Sans;" parent="s87YEGLy_1aI-YGkXKWT-1" edge="1">
          <mxGeometry width="50" height="50" relative="1" as="geometry">
            <mxPoint x="-1540" y="934" as="sourcePoint" />
            <mxPoint x="-1340" y="934" as="targetPoint" />
          </mxGeometry>
        </mxCell>
        <mxCell id="hbLrhY0U5PtCLY0ESJKj-23" value="Private Connection" style="edgeLabel;html=1;align=center;verticalAlign=middle;resizable=0;points=[];fontFamily=IBM Plex Sans;" parent="hbLrhY0U5PtCLY0ESJKj-22" vertex="1" connectable="0">
          <mxGeometry x="-0.08" y="1" relative="1" as="geometry">
            <mxPoint y="16" as="offset" />
          </mxGeometry>
        </mxCell>
        <mxCell id="hbLrhY0U5PtCLY0ESJKj-24" value="" style="endArrow=block;html=1;fontSize=16;fontColor=#4376BB;strokeWidth=2;endFill=1;strokeColor=#4376BB;startArrow=block;startFill=1;fontFamily=IBM Plex Sans;" parent="s87YEGLy_1aI-YGkXKWT-1" edge="1">
          <mxGeometry width="50" height="50" relative="1" as="geometry">
            <mxPoint x="-1540" y="974" as="sourcePoint" />
            <mxPoint x="-1340" y="974" as="targetPoint" />
          </mxGeometry>
        </mxCell>
        <mxCell id="hbLrhY0U5PtCLY0ESJKj-25" value="Public Connection" style="edgeLabel;html=1;align=center;verticalAlign=middle;resizable=0;points=[];fontFamily=IBM Plex Sans;" parent="hbLrhY0U5PtCLY0ESJKj-24" vertex="1" connectable="0">
          <mxGeometry x="-0.08" y="1" relative="1" as="geometry">
            <mxPoint y="16" as="offset" />
          </mxGeometry>
        </mxCell>
        <mxCell id="hbLrhY0U5PtCLY0ESJKj-26" value="" style="endArrow=box;html=1;fontSize=16;fontColor=#4376BB;strokeWidth=2;endFill=0;rounded=0;startArrow=box;startFill=0;shape=link;fontFamily=IBM Plex Sans;" parent="s87YEGLy_1aI-YGkXKWT-1" edge="1">
          <mxGeometry width="50" height="50" relative="1" as="geometry">
            <mxPoint x="-1535" y="749" as="sourcePoint" />
            <mxPoint x="-1335" y="749" as="targetPoint" />
          </mxGeometry>
        </mxCell>
        <mxCell id="hbLrhY0U5PtCLY0ESJKj-27" value="Physical Connection" style="edgeLabel;html=1;align=center;verticalAlign=middle;resizable=0;points=[];fontFamily=IBM Plex Sans;" parent="hbLrhY0U5PtCLY0ESJKj-26" vertex="1" connectable="0">
          <mxGeometry x="-0.07" y="2" relative="1" as="geometry">
            <mxPoint x="7" y="16.5" as="offset" />
          </mxGeometry>
        </mxCell>
        <mxCell id="hbLrhY0U5PtCLY0ESJKj-28" value="" style="endArrow=block;html=1;fontSize=16;fontColor=#4376BB;strokeWidth=2;endFill=1;startArrow=block;startFill=1;fontFamily=IBM Plex Sans;" parent="s87YEGLy_1aI-YGkXKWT-1" edge="1">
          <mxGeometry width="50" height="50" relative="1" as="geometry">
            <mxPoint x="-1540" y="1033.5" as="sourcePoint" />
            <mxPoint x="-1340" y="1033.5" as="targetPoint" />
          </mxGeometry>
        </mxCell>
        <mxCell id="hbLrhY0U5PtCLY0ESJKj-29" value="Label&lt;br&gt;&lt;b&gt;[&lt;/b&gt;Protocol/Application NAME&lt;br&gt;Encyption/Security:PORT&lt;b&gt;]&lt;/b&gt;" style="edgeLabel;html=1;align=center;verticalAlign=middle;resizable=0;points=[];fontFamily=IBM Plex Sans;" parent="hbLrhY0U5PtCLY0ESJKj-28" vertex="1" connectable="0">
          <mxGeometry x="-0.08" y="1" relative="1" as="geometry">
            <mxPoint x="3.2800000000000002" y="26.5" as="offset" />
          </mxGeometry>
        </mxCell>
        <mxCell id="hbLrhY0U5PtCLY0ESJKj-30" value="" style="endArrow=block;html=1;fontSize=16;fontColor=#4376BB;strokeWidth=2;endFill=1;rounded=0;startArrow=block;startFill=1;fontFamily=IBM Plex Sans;" parent="s87YEGLy_1aI-YGkXKWT-1" edge="1">
          <mxGeometry width="50" height="50" relative="1" as="geometry">
            <mxPoint x="-1535" y="718.7714814814817" as="sourcePoint" />
            <mxPoint x="-1335" y="718.7714814814817" as="targetPoint" />
          </mxGeometry>
        </mxCell>
        <mxCell id="hbLrhY0U5PtCLY0ESJKj-31" value="Connection" style="edgeLabel;html=1;align=center;verticalAlign=middle;resizable=0;points=[];fontFamily=IBM Plex Sans;" parent="hbLrhY0U5PtCLY0ESJKj-30" vertex="1" connectable="0">
          <mxGeometry x="-0.07" y="2" relative="1" as="geometry">
            <mxPoint x="-3" y="12" as="offset" />
          </mxGeometry>
        </mxCell>
        <mxCell id="hbLrhY0U5PtCLY0ESJKj-32" value="Logical Connection / Link" style="html=1;verticalAlign=middle;startArrow=block;startFill=1;endArrow=block;startSize=6;strokeColor=#000000;align=center;dashed=1;strokeWidth=2;horizontal=1;labelPosition=center;verticalLabelPosition=middle;endFill=1;fontFamily=IBM Plex Sans;" parent="s87YEGLy_1aI-YGkXKWT-1" edge="1">
          <mxGeometry x="-0.1" y="-10" width="60" relative="1" as="geometry">
            <mxPoint x="-1535" y="663.7714814814813" as="sourcePoint" />
            <mxPoint x="-1335" y="663.7714814814813" as="targetPoint" />
            <mxPoint as="offset" />
          </mxGeometry>
        </mxCell>
        <mxCell id="hbLrhY0U5PtCLY0ESJKj-33" value="Traffic Through DoubleTunnel/Encapsulation" style="text;html=1;align=center;verticalAlign=middle;resizable=0;points=[];autosize=1;fontFamily=IBM Plex Sans;" parent="s87YEGLy_1aI-YGkXKWT-1" vertex="1">
          <mxGeometry x="-1565" y="884" width="260" height="30" as="geometry" />
        </mxCell>
        <mxCell id="hbLrhY0U5PtCLY0ESJKj-34" value="" style="endArrow=block;html=1;fontSize=16;fontColor=#4376BB;strokeWidth=2;endFill=1;startArrow=block;startFill=1;fontFamily=IBM Plex Sans;" parent="s87YEGLy_1aI-YGkXKWT-1" edge="1">
          <mxGeometry width="50" height="50" relative="1" as="geometry">
            <mxPoint x="-1540" y="1113.5" as="sourcePoint" />
            <mxPoint x="-1340" y="1113.5" as="targetPoint" />
          </mxGeometry>
        </mxCell>
        <mxCell id="hbLrhY0U5PtCLY0ESJKj-35" value="Label&lt;br&gt;&lt;b&gt;[&lt;/b&gt;Encapsulation NAME&lt;br&gt;Encyption/Security:PORT&lt;b&gt;]&lt;/b&gt;" style="edgeLabel;html=1;align=center;verticalAlign=middle;resizable=0;points=[];fontFamily=IBM Plex Sans;" parent="hbLrhY0U5PtCLY0ESJKj-34" vertex="1" connectable="0">
          <mxGeometry x="-0.08" y="1" relative="1" as="geometry">
            <mxPoint x="13" y="27" as="offset" />
          </mxGeometry>
        </mxCell>
        <mxCell id="hbLrhY0U5PtCLY0ESJKj-36" value="&lt;font color=&quot;#000000&quot;&gt;#&lt;/font&gt;" style="ellipse;whiteSpace=wrap;html=1;aspect=fixed;fontStyle=1;fontSize=17;fontColor=#990099;fontFamily=IBM Plex Sans;" parent="s87YEGLy_1aI-YGkXKWT-1" vertex="1">
          <mxGeometry x="-1458" y="1252" width="26" height="26" as="geometry" />
        </mxCell>
        <mxCell id="hbLrhY0U5PtCLY0ESJKj-37" value="&lt;font style=&quot;font-size: 11px&quot;&gt;Tunneling Connection&lt;/font&gt;" style="rounded=0;whiteSpace=wrap;html=1;fillColor=#FFD7D9;strokeColor=none;verticalAlign=middle;fontFamily=IBM Plex Sans;" parent="s87YEGLy_1aI-YGkXKWT-1" vertex="1">
          <mxGeometry x="-1535" y="789" width="200" height="20" as="geometry" />
        </mxCell>
        <mxCell id="hbLrhY0U5PtCLY0ESJKj-38" value="" style="rounded=0;whiteSpace=wrap;html=1;fillColor=#FFD7D9;strokeColor=none;fontFamily=IBM Plex Sans;" parent="s87YEGLy_1aI-YGkXKWT-1" vertex="1">
          <mxGeometry x="-1535" y="823" width="200" height="20" as="geometry" />
        </mxCell>
        <mxCell id="hbLrhY0U5PtCLY0ESJKj-39" style="rounded=0;orthogonalLoop=1;jettySize=auto;html=1;exitX=0;exitY=0.5;exitDx=0;exitDy=0;entryX=1;entryY=0.5;entryDx=0;entryDy=0;strokeWidth=2;endArrow=block;endFill=1;startArrow=block;startFill=1;fontFamily=IBM Plex Sans;" parent="s87YEGLy_1aI-YGkXKWT-1" source="hbLrhY0U5PtCLY0ESJKj-38" target="hbLrhY0U5PtCLY0ESJKj-38" edge="1">
          <mxGeometry relative="1" as="geometry">
            <Array as="points">
              <mxPoint x="-1440" y="833" />
            </Array>
          </mxGeometry>
        </mxCell>
        <mxCell id="hbLrhY0U5PtCLY0ESJKj-40" value="Traffic Through Tunnel/Encapsulation" style="text;html=1;align=center;verticalAlign=middle;resizable=0;points=[];autosize=1;fontFamily=IBM Plex Sans;" parent="s87YEGLy_1aI-YGkXKWT-1" vertex="1">
          <mxGeometry x="-1550" y="838" width="230" height="30" as="geometry" />
        </mxCell>
        <mxCell id="hbLrhY0U5PtCLY0ESJKj-41" value="" style="rounded=0;whiteSpace=wrap;html=1;fillColor=#FFD7D9;strokeColor=none;fontFamily=IBM Plex Sans;" parent="s87YEGLy_1aI-YGkXKWT-1" vertex="1">
          <mxGeometry x="-1535" y="869" width="200" height="20" as="geometry" />
        </mxCell>
        <mxCell id="hbLrhY0U5PtCLY0ESJKj-42" value="" style="rounded=0;whiteSpace=wrap;html=1;strokeColor=none;fillColor=#DEFBE6;fontFamily=IBM Plex Sans;" parent="s87YEGLy_1aI-YGkXKWT-1" vertex="1">
          <mxGeometry x="-1535" y="874" width="200" height="10" as="geometry" />
        </mxCell>
        <mxCell id="hbLrhY0U5PtCLY0ESJKj-43" style="edgeStyle=none;rounded=0;orthogonalLoop=1;jettySize=auto;html=1;entryX=1;entryY=0.5;entryDx=0;entryDy=0;startArrow=block;startFill=1;endArrow=block;endFill=1;strokeWidth=2;fontFamily=IBM Plex Sans;" parent="s87YEGLy_1aI-YGkXKWT-1" target="hbLrhY0U5PtCLY0ESJKj-42" edge="1">
          <mxGeometry relative="1" as="geometry">
            <mxPoint x="-1535" y="879" as="sourcePoint" />
          </mxGeometry>
        </mxCell>
        <mxCell id="hbLrhY0U5PtCLY0ESJKj-44" value="&lt;font color=&quot;#000000&quot;&gt;Option 1&lt;/font&gt;" style="text;html=1;strokeColor=none;fillColor=none;align=center;verticalAlign=middle;whiteSpace=wrap;rounded=0;fontSize=16;fontColor=#4376BB;fontStyle=1;fontFamily=IBM Plex Sans;" parent="s87YEGLy_1aI-YGkXKWT-1" vertex="1">
          <mxGeometry x="-1800" y="625" width="150" height="24" as="geometry" />
        </mxCell>
        <mxCell id="hbLrhY0U5PtCLY0ESJKj-45" value="&lt;font color=&quot;#000000&quot;&gt;Option 2&lt;/font&gt;" style="text;html=1;strokeColor=none;fillColor=none;align=center;verticalAlign=middle;whiteSpace=wrap;rounded=0;fontSize=16;fontColor=#4376BB;fontStyle=1;fontFamily=IBM Plex Sans;" parent="s87YEGLy_1aI-YGkXKWT-1" vertex="1">
          <mxGeometry x="-1510" y="619" width="150" height="24" as="geometry" />
        </mxCell>
        <mxCell id="Jw35tbAulJViPN4Jd-NV-0" value="COLOR CODE FFD7D9" style="text;whiteSpace=wrap;html=1;fillColor=#FFD7D9;align=center;fontStyle=1;fontSize=13;fontFamily=IBM Plex Sans;" parent="s87YEGLy_1aI-YGkXKWT-1" vertex="1">
          <mxGeometry x="-2280" y="1310" width="200" height="26" as="geometry" />
        </mxCell>
        <mxCell id="Jw35tbAulJViPN4Jd-NV-2" value="COLOR CODE DEFBE6" style="text;whiteSpace=wrap;html=1;fillColor=#DEFBE6;align=center;fontStyle=1;fontSize=13;fontFamily=IBM Plex Sans;" parent="s87YEGLy_1aI-YGkXKWT-1" vertex="1">
          <mxGeometry x="-2280" y="1350" width="200" height="26" as="geometry" />
        </mxCell>
        <mxCell id="Jw35tbAulJViPN4Jd-NV-3" value="" style="endArrow=none;html=1;fontSize=13;fontColor=#4376BB;strokeWidth=3;endFill=0;strokeColor=#198038;startArrow=none;startFill=0;fontFamily=IBM Plex Sans;" parent="s87YEGLy_1aI-YGkXKWT-1" edge="1">
          <mxGeometry width="50" height="50" relative="1" as="geometry">
            <mxPoint x="-2280" y="1430" as="sourcePoint" />
            <mxPoint x="-2080" y="1430" as="targetPoint" />
          </mxGeometry>
        </mxCell>
        <mxCell id="Jw35tbAulJViPN4Jd-NV-5" value="&lt;font color=&quot;#198038&quot; style=&quot;font-size: 13px;&quot;&gt;COLOR CODE&amp;nbsp;198038&lt;/font&gt;" style="edgeLabel;html=1;align=center;verticalAlign=middle;resizable=0;points=[];fontStyle=1;fontSize=13;fontFamily=IBM Plex Sans;" parent="Jw35tbAulJViPN4Jd-NV-3" vertex="1" connectable="0">
          <mxGeometry x="-0.7076" y="-1" relative="1" as="geometry">
            <mxPoint x="65" as="offset" />
          </mxGeometry>
        </mxCell>
        <mxCell id="Jw35tbAulJViPN4Jd-NV-7" value="" style="endArrow=none;html=1;fontSize=13;fontColor=#4376BB;strokeWidth=3;endFill=0;strokeColor=#4376BB;startArrow=none;startFill=0;fontFamily=IBM Plex Sans;" parent="s87YEGLy_1aI-YGkXKWT-1" edge="1">
          <mxGeometry width="50" height="50" relative="1" as="geometry">
            <mxPoint x="-2280" y="1460" as="sourcePoint" />
            <mxPoint x="-2080" y="1460" as="targetPoint" />
          </mxGeometry>
        </mxCell>
        <mxCell id="Jw35tbAulJViPN4Jd-NV-8" value="&lt;font color=&quot;#4376bb&quot; style=&quot;font-size: 13px;&quot;&gt;COLOR CODE&amp;nbsp;4376BB&lt;/font&gt;" style="edgeLabel;html=1;align=center;verticalAlign=middle;resizable=0;points=[];fontStyle=1;fontSize=13;fontFamily=IBM Plex Sans;" parent="Jw35tbAulJViPN4Jd-NV-7" vertex="1" connectable="0">
          <mxGeometry x="-0.7076" y="-1" relative="1" as="geometry">
            <mxPoint x="65" as="offset" />
          </mxGeometry>
        </mxCell>
        <mxCell id="Jw35tbAulJViPN4Jd-NV-9" value="" style="endArrow=none;html=1;fontSize=13;fontColor=#4376BB;strokeWidth=3;endFill=0;strokeColor=#000000;startArrow=none;startFill=0;fontFamily=IBM Plex Sans;" parent="s87YEGLy_1aI-YGkXKWT-1" edge="1">
          <mxGeometry width="50" height="50" relative="1" as="geometry">
            <mxPoint x="-2280" y="1400" as="sourcePoint" />
            <mxPoint x="-2080" y="1400" as="targetPoint" />
          </mxGeometry>
        </mxCell>
        <mxCell id="Jw35tbAulJViPN4Jd-NV-10" value="&lt;font style=&quot;font-size: 13px;&quot;&gt;COLOR CODE&amp;nbsp;000000&lt;/font&gt;" style="edgeLabel;html=1;align=center;verticalAlign=middle;resizable=0;points=[];fontStyle=1;fontSize=13;fontFamily=IBM Plex Sans;" parent="Jw35tbAulJViPN4Jd-NV-9" vertex="1" connectable="0">
          <mxGeometry x="-0.7076" y="-1" relative="1" as="geometry">
            <mxPoint x="65" as="offset" />
          </mxGeometry>
        </mxCell>
        <mxCell id="N_hDyp240Hf2RHVJn-7q-1" value="" style="shape=curlyBracket;whiteSpace=wrap;html=1;rounded=1;fontFamily=IBM Plex Sans;" vertex="1" parent="s87YEGLy_1aI-YGkXKWT-1">
          <mxGeometry x="-1870" y="1160" width="20" height="70" as="geometry" />
        </mxCell>
        <mxCell id="N_hDyp240Hf2RHVJn-7q-2" value="" style="endArrow=oval;html=1;fontSize=16;fontColor=#4376BB;strokeWidth=2;endFill=1;startArrow=oval;startFill=1;fontFamily=IBM Plex Sans;" edge="1" parent="s87YEGLy_1aI-YGkXKWT-1">
          <mxGeometry width="50" height="50" relative="1" as="geometry">
            <mxPoint x="-1820" y="1194.5" as="sourcePoint" />
            <mxPoint x="-1620" y="1194.5" as="targetPoint" />
          </mxGeometry>
        </mxCell>
        <mxCell id="N_hDyp240Hf2RHVJn-7q-4" value="&lt;b&gt;.1&lt;/b&gt;" style="text;html=1;align=center;verticalAlign=middle;resizable=0;points=[];autosize=1;strokeColor=none;fillColor=none;" vertex="1" parent="s87YEGLy_1aI-YGkXKWT-1">
          <mxGeometry x="-1825" y="1168" width="30" height="30" as="geometry" />
        </mxCell>
        <mxCell id="N_hDyp240Hf2RHVJn-7q-5" value="&lt;b&gt;.2&lt;/b&gt;" style="text;html=1;align=center;verticalAlign=middle;resizable=0;points=[];autosize=1;strokeColor=none;fillColor=none;" vertex="1" parent="s87YEGLy_1aI-YGkXKWT-1">
          <mxGeometry x="-1660" y="1168" width="30" height="30" as="geometry" />
        </mxCell>
        <mxCell id="N_hDyp240Hf2RHVJn-7q-9" value="Annotation to include&amp;nbsp;&lt;div&gt;IP address&lt;div&gt;&amp;nbsp;used from subnet&lt;/div&gt;&lt;/div&gt;" style="text;html=1;resizable=0;autosize=1;align=center;verticalAlign=middle;points=[];fillColor=none;strokeColor=none;rounded=0;fontFamily=IBM Plex Sans;overflow=width;" vertex="1" parent="s87YEGLy_1aI-YGkXKWT-1">
          <mxGeometry x="-2025" y="1165" width="140" height="60" as="geometry" />
        </mxCell>
        <mxCell id="N_hDyp240Hf2RHVJn-7q-10" value="" style="endArrow=block;html=1;fontSize=16;fontColor=#4376BB;strokeWidth=2;endFill=1;startArrow=block;startFill=1;fontFamily=IBM Plex Sans;" edge="1" parent="s87YEGLy_1aI-YGkXKWT-1">
          <mxGeometry width="50" height="50" relative="1" as="geometry">
            <mxPoint x="-1540" y="1194.5" as="sourcePoint" />
            <mxPoint x="-1340" y="1194.5" as="targetPoint" />
          </mxGeometry>
        </mxCell>
        <mxCell id="N_hDyp240Hf2RHVJn-7q-11" value="&lt;b&gt;.1&lt;/b&gt;" style="text;html=1;align=center;verticalAlign=middle;resizable=0;points=[];autosize=1;strokeColor=none;fillColor=none;" vertex="1" parent="s87YEGLy_1aI-YGkXKWT-1">
          <mxGeometry x="-1535" y="1168" width="30" height="30" as="geometry" />
        </mxCell>
        <mxCell id="N_hDyp240Hf2RHVJn-7q-12" value="&lt;b&gt;.2&lt;/b&gt;" style="text;html=1;align=center;verticalAlign=middle;resizable=0;points=[];autosize=1;strokeColor=none;fillColor=none;" vertex="1" parent="s87YEGLy_1aI-YGkXKWT-1">
          <mxGeometry x="-1380" y="1168" width="30" height="30" as="geometry" />
        </mxCell>
        <mxCell id="N_hDyp240Hf2RHVJn-7q-13" value="" style="endArrow=block;html=1;fontSize=16;fontColor=#4376BB;strokeWidth=2;endFill=1;startArrow=oval;startFill=1;fontFamily=IBM Plex Sans;" edge="1" parent="s87YEGLy_1aI-YGkXKWT-1">
          <mxGeometry width="50" height="50" relative="1" as="geometry">
            <mxPoint x="-1230" y="1194.5" as="sourcePoint" />
            <mxPoint x="-1030" y="1194.5" as="targetPoint" />
          </mxGeometry>
        </mxCell>
        <mxCell id="N_hDyp240Hf2RHVJn-7q-14" value="&lt;b&gt;.1&lt;/b&gt;" style="text;html=1;align=center;verticalAlign=middle;resizable=0;points=[];autosize=1;strokeColor=none;fillColor=none;" vertex="1" parent="s87YEGLy_1aI-YGkXKWT-1">
          <mxGeometry x="-1225" y="1168" width="30" height="30" as="geometry" />
        </mxCell>
        <mxCell id="N_hDyp240Hf2RHVJn-7q-15" value="&lt;b&gt;.2&lt;/b&gt;" style="text;html=1;align=center;verticalAlign=middle;resizable=0;points=[];autosize=1;strokeColor=none;fillColor=none;" vertex="1" parent="s87YEGLy_1aI-YGkXKWT-1">
          <mxGeometry x="-1070" y="1168" width="30" height="30" as="geometry" />
        </mxCell>
        <mxCell id="N_hDyp240Hf2RHVJn-7q-16" value="&lt;div&gt;&lt;font style=&quot;font-size: 24px;&quot;&gt;Important!&lt;/font&gt;&lt;/div&gt;&lt;font style=&quot;font-size: 17px;&quot;&gt;To check/set style in connectors, do the following&lt;/font&gt;&lt;div style=&quot;font-size: 17px;&quot;&gt;&lt;ol&gt;&lt;li&gt;&lt;font style=&quot;font-size: 17px;&quot;&gt;Click it&lt;/font&gt;&lt;/li&gt;&lt;li&gt;&lt;font style=&quot;font-size: 17px;&quot;&gt;While selected, right-click it and select &quot;Edit Style&quot;&lt;/font&gt;&lt;/li&gt;&lt;li&gt;&lt;font style=&quot;font-size: 17px;&quot;&gt;See/Update the desired settings. Example, for updating start arrow type or end arrow type, set &lt;b&gt;startArrow&lt;/b&gt;&amp;nbsp;or &lt;b&gt;endArrow&lt;/b&gt;&amp;nbsp;to &quot;&lt;b&gt;&lt;i&gt;oval&quot;&lt;/i&gt;&lt;/b&gt; or &quot;&lt;b&gt;&lt;i&gt;block&quot;&lt;/i&gt;&lt;/b&gt; according to the below table of options&lt;/font&gt;&lt;/li&gt;&lt;/ol&gt;&lt;/div&gt;" style="text;html=1;align=left;verticalAlign=middle;whiteSpace=wrap;rounded=0;" vertex="1" parent="s87YEGLy_1aI-YGkXKWT-1">
          <mxGeometry x="-1550" y="50" width="330" height="230" as="geometry" />
        </mxCell>
        <mxCell id="N_hDyp240Hf2RHVJn-7q-17" value="Standard use &quot;&lt;span style=&quot;font-size: 17px;&quot;&gt;&lt;i style=&quot;font-weight: bold; font-size: 17px;&quot;&gt;Open&quot;&amp;nbsp;&lt;/i&gt;&lt;span style=&quot;font-size: 17px;&quot;&gt;style on either&lt;/span&gt;&lt;i style=&quot;font-weight: bold; font-size: 17px;&quot;&gt;&amp;nbsp;startArrow &lt;/i&gt;&lt;span style=&quot;font-size: 17px;&quot;&gt;or&lt;/span&gt;&lt;i style=&quot;font-weight: bold; font-size: 17px;&quot;&gt; endArrow, &lt;/i&gt;&lt;span style=&quot;font-size: 17px;&quot;&gt;depending on direction&lt;/span&gt;&lt;/span&gt;" style="text;html=1;align=center;verticalAlign=middle;whiteSpace=wrap;rounded=0;fontSize=17;" vertex="1" parent="s87YEGLy_1aI-YGkXKWT-1">
          <mxGeometry x="-850" y="470" width="170" height="30" as="geometry" />
        </mxCell>
        <mxCell id="N_hDyp240Hf2RHVJn-7q-18" value="Extended/Advanced use it according to Style Column" style="text;html=1;align=center;verticalAlign=middle;whiteSpace=wrap;rounded=0;fontSize=17;" vertex="1" parent="s87YEGLy_1aI-YGkXKWT-1">
          <mxGeometry x="-650" y="470" width="170" height="30" as="geometry" />
        </mxCell>
        <mxCell id="N_hDyp240Hf2RHVJn-7q-19" value="&lt;font color=&quot;#000000&quot;&gt;Style&lt;/font&gt;" style="text;html=1;strokeColor=none;fillColor=none;align=center;verticalAlign=middle;whiteSpace=wrap;rounded=0;fontSize=16;fontColor=#4376BB;fontStyle=1;fontFamily=IBM Plex Sans;" vertex="1" parent="s87YEGLy_1aI-YGkXKWT-1">
          <mxGeometry x="-520" y="605" width="240" height="20" as="geometry" />
        </mxCell>
        <mxCell id="N_hDyp240Hf2RHVJn-7q-20" value="&amp;nbsp;startArrow=diamondThin;&lt;div style=&quot;font-size: 11px;&quot;&gt;startFill=0 &amp;amp;&amp;nbsp;&lt;div style=&quot;font-size: 11px;&quot;&gt;endArrow=open&lt;/div&gt;&lt;/div&gt;" style="text;html=1;align=center;verticalAlign=middle;resizable=0;points=[];autosize=1;strokeColor=none;fillColor=none;fontStyle=1;fontSize=11;" vertex="1" parent="s87YEGLy_1aI-YGkXKWT-1">
          <mxGeometry x="-465" y="704" width="150" height="50" as="geometry" />
        </mxCell>
        <mxCell id="N_hDyp240Hf2RHVJn-7q-21" value="&amp;nbsp;startArrow=diamondThin;&lt;div style=&quot;font-size: 11px;&quot;&gt;startFill=1 &amp;amp;&amp;nbsp;&lt;div style=&quot;font-size: 11px;&quot;&gt;endArrow=open&lt;/div&gt;&lt;/div&gt;" style="text;html=1;align=center;verticalAlign=middle;resizable=0;points=[];autosize=1;strokeColor=none;fillColor=none;fontStyle=1;fontSize=11;" vertex="1" parent="s87YEGLy_1aI-YGkXKWT-1">
          <mxGeometry x="-465" y="747" width="150" height="50" as="geometry" />
        </mxCell>
        <mxCell id="N_hDyp240Hf2RHVJn-7q-22" value="&lt;b&gt;endArrow=block&lt;/b&gt;" style="text;whiteSpace=wrap;html=1;" vertex="1" parent="s87YEGLy_1aI-YGkXKWT-1">
          <mxGeometry x="-450" y="794" width="120" height="40" as="geometry" />
        </mxCell>
        <mxCell id="N_hDyp240Hf2RHVJn-7q-23" value="&lt;b&gt;endArrow=block&lt;/b&gt;" style="text;whiteSpace=wrap;html=1;" vertex="1" parent="s87YEGLy_1aI-YGkXKWT-1">
          <mxGeometry x="-450" y="837" width="120" height="40" as="geometry" />
        </mxCell>
        <mxCell id="N_hDyp240Hf2RHVJn-7q-24" value="none" style="text;html=1;align=center;verticalAlign=middle;resizable=0;points=[];autosize=1;strokeColor=none;fillColor=none;" vertex="1" parent="s87YEGLy_1aI-YGkXKWT-1">
          <mxGeometry x="-415" y="884" width="50" height="30" as="geometry" />
        </mxCell>
      </root>
    </mxGraphModel>
  </diagram>
  <diagram id="HH5frmJnsOb0gq1QN5fr" name="VPC Connectivity Example">
    <mxGraphModel dx="-266" dy="800" grid="1" gridSize="10" guides="1" tooltips="1" connect="1" arrows="1" fold="1" page="1" pageScale="1" pageWidth="850" pageHeight="1100" math="0" shadow="0">
      <root>
        <mxCell id="6EkFWpLrjTElACthLAa1-0" />
        <mxCell id="QZE-Ln5UqDATM9vkWpZj-2" value="IC" parent="6EkFWpLrjTElACthLAa1-0" />
        <object label="" release="v2.0.3" generation="2.0" id="HigGXVXa3_k5PrCU9umI-0">
          <mxCell style="rounded=0;whiteSpace=wrap;html=1;fontFamily=IBM Plex Sans;fontSize=14;spacingBottom=-28;spacingTop=0;labelPosition=-100;verticalLabelPosition=top;align=center;verticalAlign=bottom;spacingLeft=9;spacing=0;expand=0;recursiveResize=0;spacingRight=0;container=1;collapsible=0;strokeColor=#1192E8;fillColor=default;" parent="QZE-Ln5UqDATM9vkWpZj-2" vertex="1">
            <mxGeometry x="1876" y="230" width="410" height="620" as="geometry">
              <mxRectangle width="670" as="alternateBounds" />
            </mxGeometry>
          </mxCell>
        </object>
        <mxCell id="HigGXVXa3_k5PrCU9umI-1" value="" style="rounded=0;whiteSpace=wrap;html=1;strokeColor=#1192E8;fillColor=#1192E8;fontFamily=IBM Plex Sans;" parent="HigGXVXa3_k5PrCU9umI-0" vertex="1">
          <mxGeometry width="4" height="48" as="geometry" />
        </mxCell>
        <mxCell id="HigGXVXa3_k5PrCU9umI-2" value="IBM Cloud" style="text;html=1;strokeColor=none;fillColor=none;align=left;verticalAlign=middle;whiteSpace=wrap;rounded=0;fontFamily=IBM Plex Sans;fontSize=14;" parent="HigGXVXa3_k5PrCU9umI-0" vertex="1">
          <mxGeometry x="51" y="8" width="163" height="20" as="geometry" />
        </mxCell>
        <mxCell id="HigGXVXa3_k5PrCU9umI-3" value="" style="shape=image;image=data:image/svg+xml,PD94bWwgdmVyc2lvbj0iMS4wIiBlbmNvZGluZz0iVVRGLTgiPz4KPHN2ZyB3aWR0aD0iMzNweCIgaGVpZ2h0PSIzMXB4IiB2aWV3Qm94PSIwIDAgMzMgMzEiIHZlcnNpb249IjEuMSIgeG1sbnM9Imh0dHA6Ly93d3cudzMub3JnLzIwMDAvc3ZnIiB4bWxuczp4bGluaz0iaHR0cDovL3d3dy53My5vcmcvMTk5OS94bGluayI+CiAgICA8IS0tIEdlbmVyYXRvcjogU2tldGNoIDUzICg3MjUyMCkgLSBodHRwczovL3NrZXRjaGFwcC5jb20gLS0+CiAgICA8dGl0bGU+SUJNIENsb3VkIEJsYWNrPC90aXRsZT4KICAgIDxkZXNjPkNyZWF0ZWQgd2l0aCBTa2V0Y2guPC9kZXNjPgogICAgPGcgaWQ9IlBhZ2UtMSIgc3Ryb2tlPSJub25lIiBzdHJva2Utd2lkdGg9IjEiIGZpbGw9Im5vbmUiIGZpbGwtcnVsZT0iZXZlbm9kZCI+CiAgICAgICAgPGcgaWQ9IklCTS1DbG91ZC1CbGFjayIgdHJhbnNmb3JtPSJ0cmFuc2xhdGUoMC43ODQ3MjIsIDAuNTAwMTI1KSIgZmlsbD0iIzAwMDAwMCI+CiAgICAgICAgICAgIDxwYXRoIGQ9Ik0yNy4xMDIxLDI3LjAxMDYgQzI1Ljg3MDEsMjcuODc5NiAyNC4zNjExLDI4LjI2NzYgMjIuODUzMSwyOC4yNjc2IEw3LjAwNDEsMjguMjY3NiBDNC4xMTIxLDI4LjI3NDYgMS43NjIxLDI1LjkzNDYgMS43NTUxLDIzLjA0MjYgQzEuNzQ5MSwyMC40MTA2IDMuNjk3MSwxOC4xODM2IDYuMzA1MSwxNy44Mzg2IEM2LjQxMTEsMTkuMTYxNiA2Ljc4NzEsMjAuNDQ5NiA3LjQwOTEsMjEuNjIxNiBDNy41OTUxLDIxLjk5MTYgOC4wNDYxLDIyLjE0MDYgOC40MTYxLDIxLjk1NDYgQzguNzg2MSwyMS43Njc2IDguOTM1MSwyMS4zMTc2IDguNzQ4MSwyMC45NDc2IEw4LjczMDEsMjAuOTEyNiBDNy4xMzIxLDE3LjkzNTYgNy40MjkxLDE0LjIxNzYgOS42NzIxLDExLjY4OTYgQzEzLjQ4NjEsNy4zOTI2IDE5Ljc4NzEsOC4wNTI2IDIyLjc1NzEsMTIuMjgxNiBDMjAuMzM0MSwxMi4zNDc2IDE4LjA0NzEsMTMuNDE1NiAxNi40NDExLDE1LjIzMDYgQzE2LjE2MTEsMTUuNTM1NiAxNi4xODExLDE2LjAxMDYgMTYuNDg1MSwxNi4yOTA2IEMxNi43ODkxLDE2LjU3MTYgMTcuMjY0MSwxNi41NTI2IDE3LjU0NTEsMTYuMjQ3NiBMMTcuNTY2MSwxNi4yMjI2IEMxOS41OTUxLDEzLjkyMzYgMjIuODg0MSwxMy4wNTI2IDI1LjcwMzEsMTQuMjYzNiBDMzEuMTY1MSwxNi42MDk2IDMxLjgxMDEsMjMuNjkyNiAyNy4xMDIxLDI3LjAxMDYgTTI0LjU4NTEsMTIuOTE3NiBDMjIuMDU0MSw4LjE3NTYgMTYuMTU5MSw2LjM4MjYgMTEuNDE2MSw4LjkxMzYgQzguNDY1MSwxMC40ODg2IDYuNTI5MSwxMy40Njg2IDYuMjkwMSwxNi44MDY2IEMyLjU4NDEsMTcuMjA0NiAtMC4wOTc5LDIwLjUzMjYgMC4zMDExLDI0LjIzOTYgQzAuNjY5MSwyNy42NjU2IDMuNTU5MSwzMC4yNjM2IDcuMDA0MSwzMC4yNjc2IEwyMy4wMDQxLDMwLjI2NzYgQzI3LjgzNTEsMzAuMjcwNiAzMS43NTMxLDI2LjM1NzYgMzEuNzU2MSwyMS41MjY2IEMzMS43NTkxLDE3LjMwMTYgMjguNzQxMSwxMy42Nzg2IDI0LjU4NTEsMTIuOTE3NiIgaWQ9IkZpbGwtMSI+PC9wYXRoPgogICAgICAgICAgICA8ZyBpZD0iR3JvdXAtNSIgdHJhbnNmb3JtPSJ0cmFuc2xhdGUoMjcuMDAwMDAwLCA4LjI2NzcwMCkiPgogICAgICAgICAgICAgICAgPHBhdGggZD0iTTQuOTAyOCwwLjkxOTcgQzQuNjkzOCwwLjU1NjcgNC4yMjk4LDAuNDMyNyAzLjg2NjgsMC42NDE3IEMzLjg2NjgsMC42NDE3IDMuODY2OCwwLjY0MTcgMy44NjY4LDAuNjQyNyBMMC44NDY4LDIuMzg1NyBDMC40Nzg4LDIuNTg2NyAwLjM0MzgsMy4wNDc3IDAuNTQ0OCwzLjQxNTcgQzAuNzQ1OCwzLjc4MzcgMS4yMDY4LDMuOTE4NyAxLjU3NDgsMy43MTc3IEMxLjU4NDgsMy43MTE3IDEuNTk0OCwzLjcwNTcgMS42MDQ4LDMuNjk5NyBMNC42MjQ4LDEuOTU2NyBDNC45ODc4LDEuNzQ2NyA1LjExMTgsMS4yODI3IDQuOTAyOCwwLjkxOTciIGlkPSJGaWxsLTMiPjwvcGF0aD4KICAgICAgICAgICAgPC9nPgogICAgICAgICAgICA8cGF0aCBkPSJNMjIuNjgxMiw2LjgwMjYgQzIzLjA0MzIsNy4wMTI2IDIzLjUwNzIsNi44ODg2IDIzLjcxNzIsNi41MjU2IEwyMy43MTcyLDYuNTI1NiBMMjUuNDYxMiwzLjUwNTYgQzI1LjY2ODIsMy4xNDA2IDI1LjU0MDIsMi42Nzc2IDI1LjE3NjIsMi40NzA2IEMyNC44MTUyLDIuMjY2NiAyNC4zNTcyLDIuMzg4NiAyNC4xNDcyLDIuNzQ2NiBMMjIuNDAzMiw1Ljc2NjYgQzIyLjE5NDIsNi4xMjk2IDIyLjMxODIsNi41OTM2IDIyLjY4MTIsNi44MDI2IiBpZD0iRmlsbC02Ij48L3BhdGg+CiAgICAgICAgICAgIDxwYXRoIGQ9Ik0xNi4wMDQ0LDUuMDE0MSBDMTYuNDIzNCw1LjAxNDEgMTYuNzYzNCw0LjY3NDEgMTcuMzM1NCw0LjI1NTEgTDE3LjMzNTQsMC43NjcxIEMxNi43Njg0LDAuMzQ4MSAxNi40MzI0LDAuMDA1MSAxNi4wMTM0LDAuMDAwMSBDMTUuNTk0NCwtMC4wMDQ5IDE1LjI1MTQsMC4zMzExIDE1LjMzNTQsMC43NTAxIEwxNS4zMzU0LDAuNzY3MSBMMTUuMzM1NCw0LjI1NTEgQzE1LjI0NjQsNC42NzQxIDE1LjU4NTQsNS4wMTQxIDE2LjAwNDQsNS4wMTQxIiBpZD0iRmlsbC04Ij48L3BhdGg+CiAgICAgICAgICAgIDxwYXRoIGQ9Ik04LjI5Miw2LjUyNDggQzguNTA0LDYuODg1OCA4Ljk2OSw3LjAwNjggOS4zMzEsNi43OTQ4IEM5LjY4OCw2LjU4NDggOS44MTEsNi4xMjY4IDkuNjA2LDUuNzY1OCBMNy44NjIsMi43NDU4IEM3LjY1NSwyLjM4MTggNy4xOTIsMi4yNTM4IDYuODI4LDIuNDYwOCBDNi40NjMsMi42Njc4IDYuMzM1LDMuMTMwOCA2LjU0MiwzLjQ5NDggQzYuNTQ0LDMuNDk4OCA2LjU0NiwzLjUwMTggNi41NDgsMy41MDQ4IEw4LjI5Miw2LjUyNDggWiIgaWQ9IkZpbGwtMTAiPjwvcGF0aD4KICAgICAgICAgICAgPGcgaWQ9Ikdyb3VwLTE0IiB0cmFuc2Zvcm09InRyYW5zbGF0ZSgwLjAwMDAwMCwgOC4yNjc3MDApIj4KICAgICAgICAgICAgICAgIDxwYXRoIGQ9Ik00LjE2MzEsMi4zODYgTDEuMTQzMSwwLjY0MiBDMC43ODIxLDAuNDMgMC4zMTcxLDAuNTUxIDAuMTA0MSwwLjkxMiBDLTAuMTA3OSwxLjI3MyAwLjAxMzEsMS43MzkgMC4zNzQxLDEuOTUgQzAuMzc4MSwxLjk1MiAwLjM4MTEsMS45NTQgMC4zODQxLDEuOTU2IEwzLjQwNTEsMy43IEMzLjc2NjEsMy45MTIgNC4yMzExLDMuNzkxIDQuNDQzMSwzLjQzIEM0LjY1NTEsMy4wNjkgNC41MzUxLDIuNjA0IDQuMTczMSwyLjM5MiBDNC4xNzAxLDIuMzkgNC4xNjYxLDIuMzg4IDQuMTYzMSwyLjM4NiBaIiBpZD0iRmlsbC0xMiI+PC9wYXRoPgogICAgICAgICAgICA8L2c+CiAgICAgICAgPC9nPgogICAgPC9nPgo8L3N2Zz4=;fontFamily=IBM Plex Sans;" parent="HigGXVXa3_k5PrCU9umI-0" vertex="1">
          <mxGeometry x="15" y="7" width="24" height="24" as="geometry" />
        </mxCell>
        <mxCell id="QZE-Ln5UqDATM9vkWpZj-1" value="Region" parent="6EkFWpLrjTElACthLAa1-0" />
        <object label="" release="v2.0.3" generation="2.0" id="HigGXVXa3_k5PrCU9umI-4">
          <mxCell style="rounded=0;whiteSpace=wrap;html=1;fontFamily=IBM Plex Sans;fontSize=14;spacingBottom=-28;spacingTop=0;labelPosition=-100;verticalLabelPosition=top;align=center;verticalAlign=bottom;spacingLeft=9;spacing=0;expand=0;recursiveResize=0;spacingRight=0;container=1;collapsible=0;strokeColor=#878d96;fillColor=#F2F4F8;" parent="QZE-Ln5UqDATM9vkWpZj-1" vertex="1">
            <mxGeometry x="1886" y="280" width="390" height="560" as="geometry">
              <mxRectangle width="670" as="alternateBounds" />
            </mxGeometry>
          </mxCell>
        </object>
        <mxCell id="HigGXVXa3_k5PrCU9umI-5" value="" style="rounded=0;whiteSpace=wrap;html=1;strokeColor=#878d96;fillColor=#878d96;" parent="HigGXVXa3_k5PrCU9umI-4" vertex="1">
          <mxGeometry width="4" height="48" as="geometry" />
        </mxCell>
        <mxCell id="HigGXVXa3_k5PrCU9umI-6" value="Region" style="text;html=1;strokeColor=none;fillColor=none;align=left;verticalAlign=middle;whiteSpace=wrap;rounded=0;fontFamily=IBM Plex Sans;fontSize=14;" parent="HigGXVXa3_k5PrCU9umI-4" vertex="1">
          <mxGeometry x="51" y="8" width="168" height="20" as="geometry" />
        </mxCell>
        <mxCell id="HigGXVXa3_k5PrCU9umI-7" style="edgeStyle=orthogonalEdgeStyle;rounded=0;orthogonalLoop=1;jettySize=auto;html=1;exitX=0;exitY=0.5;exitDx=0;exitDy=0;entryX=1.009;entryY=0.22;entryDx=0;entryDy=0;entryPerimeter=0;fontFamily=IBM Plex Sans;fontSize=14;startArrow=oval;startFill=1;strokeColor=#198038;" parent="HigGXVXa3_k5PrCU9umI-4" edge="1">
          <mxGeometry relative="1" as="geometry" />
        </mxCell>
        <mxCell id="HigGXVXa3_k5PrCU9umI-8" value="" style="shape=image;image=data:image/svg+xml,PD94bWwgdmVyc2lvbj0iMS4wIiBlbmNvZGluZz0iVVRGLTgiPz4KPHN2ZyB3aWR0aD0iMjNweCIgaGVpZ2h0PSIyOHB4IiB2aWV3Qm94PSIwIDAgMjMgMjgiIHZlcnNpb249IjEuMSIgeG1sbnM9Imh0dHA6Ly93d3cudzMub3JnLzIwMDAvc3ZnIiB4bWxuczp4bGluaz0iaHR0cDovL3d3dy53My5vcmcvMTk5OS94bGluayI+CiAgICA8IS0tIEdlbmVyYXRvcjogU2tldGNoIDUzICg3MjUyMCkgLSBodHRwczovL3NrZXRjaGFwcC5jb20gLS0+CiAgICA8dGl0bGU+UmVnaW9uIEJsYWNrPC90aXRsZT4KICAgIDxkZXNjPkNyZWF0ZWQgd2l0aCBTa2V0Y2guPC9kZXNjPgogICAgPGcgaWQ9IlBhZ2UtMSIgc3Ryb2tlPSJub25lIiBzdHJva2Utd2lkdGg9IjEiIGZpbGw9Im5vbmUiIGZpbGwtcnVsZT0iZXZlbm9kZCI+CiAgICAgICAgPGcgaWQ9IlJlZ2lvbi1CbGFjayIgdHJhbnNmb3JtPSJ0cmFuc2xhdGUoMC4xMjUwMDAsIDAuMDAwMDAwKSIgZmlsbD0iIzAwMDAwMCI+CiAgICAgICAgICAgIDxwYXRoIGQ9Ik0xMS4wMDAyLDggQzkuMzQzMiw4IDguMDAwMiw5LjM0MyA4LjAwMDIsMTEgQzguMDAwMiwxMi42NTcgOS4zNDMyLDE0IDExLjAwMDIsMTQgQzEyLjY1NzIsMTQgMTQuMDAwMiwxMi42NTcgMTQuMDAwMiwxMSBDMTMuOTk4Miw5LjM0NCAxMi42NTYyLDguMDAyIDExLjAwMDIsOCBNMTEuMDAwMiwxNiBDOC4yMzgyLDE2IDYuMDAwMiwxMy43NjEgNi4wMDAyLDExIEM2LjAwMDIsOC4yMzkgOC4yMzgyLDYgMTEuMDAwMiw2IEMxMy43NjEyLDYgMTYuMDAwMiw4LjIzOSAxNi4wMDAyLDExIEMxNS45OTcyLDEzLjc2IDEzLjc2MDIsMTUuOTk3IDExLjAwMDIsMTYiIGlkPSJGaWxsLTEiPjwvcGF0aD4KICAgICAgICAgICAgPGcgaWQ9Ikdyb3VwLTUiPgogICAgICAgICAgICAgICAgPHBhdGggZD0iTTMuODEyNywxNi4zOTUgQzMuODEzNywxNi4zOTUgNC4wNDU3LDE2LjcwMyA0LjA5ODcsMTYuNzcgTDEwLjk5OTcsMjQuOTA4IEwxNy45MTA3LDE2Ljc1OCBDMTcuOTU0NywxNi43MDMgMTguMTg4NywxNi4zOTMgMTguMTg4NywxNi4zOTIgQzE5LjM2NjcsMTQuODQxIDIwLjAwMTcsMTIuOTQ3IDE5Ljk5OTcsMTEgQzE5Ljk5OTcsNi4wMjkgMTUuOTcwNywyIDEwLjk5OTcsMiBDNi4wMjk3LDIgMi4wMDA3LDYuMDI5IDIuMDAwNywxMSBDMS45OTc3LDEyLjk0OCAyLjYzNDcsMTQuODQzIDMuODEyNywxNi4zOTUgTDMuODEyNywxNi4zOTUgWiBNMTAuOTk5NywyOCBMMi41NjQ3LDE4LjA1MSBDMi41MTY3LDE3Ljk5NCAyLjIxNjcsMTcuNiAyLjIxNjcsMTcuNiBDMC43NzQ3LDE1LjcwMiAtMC4wMDMzLDEzLjM4MyAtMC4wMDAzLDExIEMtMC4wMDAzLDQuOTI1IDQuOTI0NywwIDEwLjk5OTcsMCBDMTcuMDc1NywwIDIxLjk5OTcsNC45MjUgMjEuOTk5NywxMSBDMjIuMDAyNywxMy4zODIgMjEuMjI1NywxNS43IDE5Ljc4NTcsMTcuNTk3IEwxOS43ODM3LDE3LjYgQzE5Ljc4MzcsMTcuNiAxOS40ODM3LDE3Ljk5NCAxOS40Mzg3LDE4LjA0NyBMMTAuOTk5NywyOCBaIiBpZD0iRmlsbC0zIj48L3BhdGg+CiAgICAgICAgICAgIDwvZz4KICAgICAgICA8L2c+CiAgICA8L2c+Cjwvc3ZnPg==;" parent="HigGXVXa3_k5PrCU9umI-4" vertex="1">
          <mxGeometry x="19.66" y="8" width="24" height="24" as="geometry" />
        </mxCell>
        <mxCell id="QZE-Ln5UqDATM9vkWpZj-0" value="VPC" parent="6EkFWpLrjTElACthLAa1-0" />
        <object label="" release="v2.0.3" generation="2.0" id="HigGXVXa3_k5PrCU9umI-9">
          <mxCell style="rounded=0;whiteSpace=wrap;html=1;fontFamily=IBM Plex Sans;fontSize=14;spacingBottom=-28;spacingTop=0;labelPosition=-100;verticalLabelPosition=top;align=center;verticalAlign=bottom;spacingLeft=9;spacing=0;expand=0;recursiveResize=0;spacingRight=0;container=1;collapsible=0;strokeColor=#1192E8;fillColor=default;" parent="QZE-Ln5UqDATM9vkWpZj-0" vertex="1">
            <mxGeometry x="1896" y="320" width="370" height="510" as="geometry">
              <mxRectangle width="670" as="alternateBounds" />
            </mxGeometry>
          </mxCell>
        </object>
        <mxCell id="HigGXVXa3_k5PrCU9umI-10" value="" style="rounded=0;whiteSpace=wrap;html=1;strokeColor=#1192E8;fillColor=#1192E8;" parent="HigGXVXa3_k5PrCU9umI-9" vertex="1">
          <mxGeometry width="4" height="48" as="geometry" />
        </mxCell>
        <mxCell id="HigGXVXa3_k5PrCU9umI-11" value="VPC" style="text;html=1;strokeColor=none;fillColor=none;align=left;verticalAlign=middle;whiteSpace=wrap;rounded=0;fontFamily=IBM Plex Sans;fontSize=14;" parent="HigGXVXa3_k5PrCU9umI-9" vertex="1">
          <mxGeometry x="51" y="8" width="163" height="20" as="geometry" />
        </mxCell>
        <mxCell id="HigGXVXa3_k5PrCU9umI-12" value="" style="shape=image;image=data:image/svg+xml,PD94bWwgdmVyc2lvbj0iMS4wIiBlbmNvZGluZz0iVVRGLTgiPz4KPHN2ZyB3aWR0aD0iMjlweCIgaGVpZ2h0PSIyOHB4IiB2aWV3Qm94PSIwIDAgMjkgMjgiIHZlcnNpb249IjEuMSIgeG1sbnM9Imh0dHA6Ly93d3cudzMub3JnLzIwMDAvc3ZnIiB4bWxuczp4bGluaz0iaHR0cDovL3d3dy53My5vcmcvMTk5OS94bGluayI+CiAgICA8IS0tIEdlbmVyYXRvcjogU2tldGNoIDUzICg3MjUyMCkgLSBodHRwczovL3NrZXRjaGFwcC5jb20gLS0+CiAgICA8dGl0bGU+SUJNIFZQQyBCbGFjazwvdGl0bGU+CiAgICA8ZGVzYz5DcmVhdGVkIHdpdGggU2tldGNoLjwvZGVzYz4KICAgIDxnIGlkPSJQYWdlLTEiIHN0cm9rZT0ibm9uZSIgc3Ryb2tlLXdpZHRoPSIxIiBmaWxsPSJub25lIiBmaWxsLXJ1bGU9ImV2ZW5vZGQiPgogICAgICAgIDxnIGlkPSJJQk0tVlBDLUJsYWNrIiB0cmFuc2Zvcm09InRyYW5zbGF0ZSgwLjc1MDAwMCwgLTEuMDAwMDAwKSIgZmlsbD0iIzAwMDAwMCI+CiAgICAgICAgICAgIDxwYXRoIGQ9Ik0wLjAwMDksMS4wMDAyIEwwLjAwMDksOS4wMDAyIEw2LjU4NjksOS4wMDAyIEwyMC4wMDA5LDIyLjQxNDIgTDIwLjAwMDksMjkuMDAwMiBMMjguMDAwOSwyOS4wMDAyIEwyOC4wMDA5LDIxLjAwMDIgTDIxLjQxNTksMjEuMDAwMiBMOC4wMDA5LDcuNTg1MiBMOC4wMDA5LDEuMDAwMiBMMC4wMDA5LDEuMDAwMiBaIE0yLjAwMDksNy4wMDAyIEw2LjAwMDksNy4wMDAyIEw2LjAwMDksMy4wMDAyIEwyLjAwMDksMy4wMDAyIEwyLjAwMDksNy4wMDAyIFogTTIyLjAwMDksMjcuMDAxMiBMMjYuMDAxOSwyNy4wMDEyIEwyNi4wMDE5LDIzLjAwMDIgTDIyLjAwMDksMjMuMDAwMiBMMjIuMDAwOSwyNy4wMDEyIFoiIGlkPSJGaWxsLTEiPjwvcGF0aD4KICAgICAgICAgICAgPGcgaWQ9Ikdyb3VwLTgiIHRyYW5zZm9ybT0idHJhbnNsYXRlKDAuMDAwMDAwLCAwLjAwMTkwMCkiPgogICAgICAgICAgICAgICAgPGcgaWQ9Ikdyb3VwLTQiIHRyYW5zZm9ybT0idHJhbnNsYXRlKDExLjAwMDAwMCwgMC4wMDAwMDApIj4KICAgICAgICAgICAgICAgICAgICA8cGF0aCBkPSJNMTIuNjQ2Nyw2LjgxNzkgQzExLjU0MjcsNi44MTc5IDEwLjY0NjcsNS45MjI5IDEwLjY0NjcsNC44MTc5IEMxMC42NDY3LDMuNzEzOSAxMS41NDI3LDIuODE3OSAxMi42NDY3LDIuODE3OSBDMTMuNzUwNywyLjgxNzkgMTQuNjQ2NywzLjcxMzkgMTQuNjQ2Nyw0LjgxNzkgQzE0LjY0NTcsNS45MjE5IDEzLjc1MDcsNi44MTY5IDEyLjY0NjcsNi44MTc5IE0xNi43MzM3LDMuNTE4OSBDMTYuMzU2NywyLjQ5ODkgMTUuNTMxNywxLjY2NzkgMTQuNTE1NywxLjI4MDkgQzEyLjEyNzcsMC4zNzA5IDkuNzE3NywxLjc1NTkgOS4xNDI3LDMuOTk3OSBMMC4wMDA3LDMuOTk3OSBMMC4wMDA3LDUuOTk3OSBMOS4xNDI3LDUuOTk3OSBDOS41MDc3LDcuMzk3OSAxMC42MDE3LDguNDkwOSAxMi4wMDA3LDguODU1OSBMMTIuMDAwNywxNy45OTc5IEwxNC4wMDA3LDE3Ljk5NzkgTDE0LjAwMDcsOC44NTU5IEMxNi4yMjk3LDguMjgxOSAxNy42MTE3LDUuODk2OSAxNi43MzM3LDMuNTE4OSIgaWQ9IkZpbGwtMiI+PC9wYXRoPgogICAgICAgICAgICAgICAgPC9nPgogICAgICAgICAgICAgICAgPGcgaWQ9Ikdyb3VwLTciIHRyYW5zZm9ybT0idHJhbnNsYXRlKDAuMDAwMDAwLCAxMS4wMDAwMDApIj4KICAgICAgICAgICAgICAgICAgICA8cGF0aCBkPSJNMy42NDY3LDE1LjgxNzkgQzIuNTQyNywxNS44MTc5IDEuNjQ2NywxNC45MjI5IDEuNjQ2NywxMy44MTc5IEMxLjY0NjcsMTIuNzEzOSAyLjU0MjcsMTEuODE3OSAzLjY0NjcsMTEuODE3OSBDNC43NTA3LDExLjgxNzkgNS42NDY3LDEyLjcxMzkgNS42NDY3LDEzLjgxNzkgQzUuNjQ1NywxNC45MjE5IDQuNzUwNywxNS44MTY5IDMuNjQ2NywxNS44MTc5IEwzLjY0NjcsMTUuODE3OSBaIE0xNy4wMDA3LDEyLjk5NzkgTDcuODU4NywxMi45OTc5IEM3LjQ5MzcsMTEuNTk3OSA2LjQwMDcsMTAuNTA0OSA1LjAwMDcsMTAuMTM5OSBMNS4wMDA3LDAuOTk3OSBMMy4wMDA3LDAuOTk3OSBMMy4wMDA3LDEwLjEzOTkgQzAuNDg3NywxMC43ODQ5IC0wLjg1MTMsMTMuNjgzOSAwLjU5NDcsMTYuMTE5OSBDMS4xNTA3LDE3LjA1NTkgMi4xMTE3LDE3LjcyODkgMy4xODI3LDE3LjkyNjkgQzUuNDAyNywxOC4zMzc5IDcuMzUzNywxNi45Njk5IDcuODU4NywxNC45OTc5IEwxNy4wMDA3LDE0Ljk5NzkgTDE3LjAwMDcsMTIuOTk3OSBaIiBpZD0iRmlsbC01Ij48L3BhdGg+CiAgICAgICAgICAgICAgICA8L2c+CiAgICAgICAgICAgIDwvZz4KICAgICAgICA8L2c+CiAgICA8L2c+Cjwvc3ZnPg==;" parent="HigGXVXa3_k5PrCU9umI-9" vertex="1">
          <mxGeometry x="17" y="9.849999999999909" width="24" height="24" as="geometry" />
        </mxCell>
        <mxCell id="_7V3AvlrsMas7PXJ1S_N-7" value="Zone" style="" parent="6EkFWpLrjTElACthLAa1-0" />
        <object label="" release="v2.0.3" generation="2.0" id="HigGXVXa3_k5PrCU9umI-13">
          <mxCell style="rounded=0;whiteSpace=wrap;html=1;fontFamily=IBM Plex Sans;fontSize=14;fillColor=#F2F4F8;spacingBottom=-28;spacingTop=0;labelPosition=-100;verticalLabelPosition=top;align=center;verticalAlign=bottom;spacingLeft=9;spacing=0;expand=0;recursiveResize=0;spacingRight=0;container=0;collapsible=0;strokeColor=#878D96;strokeWidth=2;dashed=1;dashPattern=1 2;" parent="_7V3AvlrsMas7PXJ1S_N-7" vertex="1">
            <mxGeometry x="1906" y="370" width="350" height="450" as="geometry">
              <mxRectangle width="670" as="alternateBounds" />
            </mxGeometry>
          </mxCell>
        </object>
        <mxCell id="HigGXVXa3_k5PrCU9umI-14" value="Zone" style="text;html=1;strokeColor=none;fillColor=none;align=left;verticalAlign=middle;whiteSpace=wrap;rounded=0;fontFamily=IBM Plex Sans;fontSize=14;" parent="HigGXVXa3_k5PrCU9umI-13" vertex="1">
          <mxGeometry x="51" y="8" width="168" height="20" as="geometry" />
        </mxCell>
        <mxCell id="HigGXVXa3_k5PrCU9umI-15" value="" style="shape=image;image=data:image/svg+xml,PD94bWwgdmVyc2lvbj0iMS4wIiBlbmNvZGluZz0iVVRGLTgiPz4KPHN2ZyB3aWR0aD0iMjlweCIgaGVpZ2h0PSIyNnB4IiB2aWV3Qm94PSIwIDAgMjkgMjYiIHZlcnNpb249IjEuMSIgeG1sbnM9Imh0dHA6Ly93d3cudzMub3JnLzIwMDAvc3ZnIiB4bWxuczp4bGluaz0iaHR0cDovL3d3dy53My5vcmcvMTk5OS94bGluayI+CiAgICA8IS0tIEdlbmVyYXRvcjogU2tldGNoIDUzICg3MjUyMCkgLSBodHRwczovL3NrZXRjaGFwcC5jb20gLS0+CiAgICA8dGl0bGU+Wm9uZSBCbGFjazwvdGl0bGU+CiAgICA8ZGVzYz5DcmVhdGVkIHdpdGggU2tldGNoLjwvZGVzYz4KICAgIDxnIGlkPSJQYWdlLTEiIHN0cm9rZT0ibm9uZSIgc3Ryb2tlLXdpZHRoPSIxIiBmaWxsPSJub25lIiBmaWxsLXJ1bGU9ImV2ZW5vZGQiPgogICAgICAgIDxnIGlkPSJab25lLUJsYWNrIiB0cmFuc2Zvcm09InRyYW5zbGF0ZSgwLjEyNTAwMCwgMC4wMDAwMDApIiBmaWxsPSIjMDAwMDAwIj4KICAgICAgICAgICAgPGcgaWQ9Ikdyb3VwLTMiPgogICAgICAgICAgICAgICAgPHBhdGggZD0iTTI2LjAwMDEsMjQuMDAwMSBMMjEuMDAwMSwyNC4wMDAxIEwyMS4wMDAxLDIwLjAwMDEgTDIzLjAwMDEsMjAuMDAwMSBMMjMuMDAwMSwxOC4wMDAxIEwyMS4wMDAxLDE4LjAwMDEgTDIxLjAwMDEsMTYuMDAwMSBMMjMuMDAwMSwxNi4wMDAxIEwyMy4wMDAxLDE0LjAwMDEgTDIxLjAwMDEsMTQuMDAwMSBMMjEuMDAwMSwxMi4wMDAxIEwyMy4wMDAxLDEyLjAwMDEgTDIzLjAwMDEsMTAuMDAwMSBMMjEuMDAwMSwxMC4wMDAxIEwyMS4wMDAxLDguMDAwMSBMMjYuMDAwMSw4LjAwMDEgTDI2LjAwMDEsMjQuMDAwMSBaIE05LjAwMDEsMjQuMDAwMSBMMTkuMDAwMSwyNC4wMDAxIEwxOS4wMDAxLDIuMDAwMSBMOS4wMDAxLDIuMDAwMSBMOS4wMDAxLDI0LjAwMDEgWiBNMi4wMDAxLDI0LjAwMDEgTDIuMDAwMSw4LjAwMDEgTDcuMDAwMSw4LjAwMDEgTDcuMDAwMSwxMC4wMDAxIEw1LjAwMDEsMTAuMDAwMSBMNS4wMDAxLDEyLjAwMDEgTDcuMDAwMSwxMi4wMDAxIEw3LjAwMDEsMTQuMDAwMSBMNS4wMDAxLDE0LjAwMDEgTDUuMDAwMSwxNi4wMDAxIEw3LjAwMDEsMTYuMDAwMSBMNy4wMDAxLDE4LjAwMDEgTDUuMDAwMSwxOC4wMDAxIEw1LjAwMDEsMjAuMDAwMSBMNy4wMDAxLDIwLjAwMDEgTDcuMDAwMSwyNC4wMDAxIEwyLjAwMDEsMjQuMDAwMSBaIE0yNi4wMDAxLDYuMDAwMSBMMjEuMDAwMSw2LjAwMDEgTDIxLjAwMDEsMi4wMDAxIEMyMC45OTkxLDAuODk2MSAyMC4xMDQxLDAuMDAxMSAxOS4wMDAxLDAuMDAwMSBMOS4wMDAxLDAuMDAwMSBDNy44OTYxLDAuMDAxMSA3LjAwMTEsMC44OTYxIDcuMDAwMSwyLjAwMDEgTDcuMDAwMSw2LjAwMDEgTDIuMDAwMSw2LjAwMDEgQzAuODk2MSw2LjAwMTEgMC4wMDExLDYuODk2MSAwLjAwMDEsOC4wMDAxIEwwLjAwMDEsMjQuMDAwMSBDMC4wMDExLDI1LjEwNDEgMC44OTYxLDI1Ljk5OTEgMi4wMDAxLDI2LjAwMDEgTDI2LjAwMDEsMjYuMDAwMSBDMjcuMTA0MSwyNS45OTkxIDI3Ljk5OTEsMjUuMTA0MSAyOC4wMDAxLDI0LjAwMDEgTDI4LjAwMDEsOC4wMDAxIEMyNy45OTkxLDYuODk2MSAyNy4xMDQxLDYuMDAxMSAyNi4wMDAxLDYuMDAwMSBMMjYuMDAwMSw2LjAwMDEgWiIgaWQ9IkZpbGwtMSI+PC9wYXRoPgogICAgICAgICAgICA8L2c+CiAgICAgICAgICAgIDxwb2x5Z29uIGlkPSJGaWxsLTQiIHBvaW50cz0iMTIgNiAxNiA2IDE2IDQgMTIgNCI+PC9wb2x5Z29uPgogICAgICAgICAgICA8cG9seWdvbiBpZD0iRmlsbC02IiBwb2ludHM9IjEyIDEwIDE2IDEwIDE2IDggMTIgOCI+PC9wb2x5Z29uPgogICAgICAgICAgICA8cG9seWdvbiBpZD0iRmlsbC03IiBwb2ludHM9IjEyIDE0IDE2IDE0IDE2IDEyIDEyIDEyIj48L3BvbHlnb24+CiAgICAgICAgPC9nPgogICAgPC9nPgo8L3N2Zz4=;" parent="HigGXVXa3_k5PrCU9umI-13" vertex="1">
          <mxGeometry x="18" y="12.07" width="24" height="24" as="geometry" />
        </mxCell>
        <mxCell id="HigGXVXa3_k5PrCU9umI-16" style="edgeStyle=orthogonalEdgeStyle;rounded=0;orthogonalLoop=1;jettySize=auto;html=1;exitX=0;exitY=0.5;exitDx=0;exitDy=0;entryX=1.009;entryY=0.22;entryDx=0;entryDy=0;entryPerimeter=0;fontFamily=IBM Plex Sans;fontSize=14;startArrow=oval;startFill=1;strokeColor=#198038;" parent="HigGXVXa3_k5PrCU9umI-13" edge="1">
          <mxGeometry relative="1" as="geometry" />
        </mxCell>
        <mxCell id="_7V3AvlrsMas7PXJ1S_N-0" value="Subnets" style="" parent="6EkFWpLrjTElACthLAa1-0" />
        <object label="" release="v2.0.3" generation="2.0" id="HigGXVXa3_k5PrCU9umI-17">
          <mxCell style="rounded=0;whiteSpace=wrap;html=1;fontFamily=IBM Plex Sans;fontSize=14;spacingBottom=-28;spacingTop=0;labelPosition=-100;verticalLabelPosition=top;align=center;verticalAlign=bottom;spacingLeft=9;spacing=0;expand=0;recursiveResize=0;spacingRight=0;container=1;collapsible=0;strokeColor=#1192E8;fillColor=default;" parent="_7V3AvlrsMas7PXJ1S_N-0" vertex="1">
            <mxGeometry x="1926" y="410" width="210" height="180" as="geometry">
              <mxRectangle width="670" as="alternateBounds" />
            </mxGeometry>
          </mxCell>
        </object>
        <mxCell id="HigGXVXa3_k5PrCU9umI-18" value="" style="rounded=0;whiteSpace=wrap;html=1;strokeColor=#1192E8;fillColor=#1192E8;" parent="HigGXVXa3_k5PrCU9umI-17" vertex="1">
          <mxGeometry width="4" height="48" as="geometry" />
        </mxCell>
        <mxCell id="HigGXVXa3_k5PrCU9umI-19" value="Subnet 10.10.10.0/24" style="text;html=1;strokeColor=none;fillColor=none;align=left;verticalAlign=middle;whiteSpace=wrap;rounded=0;fontFamily=IBM Plex Sans;fontSize=14;" parent="HigGXVXa3_k5PrCU9umI-17" vertex="1">
          <mxGeometry x="51" y="8" width="163" height="20" as="geometry" />
        </mxCell>
        <mxCell id="HigGXVXa3_k5PrCU9umI-20" value="" style="shape=image;image=data:image/svg+xml,PD94bWwgdmVyc2lvbj0iMS4wIiBlbmNvZGluZz0iVVRGLTgiPz4KPHN2ZyB3aWR0aD0iMjlweCIgaGVpZ2h0PSIyOXB4IiB2aWV3Qm94PSIwIDAgMjkgMjkiIHZlcnNpb249IjEuMSIgeG1sbnM9Imh0dHA6Ly93d3cudzMub3JnLzIwMDAvc3ZnIiB4bWxuczp4bGluaz0iaHR0cDovL3d3dy53My5vcmcvMTk5OS94bGluayI+CiAgICA8IS0tIEdlbmVyYXRvcjogU2tldGNoIDUzICg3MjUyMCkgLSBodHRwczovL3NrZXRjaGFwcC5jb20gLS0+CiAgICA8dGl0bGU+SUJNIFN1Ym5ldCA6IEFDTCBCbGFjazwvdGl0bGU+CiAgICA8ZGVzYz5DcmVhdGVkIHdpdGggU2tldGNoLjwvZGVzYz4KICAgIDxnIGlkPSJQYWdlLTEiIHN0cm9rZT0ibm9uZSIgc3Ryb2tlLXdpZHRoPSIxIiBmaWxsPSJub25lIiBmaWxsLXJ1bGU9ImV2ZW5vZGQiPgogICAgICAgIDxnIGlkPSJJQk0tU3VibmV0LTotQUNMLUJsYWNrIiB0cmFuc2Zvcm09InRyYW5zbGF0ZSgwLjc1MDAwMCwgMC4wNzQ5NTkpIiBmaWxsPSIjMDAwMDAwIj4KICAgICAgICAgICAgPHBhdGggZD0iTTI0LjAxNjEsMjYuMjIyMSBDMjIuOTEyMSwyNi4yMjIxIDIyLjAxNjEsMjUuMzI2MSAyMi4wMTYxLDI0LjIyMjEgQzIyLjAxNjEsMjMuMTE4MSAyMi45MTIxLDIyLjIyMjEgMjQuMDE2MSwyMi4yMjIxIEMyNS4xMjAxLDIyLjIyMjEgMjYuMDE2MSwyMy4xMTgxIDI2LjAxNjEsMjQuMjIyMSBDMjYuMDEzMSwyNS4zMjUxIDI1LjExOTEsMjYuMjE5MSAyNC4wMTYxLDI2LjIyMjEgTTQuMDE2MSwyNi4yMjIxIEMyLjkxMjEsMjYuMjIyMSAyLjAxNjEsMjUuMzI2MSAyLjAxNjEsMjQuMjIyMSBDMi4wMTYxLDIzLjExODEgMi45MTIxLDIyLjIyMjEgNC4wMTYxLDIyLjIyMjEgQzUuMTIwMSwyMi4yMjIxIDYuMDE2MSwyMy4xMTgxIDYuMDE2MSwyNC4yMjIxIEM2LjAxMzEsMjUuMzI1MSA1LjExOTEsMjYuMjE5MSA0LjAxNjEsMjYuMjIyMSBNNC4wMTYxLDYuMjIyMSBDMi45MTIxLDYuMjIyMSAyLjAxNjEsNS4zMjYxIDIuMDE2MSw0LjIyMjEgQzIuMDE2MSwzLjExODEgMi45MTIxLDIuMjIyMSA0LjAxNjEsMi4yMjIxIEM1LjEyMDEsMi4yMjIxIDYuMDE2MSwzLjExODEgNi4wMTYxLDQuMjIyMSBDNi4wMTMxLDUuMzI1MSA1LjExOTEsNi4yMTkxIDQuMDE2MSw2LjIyMjEgTTI0LjAxNjEsMi4yMjIxIEMyNS4xMjAxLDIuMjIyMSAyNi4wMTYxLDMuMTE4MSAyNi4wMTYxLDQuMjIyMSBDMjYuMDE2MSw1LjMyNjEgMjUuMTIwMSw2LjIyMjEgMjQuMDE2MSw2LjIyMjEgQzIyLjkxMjEsNi4yMjIxIDIyLjAxNjEsNS4zMjYxIDIyLjAxNjEsNC4yMjIxIEMyMi4wMTkxLDMuMTE4MSAyMi45MTMxLDIuMjI1MSAyNC4wMTYxLDIuMjIyMSBNMjQuMDE2MSwyMC4wMDAxIEMyMy4zMDUxLDE5Ljk5ODEgMjIuNjA5MSwyMC4yMDcxIDIyLjAxNjEsMjAuNjAwMSBMMTcuNDMwMSwxNi4wMDAxIEwxNi4wMTYxLDE3LjQxNDEgTDIwLjYxNjEsMjIuMDAwMSBDMjAuNDQwMSwyMi4zMTQxIDIwLjMwNjEsMjIuNjUxMSAyMC4yMTYxLDIzLjAwMDEgTDcuODc0MSwyMy4wMDAxIEM3Ljc3NDEsMjIuNjQ1MSA3LjYyMDEsMjIuMzA3MSA3LjQxNjEsMjIuMDAwMSBMMjIuMDE2MSw3LjQwMDEgQzIzLjgwNzEsOC41ODYxIDI2LjUzNzEsOC4wOTQxIDI3Ljc5NDEsNS4xOTgxIEMyNy45MTAxLDQuOTMyMSAyNy45OTIxLDQuNjQ0MSAyOC4wMTYxLDQuMzU1MSBDMjguMjIxMSwxLjk5NDEgMjYuMzcwMSwwLjAwOTEgMjQuMDQ4MSwwLjAwMDEgQzIyLjIxODEsLTAuMDA2OSAyMC42MTcxLDEuMjI4MSAyMC4xNTkxLDMuMDAwMSBMNy45MTYxLDMuMDAwMSBDNy40MzMxLDEuMjQwMSA1Ljg0MTEsMC4wMTUxIDQuMDE2MSwwLjAwMDEgQzEuNjc0MSwwLjAwMDEgLTAuMTk2OSwyLjAxMjEgMC4wMzYxLDQuNDAyMSBDMC4wNjcxLDQuNzIzMSAwLjE2MzEsNS4wNDExIDAuMjk5MSw1LjMzNTEgQzEuNTgyMSw4LjEwOTEgNC4yNTQxLDguNTY3MSA2LjAxNjEsNy40MDAxIEwxMC42MDIxLDEyLjAwMDEgTDEyLjAxNjEsMTAuNTg2MSBMNy40MTYxLDYuMDAwMSBDNy41OTIxLDUuNjg1MSA3LjcyNjEsNS4zNDkxIDcuODE2MSw1LjAwMDEgTDIwLjE1ODEsNS4wMDAxIEMyMC4yNTgxLDUuMzU1MSAyMC40MTIxLDUuNjkyMSAyMC42MTYxLDYuMDAwMSBMNi4wMTYxLDIwLjYwMDEgQzQuMjI0MSwxOS40MTMxIDEuNDk0MSwxOS45MDcxIDAuMjM3MSwyMi44MDUxIEMwLjEyMjEsMjMuMDcwMSAwLjA0MDEsMjMuMzU3MSAwLjAxNjEsMjMuNjQ1MSBDLTAuMTg3OSwyNi4wMDYxIDEuNjYzMSwyNy45OTExIDMuOTg0MSwyOC4wMDAxIEM1LjgxNDEsMjguMDA3MSA3LjQxNTEsMjYuNzcyMSA3Ljg3MzEsMjUuMDAwMSBMMjAuMTE2MSwyNS4wMDAxIEMyMC43MjkxLDI3LjQxMzEgMjMuNDEyMSwyOC43NTUxIDI1Ljc4NzEsMjcuNjEwMSBDMjcuMTAzMSwyNi45NzUxIDI3Ljk4NzEsMjUuNjA0MSAyOC4wMTgxLDI0LjE0MzEgQzI4LjA2ODEsMjEuNzk1MSAyNi4yMTIxLDIwLjAwNjEgMjQuMDE2MSwyMC4wMDAxIiBpZD0iRmlsbC0xIj48L3BhdGg+CiAgICAgICAgPC9nPgogICAgPC9nPgo8L3N2Zz4=;" parent="HigGXVXa3_k5PrCU9umI-17" vertex="1">
          <mxGeometry x="19" y="9" width="24" height="24" as="geometry" />
        </mxCell>
        <mxCell id="_7V3AvlrsMas7PXJ1S_N-2" style="edgeStyle=orthogonalEdgeStyle;rounded=0;orthogonalLoop=1;jettySize=auto;html=1;exitX=1;exitY=0.5;exitDx=0;exitDy=0;entryX=0;entryY=0.5;entryDx=0;entryDy=0;endArrow=none;endFill=0;startArrow=oval;startFill=1;strokeWidth=2;" parent="_7V3AvlrsMas7PXJ1S_N-0" source="HigGXVXa3_k5PrCU9umI-21" target="HigGXVXa3_k5PrCU9umI-30" edge="1">
          <mxGeometry relative="1" as="geometry" />
        </mxCell>
        <object label="" release="v2.0.3" generation="2.0" id="HigGXVXa3_k5PrCU9umI-21">
          <mxCell style="rounded=0;whiteSpace=wrap;html=1;fontFamily=IBM Plex Sans;fontSize=14;spacingBottom=-28;spacingTop=0;labelPosition=-100;verticalLabelPosition=top;align=center;verticalAlign=bottom;spacingLeft=9;spacing=0;expand=0;recursiveResize=0;spacingRight=0;container=1;collapsible=0;strokeColor=#1192E8;fillColor=default;" parent="_7V3AvlrsMas7PXJ1S_N-0" vertex="1">
            <mxGeometry x="1926" y="630" width="210" height="180" as="geometry">
              <mxRectangle width="670" as="alternateBounds" />
            </mxGeometry>
          </mxCell>
        </object>
        <mxCell id="HigGXVXa3_k5PrCU9umI-22" value="" style="rounded=0;whiteSpace=wrap;html=1;strokeColor=#1192E8;fillColor=#1192E8;" parent="HigGXVXa3_k5PrCU9umI-21" vertex="1">
          <mxGeometry width="4" height="48" as="geometry" />
        </mxCell>
        <mxCell id="HigGXVXa3_k5PrCU9umI-23" value="Subnet 10.10.20.0/24" style="text;html=1;strokeColor=none;fillColor=none;align=left;verticalAlign=middle;whiteSpace=wrap;rounded=0;fontFamily=IBM Plex Sans;fontSize=14;" parent="HigGXVXa3_k5PrCU9umI-21" vertex="1">
          <mxGeometry x="51" y="8" width="163" height="20" as="geometry" />
        </mxCell>
        <mxCell id="HigGXVXa3_k5PrCU9umI-24" value="" style="shape=image;image=data:image/svg+xml,PD94bWwgdmVyc2lvbj0iMS4wIiBlbmNvZGluZz0iVVRGLTgiPz4KPHN2ZyB3aWR0aD0iMjlweCIgaGVpZ2h0PSIyOXB4IiB2aWV3Qm94PSIwIDAgMjkgMjkiIHZlcnNpb249IjEuMSIgeG1sbnM9Imh0dHA6Ly93d3cudzMub3JnLzIwMDAvc3ZnIiB4bWxuczp4bGluaz0iaHR0cDovL3d3dy53My5vcmcvMTk5OS94bGluayI+CiAgICA8IS0tIEdlbmVyYXRvcjogU2tldGNoIDUzICg3MjUyMCkgLSBodHRwczovL3NrZXRjaGFwcC5jb20gLS0+CiAgICA8dGl0bGU+SUJNIFN1Ym5ldCA6IEFDTCBCbGFjazwvdGl0bGU+CiAgICA8ZGVzYz5DcmVhdGVkIHdpdGggU2tldGNoLjwvZGVzYz4KICAgIDxnIGlkPSJQYWdlLTEiIHN0cm9rZT0ibm9uZSIgc3Ryb2tlLXdpZHRoPSIxIiBmaWxsPSJub25lIiBmaWxsLXJ1bGU9ImV2ZW5vZGQiPgogICAgICAgIDxnIGlkPSJJQk0tU3VibmV0LTotQUNMLUJsYWNrIiB0cmFuc2Zvcm09InRyYW5zbGF0ZSgwLjc1MDAwMCwgMC4wNzQ5NTkpIiBmaWxsPSIjMDAwMDAwIj4KICAgICAgICAgICAgPHBhdGggZD0iTTI0LjAxNjEsMjYuMjIyMSBDMjIuOTEyMSwyNi4yMjIxIDIyLjAxNjEsMjUuMzI2MSAyMi4wMTYxLDI0LjIyMjEgQzIyLjAxNjEsMjMuMTE4MSAyMi45MTIxLDIyLjIyMjEgMjQuMDE2MSwyMi4yMjIxIEMyNS4xMjAxLDIyLjIyMjEgMjYuMDE2MSwyMy4xMTgxIDI2LjAxNjEsMjQuMjIyMSBDMjYuMDEzMSwyNS4zMjUxIDI1LjExOTEsMjYuMjE5MSAyNC4wMTYxLDI2LjIyMjEgTTQuMDE2MSwyNi4yMjIxIEMyLjkxMjEsMjYuMjIyMSAyLjAxNjEsMjUuMzI2MSAyLjAxNjEsMjQuMjIyMSBDMi4wMTYxLDIzLjExODEgMi45MTIxLDIyLjIyMjEgNC4wMTYxLDIyLjIyMjEgQzUuMTIwMSwyMi4yMjIxIDYuMDE2MSwyMy4xMTgxIDYuMDE2MSwyNC4yMjIxIEM2LjAxMzEsMjUuMzI1MSA1LjExOTEsMjYuMjE5MSA0LjAxNjEsMjYuMjIyMSBNNC4wMTYxLDYuMjIyMSBDMi45MTIxLDYuMjIyMSAyLjAxNjEsNS4zMjYxIDIuMDE2MSw0LjIyMjEgQzIuMDE2MSwzLjExODEgMi45MTIxLDIuMjIyMSA0LjAxNjEsMi4yMjIxIEM1LjEyMDEsMi4yMjIxIDYuMDE2MSwzLjExODEgNi4wMTYxLDQuMjIyMSBDNi4wMTMxLDUuMzI1MSA1LjExOTEsNi4yMTkxIDQuMDE2MSw2LjIyMjEgTTI0LjAxNjEsMi4yMjIxIEMyNS4xMjAxLDIuMjIyMSAyNi4wMTYxLDMuMTE4MSAyNi4wMTYxLDQuMjIyMSBDMjYuMDE2MSw1LjMyNjEgMjUuMTIwMSw2LjIyMjEgMjQuMDE2MSw2LjIyMjEgQzIyLjkxMjEsNi4yMjIxIDIyLjAxNjEsNS4zMjYxIDIyLjAxNjEsNC4yMjIxIEMyMi4wMTkxLDMuMTE4MSAyMi45MTMxLDIuMjI1MSAyNC4wMTYxLDIuMjIyMSBNMjQuMDE2MSwyMC4wMDAxIEMyMy4zMDUxLDE5Ljk5ODEgMjIuNjA5MSwyMC4yMDcxIDIyLjAxNjEsMjAuNjAwMSBMMTcuNDMwMSwxNi4wMDAxIEwxNi4wMTYxLDE3LjQxNDEgTDIwLjYxNjEsMjIuMDAwMSBDMjAuNDQwMSwyMi4zMTQxIDIwLjMwNjEsMjIuNjUxMSAyMC4yMTYxLDIzLjAwMDEgTDcuODc0MSwyMy4wMDAxIEM3Ljc3NDEsMjIuNjQ1MSA3LjYyMDEsMjIuMzA3MSA3LjQxNjEsMjIuMDAwMSBMMjIuMDE2MSw3LjQwMDEgQzIzLjgwNzEsOC41ODYxIDI2LjUzNzEsOC4wOTQxIDI3Ljc5NDEsNS4xOTgxIEMyNy45MTAxLDQuOTMyMSAyNy45OTIxLDQuNjQ0MSAyOC4wMTYxLDQuMzU1MSBDMjguMjIxMSwxLjk5NDEgMjYuMzcwMSwwLjAwOTEgMjQuMDQ4MSwwLjAwMDEgQzIyLjIxODEsLTAuMDA2OSAyMC42MTcxLDEuMjI4MSAyMC4xNTkxLDMuMDAwMSBMNy45MTYxLDMuMDAwMSBDNy40MzMxLDEuMjQwMSA1Ljg0MTEsMC4wMTUxIDQuMDE2MSwwLjAwMDEgQzEuNjc0MSwwLjAwMDEgLTAuMTk2OSwyLjAxMjEgMC4wMzYxLDQuNDAyMSBDMC4wNjcxLDQuNzIzMSAwLjE2MzEsNS4wNDExIDAuMjk5MSw1LjMzNTEgQzEuNTgyMSw4LjEwOTEgNC4yNTQxLDguNTY3MSA2LjAxNjEsNy40MDAxIEwxMC42MDIxLDEyLjAwMDEgTDEyLjAxNjEsMTAuNTg2MSBMNy40MTYxLDYuMDAwMSBDNy41OTIxLDUuNjg1MSA3LjcyNjEsNS4zNDkxIDcuODE2MSw1LjAwMDEgTDIwLjE1ODEsNS4wMDAxIEMyMC4yNTgxLDUuMzU1MSAyMC40MTIxLDUuNjkyMSAyMC42MTYxLDYuMDAwMSBMNi4wMTYxLDIwLjYwMDEgQzQuMjI0MSwxOS40MTMxIDEuNDk0MSwxOS45MDcxIDAuMjM3MSwyMi44MDUxIEMwLjEyMjEsMjMuMDcwMSAwLjA0MDEsMjMuMzU3MSAwLjAxNjEsMjMuNjQ1MSBDLTAuMTg3OSwyNi4wMDYxIDEuNjYzMSwyNy45OTExIDMuOTg0MSwyOC4wMDAxIEM1LjgxNDEsMjguMDA3MSA3LjQxNTEsMjYuNzcyMSA3Ljg3MzEsMjUuMDAwMSBMMjAuMTE2MSwyNS4wMDAxIEMyMC43MjkxLDI3LjQxMzEgMjMuNDEyMSwyOC43NTUxIDI1Ljc4NzEsMjcuNjEwMSBDMjcuMTAzMSwyNi45NzUxIDI3Ljk4NzEsMjUuNjA0MSAyOC4wMTgxLDI0LjE0MzEgQzI4LjA2ODEsMjEuNzk1MSAyNi4yMTIxLDIwLjAwNjEgMjQuMDE2MSwyMC4wMDAxIiBpZD0iRmlsbC0xIj48L3BhdGg+CiAgICAgICAgPC9nPgogICAgPC9nPgo8L3N2Zz4=;" parent="HigGXVXa3_k5PrCU9umI-21" vertex="1">
          <mxGeometry x="19" y="9" width="24" height="24" as="geometry" />
        </mxCell>
        <mxCell id="HigGXVXa3_k5PrCU9umI-38" value="Security Groups" parent="6EkFWpLrjTElACthLAa1-0" />
        <object label="" release="v2.0.3" generation="2.0" id="HigGXVXa3_k5PrCU9umI-25">
          <mxCell style="rounded=0;whiteSpace=wrap;html=1;fontFamily=IBM Plex Sans;fontSize=14;fillColor=none;spacingBottom=-28;spacingTop=0;labelPosition=-100;verticalLabelPosition=top;align=center;verticalAlign=bottom;spacingLeft=9;spacing=0;expand=0;recursiveResize=0;spacingRight=0;container=0;collapsible=0;strokeColor=#FA4D56;strokeWidth=2;dashed=1;dashPattern=1 2;" parent="HigGXVXa3_k5PrCU9umI-38" vertex="1">
            <mxGeometry x="1946" y="670" width="240" height="122" as="geometry">
              <mxRectangle width="670" as="alternateBounds" />
            </mxGeometry>
          </mxCell>
        </object>
        <mxCell id="HigGXVXa3_k5PrCU9umI-26" value="&lt;font face=&quot;IBM Plex Sans&quot;&gt;Security Group 2&lt;/font&gt;" style="text;html=1;strokeColor=none;fillColor=none;align=left;verticalAlign=middle;whiteSpace=wrap;rounded=0;fontFamily=IBM Plex Sans;fontSize=14;" parent="HigGXVXa3_k5PrCU9umI-25" vertex="1">
          <mxGeometry x="50.33" y="8" width="170" height="20" as="geometry" />
        </mxCell>
        <mxCell id="HigGXVXa3_k5PrCU9umI-27" value="" style="shape=image;image=data:image/svg+xml,PD94bWwgdmVyc2lvbj0iMS4wIiBlbmNvZGluZz0iVVRGLTgiPz4KPHN2ZyB3aWR0aD0iMjhweCIgaGVpZ2h0PSIyOHB4IiB2aWV3Qm94PSIwIDAgMjggMjgiIHZlcnNpb249IjEuMSIgeG1sbnM9Imh0dHA6Ly93d3cudzMub3JnLzIwMDAvc3ZnIiB4bWxuczp4bGluaz0iaHR0cDovL3d3dy53My5vcmcvMTk5OS94bGluayI+CiAgICA8IS0tIEdlbmVyYXRvcjogU2tldGNoIDUzICg3MjUyMCkgLSBodHRwczovL3NrZXRjaGFwcC5jb20gLS0+CiAgICA8dGl0bGU+U2VjdXJpdHkgR3JvdXAgQmxhY2s8L3RpdGxlPgogICAgPGRlc2M+Q3JlYXRlZCB3aXRoIFNrZXRjaC48L2Rlc2M+CiAgICA8ZGVmcz4KICAgICAgICA8cG9seWdvbiBpZD0icGF0aC0xIiBwb2ludHM9IjAgMC4wMDA0IDI0IDAuMDAwNCAyNCAyOCAwIDI4Ij48L3BvbHlnb24+CiAgICA8L2RlZnM+CiAgICA8ZyBpZD0iUGFnZS0xIiBzdHJva2U9Im5vbmUiIHN0cm9rZS13aWR0aD0iMSIgZmlsbD0ibm9uZSIgZmlsbC1ydWxlPSJldmVub2RkIj4KICAgICAgICA8ZyBpZD0iU2VjdXJpdHktR3JvdXAtQmxhY2siPgogICAgICAgICAgICA8cGF0aCBkPSJNOSwxOSBMNywxOSBMNywxNyBDNy4wMDIsMTUuMzQ0IDguMzQ0LDE0LjAwMiAxMCwxNCBMMTYsMTQgTDE2LDE2IEwxMCwxNiBDOS40NDgsMTYgOS4wMDEsMTYuNDQ4IDksMTcgTDksMTkgWiIgaWQ9IkZpbGwtMSIgZmlsbD0iIzAwMDAwMCI+PC9wYXRoPgogICAgICAgICAgICA8cGF0aCBkPSJNMTMsNyBDMTEuODk2LDcgMTEsNy44OTYgMTEsOSBDMTEsMTAuMTA0IDExLjg5NiwxMSAxMywxMSBDMTQuMTA0LDExIDE1LDEwLjEwNCAxNSw5IEMxNC45OTksNy44OTYgMTQuMTA0LDcuMDAxIDEzLDcgTTEzLDEzIEMxMC43OTEsMTMgOSwxMS4yMDkgOSw5IEM5LDYuNzkxIDEwLjc5MSw1IDEzLDUgQzE1LjIwOSw1IDE3LDYuNzkxIDE3LDkgQzE2Ljk5NywxMS4yMDggMTUuMjA4LDEyLjk5OCAxMywxMyIgaWQ9IkZpbGwtMyIgZmlsbD0iIzAwMDAwMCI+PC9wYXRoPgogICAgICAgICAgICA8cGF0aCBkPSJNMjIsMTQgQzIwLjg5NiwxNCAyMCwxNC44OTYgMjAsMTYgQzIwLDE3LjEwNCAyMC44OTYsMTggMjIsMTggQzIzLjEwNCwxOCAyNCwxNy4xMDQgMjQsMTYgQzIzLjk5OSwxNC44OTYgMjMuMTA0LDE0LjAwMSAyMiwxNCBNMjIsMjAgQzE5Ljc5MSwyMCAxOCwxOC4yMDkgMTgsMTYgQzE4LDEzLjc5MSAxOS43OTEsMTIgMjIsMTIgQzI0LjIwOSwxMiAyNiwxMy43OTEgMjYsMTYgQzI1Ljk5NywxOC4yMDggMjQuMjA4LDE5Ljk5OCAyMiwyMCIgaWQ9IkZpbGwtNSIgZmlsbD0iIzAwMDAwMCI+PC9wYXRoPgogICAgICAgICAgICA8cGF0aCBkPSJNMjgsMjYgTDI2LDI2IEwyNiwyNCBDMjUuOTk5LDIzLjQ0OCAyNS41NTIsMjMgMjUsMjMgTDE5LDIzIEMxOC40NDgsMjMgMTguMDAxLDIzLjQ0OCAxOCwyNCBMMTgsMjYgTDE2LDI2IEwxNiwyNCBDMTYuMDAyLDIyLjM0NCAxNy4zNDQsMjEuMDAyIDE5LDIxIEwyNSwyMSBDMjYuNjU2LDIxLjAwMiAyNy45OTgsMjIuMzQ0IDI4LDI0IEwyOCwyNiBaIiBpZD0iRmlsbC03IiBmaWxsPSIjMDAwMDAwIj48L3BhdGg+CiAgICAgICAgICAgIDxnIGlkPSJHcm91cC0xMSI+CiAgICAgICAgICAgICAgICA8bWFzayBpZD0ibWFzay0yIiBmaWxsPSJ3aGl0ZSI+CiAgICAgICAgICAgICAgICAgICAgPHVzZSB4bGluazpocmVmPSIjcGF0aC0xIj48L3VzZT4KICAgICAgICAgICAgICAgIDwvbWFzaz4KICAgICAgICAgICAgICAgIDxnIGlkPSJDbGlwLTEwIj48L2c+CiAgICAgICAgICAgICAgICA8cGF0aCBkPSJNMTIsMjUuNzMzNCBMNi43NjYsMjIuOTQyNCBDMy44MywyMS4zODA0IDEuOTk2LDE4LjMyNTQgMiwxNS4wMDA0IEwyLDIuMDAwNCBMMjIsMi4wMDA0IEwyMiw4LjAwMDQgTDI0LDguMDAwNCBMMjQsMi4wMDA0IEMyMy45OTksMC44OTY0IDIzLjEwNCwwLjAwMTQgMjIsMC4wMDA0IEwyLDAuMDAwNCBDMC44OTYsMC4wMDE0IDAuMDAxLDAuODk2NCAwLDIuMDAwNCBMMCwxNS4wMDA0IEMtMC4wMDUsMTkuMDY0NCAyLjIzNiwyMi43OTg0IDUuODI0LDI0LjcwNzQgTDEyLDI4LjAwMDQgTDEyLDI1LjczMzQgWiIgaWQ9IkZpbGwtOSIgZmlsbD0iIzAwMDAwMCIgbWFzaz0idXJsKCNtYXNrLTIpIj48L3BhdGg+CiAgICAgICAgICAgIDwvZz4KICAgICAgICA8L2c+CiAgICA8L2c+Cjwvc3ZnPg==;" parent="HigGXVXa3_k5PrCU9umI-25" vertex="1">
          <mxGeometry x="18" y="9" width="24" height="24" as="geometry" />
        </mxCell>
        <object label="" release="v2.0.3" generation="2.0" id="HigGXVXa3_k5PrCU9umI-35">
          <mxCell style="rounded=0;whiteSpace=wrap;html=1;fontFamily=IBM Plex Sans;fontSize=14;fillColor=none;spacingBottom=-28;spacingTop=0;labelPosition=-100;verticalLabelPosition=top;align=center;verticalAlign=bottom;spacingLeft=9;spacing=0;expand=0;recursiveResize=0;spacingRight=0;container=0;collapsible=0;strokeColor=#FA4D56;strokeWidth=2;dashed=1;dashPattern=1 2;" parent="HigGXVXa3_k5PrCU9umI-38" vertex="1">
            <mxGeometry x="1946" y="450" width="240" height="122" as="geometry">
              <mxRectangle width="670" as="alternateBounds" />
            </mxGeometry>
          </mxCell>
        </object>
        <mxCell id="HigGXVXa3_k5PrCU9umI-36" value="Security Group 1" style="text;html=1;strokeColor=none;fillColor=none;align=left;verticalAlign=middle;whiteSpace=wrap;rounded=0;fontFamily=IBM Plex Sans;fontSize=14;" parent="HigGXVXa3_k5PrCU9umI-35" vertex="1">
          <mxGeometry x="50.33" y="8" width="170" height="20" as="geometry" />
        </mxCell>
        <mxCell id="HigGXVXa3_k5PrCU9umI-37" value="" style="shape=image;image=data:image/svg+xml,PD94bWwgdmVyc2lvbj0iMS4wIiBlbmNvZGluZz0iVVRGLTgiPz4KPHN2ZyB3aWR0aD0iMjhweCIgaGVpZ2h0PSIyOHB4IiB2aWV3Qm94PSIwIDAgMjggMjgiIHZlcnNpb249IjEuMSIgeG1sbnM9Imh0dHA6Ly93d3cudzMub3JnLzIwMDAvc3ZnIiB4bWxuczp4bGluaz0iaHR0cDovL3d3dy53My5vcmcvMTk5OS94bGluayI+CiAgICA8IS0tIEdlbmVyYXRvcjogU2tldGNoIDUzICg3MjUyMCkgLSBodHRwczovL3NrZXRjaGFwcC5jb20gLS0+CiAgICA8dGl0bGU+U2VjdXJpdHkgR3JvdXAgQmxhY2s8L3RpdGxlPgogICAgPGRlc2M+Q3JlYXRlZCB3aXRoIFNrZXRjaC48L2Rlc2M+CiAgICA8ZGVmcz4KICAgICAgICA8cG9seWdvbiBpZD0icGF0aC0xIiBwb2ludHM9IjAgMC4wMDA0IDI0IDAuMDAwNCAyNCAyOCAwIDI4Ij48L3BvbHlnb24+CiAgICA8L2RlZnM+CiAgICA8ZyBpZD0iUGFnZS0xIiBzdHJva2U9Im5vbmUiIHN0cm9rZS13aWR0aD0iMSIgZmlsbD0ibm9uZSIgZmlsbC1ydWxlPSJldmVub2RkIj4KICAgICAgICA8ZyBpZD0iU2VjdXJpdHktR3JvdXAtQmxhY2siPgogICAgICAgICAgICA8cGF0aCBkPSJNOSwxOSBMNywxOSBMNywxNyBDNy4wMDIsMTUuMzQ0IDguMzQ0LDE0LjAwMiAxMCwxNCBMMTYsMTQgTDE2LDE2IEwxMCwxNiBDOS40NDgsMTYgOS4wMDEsMTYuNDQ4IDksMTcgTDksMTkgWiIgaWQ9IkZpbGwtMSIgZmlsbD0iIzAwMDAwMCI+PC9wYXRoPgogICAgICAgICAgICA8cGF0aCBkPSJNMTMsNyBDMTEuODk2LDcgMTEsNy44OTYgMTEsOSBDMTEsMTAuMTA0IDExLjg5NiwxMSAxMywxMSBDMTQuMTA0LDExIDE1LDEwLjEwNCAxNSw5IEMxNC45OTksNy44OTYgMTQuMTA0LDcuMDAxIDEzLDcgTTEzLDEzIEMxMC43OTEsMTMgOSwxMS4yMDkgOSw5IEM5LDYuNzkxIDEwLjc5MSw1IDEzLDUgQzE1LjIwOSw1IDE3LDYuNzkxIDE3LDkgQzE2Ljk5NywxMS4yMDggMTUuMjA4LDEyLjk5OCAxMywxMyIgaWQ9IkZpbGwtMyIgZmlsbD0iIzAwMDAwMCI+PC9wYXRoPgogICAgICAgICAgICA8cGF0aCBkPSJNMjIsMTQgQzIwLjg5NiwxNCAyMCwxNC44OTYgMjAsMTYgQzIwLDE3LjEwNCAyMC44OTYsMTggMjIsMTggQzIzLjEwNCwxOCAyNCwxNy4xMDQgMjQsMTYgQzIzLjk5OSwxNC44OTYgMjMuMTA0LDE0LjAwMSAyMiwxNCBNMjIsMjAgQzE5Ljc5MSwyMCAxOCwxOC4yMDkgMTgsMTYgQzE4LDEzLjc5MSAxOS43OTEsMTIgMjIsMTIgQzI0LjIwOSwxMiAyNiwxMy43OTEgMjYsMTYgQzI1Ljk5NywxOC4yMDggMjQuMjA4LDE5Ljk5OCAyMiwyMCIgaWQ9IkZpbGwtNSIgZmlsbD0iIzAwMDAwMCI+PC9wYXRoPgogICAgICAgICAgICA8cGF0aCBkPSJNMjgsMjYgTDI2LDI2IEwyNiwyNCBDMjUuOTk5LDIzLjQ0OCAyNS41NTIsMjMgMjUsMjMgTDE5LDIzIEMxOC40NDgsMjMgMTguMDAxLDIzLjQ0OCAxOCwyNCBMMTgsMjYgTDE2LDI2IEwxNiwyNCBDMTYuMDAyLDIyLjM0NCAxNy4zNDQsMjEuMDAyIDE5LDIxIEwyNSwyMSBDMjYuNjU2LDIxLjAwMiAyNy45OTgsMjIuMzQ0IDI4LDI0IEwyOCwyNiBaIiBpZD0iRmlsbC03IiBmaWxsPSIjMDAwMDAwIj48L3BhdGg+CiAgICAgICAgICAgIDxnIGlkPSJHcm91cC0xMSI+CiAgICAgICAgICAgICAgICA8bWFzayBpZD0ibWFzay0yIiBmaWxsPSJ3aGl0ZSI+CiAgICAgICAgICAgICAgICAgICAgPHVzZSB4bGluazpocmVmPSIjcGF0aC0xIj48L3VzZT4KICAgICAgICAgICAgICAgIDwvbWFzaz4KICAgICAgICAgICAgICAgIDxnIGlkPSJDbGlwLTEwIj48L2c+CiAgICAgICAgICAgICAgICA8cGF0aCBkPSJNMTIsMjUuNzMzNCBMNi43NjYsMjIuOTQyNCBDMy44MywyMS4zODA0IDEuOTk2LDE4LjMyNTQgMiwxNS4wMDA0IEwyLDIuMDAwNCBMMjIsMi4wMDA0IEwyMiw4LjAwMDQgTDI0LDguMDAwNCBMMjQsMi4wMDA0IEMyMy45OTksMC44OTY0IDIzLjEwNCwwLjAwMTQgMjIsMC4wMDA0IEwyLDAuMDAwNCBDMC44OTYsMC4wMDE0IDAuMDAxLDAuODk2NCAwLDIuMDAwNCBMMCwxNS4wMDA0IEMtMC4wMDUsMTkuMDY0NCAyLjIzNiwyMi43OTg0IDUuODI0LDI0LjcwNzQgTDEyLDI4LjAwMDQgTDEyLDI1LjczMzQgWiIgaWQ9IkZpbGwtOSIgZmlsbD0iIzAwMDAwMCIgbWFzaz0idXJsKCNtYXNrLTIpIj48L3BhdGg+CiAgICAgICAgICAgIDwvZz4KICAgICAgICA8L2c+CiAgICA8L2c+Cjwvc3ZnPg==;" parent="HigGXVXa3_k5PrCU9umI-35" vertex="1">
          <mxGeometry x="18" y="9" width="24" height="24" as="geometry" />
        </mxCell>
        <mxCell id="6EkFWpLrjTElACthLAa1-1" value="Icons" style="" parent="6EkFWpLrjTElACthLAa1-0" />
        <object label="Internet" release="v2.0.3" generation="2.0" id="HigGXVXa3_k5PrCU9umI-31">
          <mxCell style="shape=image;verticalLabelPosition=bottom;verticalAlign=middle;imageAspect=0;aspect=fixed;image=data:image/svg+xml,PHN2ZyB4bWxuczp4bGluaz0iaHR0cDovL3d3dy53My5vcmcvMTk5OS94bGluayIgeG1sbnM9Imh0dHA6Ly93d3cudzMub3JnLzIwMDAvc3ZnIiB2ZXJzaW9uPSIxLjEiIHZpZXdCb3g9IjAgMCA0OCA0OCIgaGVpZ2h0PSI0OHB4IiB3aWR0aD0iNDhweCI+JiN4YTsgICAgPHRpdGxlPkludGVybmV0PC90aXRsZT4mI3hhOyAgICA8ZyBmaWxsLXJ1bGU9ImV2ZW5vZGQiIGZpbGw9Im5vbmUiIHN0cm9rZS13aWR0aD0iMSIgc3Ryb2tlPSJub25lIiBpZD0iVjItSWNvbnMiPiYjeGE7ICAgICAgICA8ZyB0cmFuc2Zvcm09InRyYW5zbGF0ZSgtMTE2NCwgLTI0KSIgaWQ9IklCTS9DbG91ZC9OZXR3b3JrIj4mI3hhOyAgICAgICAgICAgIDxnIHRyYW5zZm9ybT0idHJhbnNsYXRlKDExNjQsIDI0KSIgaWQ9IkludGVybmV0Ij4mI3hhOyAgICAgICAgICAgICAgICA8cmVjdCBoZWlnaHQ9IjQ4IiB3aWR0aD0iNDgiIHk9IjAiIHg9IjAiIGZpbGw9IiMxMTkyRTgiIGlkPSJSZWN0YW5nbGUtQ29weS00MyIvPiYjeGE7ICAgICAgICAgICAgICAgIDxnIHRyYW5zZm9ybT0idHJhbnNsYXRlKDEyLCAxMikiPiYjeGE7ICAgICAgICAgICAgICAgICAgICA8cGF0aCBmaWxsLXJ1bGU9Im5vbnplcm8iIGZpbGw9IiNGRkZGRkYiIGlkPSJTaGFwZSIgZD0iTTEyLDEuNSBDNi4yMDEwMTAxMywxLjUgMS41LDYuMjAxMDEwMTMgMS41LDEyIEMxLjUsMTcuNzk4OTg5OSA2LjIwMTAxMDEzLDIyLjUgMTIsMjIuNSBDMTcuNzk4OTg5OSwyMi41IDIyLjUsMTcuNzk4OTg5OSAyMi41LDEyIEMyMi41LDkuMjE1MjI2ODYgMjEuMzkzNzUzMiw2LjU0NDUxMDc3IDE5LjQyNDYyMTIsNC41NzUzNzg4IEMxNy40NTU0ODkyLDIuNjA2MjQ2ODIgMTQuNzg0NzczMSwxLjUgMTIsMS41IEwxMiwxLjUgWiBNMjEsMTEuMjUgTDE2LjUsMTEuMjUgQzE2LjQxMjQ1MTYsOC40ODc4MTQ2MSAxNS42OTY4NDkzLDUuNzgxODYzMTcgMTQuNDA3NSwzLjMzNzUgQzE4LjA0NjA1NzMsNC4zMzI3OTA3MiAyMC42Nzc4NTk3LDcuNDkxNTUyNCAyMSwxMS4yNSBMMjEsMTEuMjUgWiBNMTIsMjEgQzExLjgzMjY4ODQsMjEuMDExMjM1MSAxMS42NjQ4MTE2LDIxLjAxMTIzNTEgMTEuNDk3NSwyMSBDOS45NDM3MTQyNywxOC41MjIxNDA0IDkuMDgxMzgyMjYsMTUuNjczNTk2MyA5LDEyLjc1IEwxNSwxMi43NSBDMTQuOTI1Mzg1NiwxNS42NzE0OTI5IDE0LjA3MDg2ODUsMTguNTE5ODgzMyAxMi41MjUsMjEgQzEyLjM1MDIxNDksMjEuMDEyMjY1IDEyLjE3NDc4NTEsMjEuMDEyMjY1IDEyLDIxIEwxMiwyMSBaIE05LDExLjI1IEM5LjA3NDYxNDQxLDguMzI4NTA3MDggOS45MjkxMzE1Miw1LjQ4MDExNjcgMTEuNDc1LDMgQzExLjgwODk0OTEsMi45NjI0NzQzMiAxMi4xNDYwNTA5LDIuOTYyNDc0MzIgMTIuNDgsMyBDMTQuMDQxNzA3Miw1LjQ3NTU5NzEyIDE0LjkxMTg1NTMsOC4zMjQyOTY1MSAxNSwxMS4yNSBMOSwxMS4yNSBaIE05LjU3LDMuMzM3NSBDOC4yODg0NzE4LDUuNzgzNzMzODIgNy41ODA1ODk4Miw4LjQ4OTU4NzA0IDcuNSwxMS4yNSBMMywxMS4yNSBDMy4zMjIxNDAzMyw3LjQ5MTU1MjQgNS45NTM5NDI3MSw0LjMzMjc5MDcyIDkuNTkyNSwzLjMzNzUgTDkuNTcsMy4zMzc1IFogTTMuMDM3NSwxMi43NSBMNy41Mzc1LDEyLjc1IEM3LjYxNTc2OTIzLDE1LjUwOTgyMjggOC4zMjEwNzc5NSwxOC4yMTU2NDM1IDkuNiwyMC42NjI1IEM1Ljk3MzIzNzEzLDE5LjY1NjYyMDQgMy4zNTUzNzA3MywxNi41MDAyMjE1IDMuMDM3NSwxMi43NSBaIE0xNC40MDc1LDIwLjY2MjUgQzE1LjY5Njg0OTMsMTguMjE4MTM2OCAxNi40MTI0NTE2LDE1LjUxMjE4NTQgMTYuNSwxMi43NSBMMjEsMTIuNzUgQzIwLjY3Nzg1OTcsMTYuNTA4NDQ3NiAxOC4wNDYwNTczLDE5LjY2NzIwOTMgMTQuNDA3NSwyMC42NjI1IFoiLz4mI3hhOyAgICAgICAgICAgICAgICAgICAgPHBvbHlnb24gcG9pbnRzPSIyLjU3MTc1ODI4ZS0xNSAtNS4zMjkwNzA1MmUtMTUgMjQgLTUuODE4OTI5MjRlLTE1IDI0IDI0IDIuNTcxNzU4MjhlLTE1IDI0IiB0cmFuc2Zvcm09InRyYW5zbGF0ZSgxMiwgMTIpIHJvdGF0ZSg5MCkgdHJhbnNsYXRlKC0xMiwgLTEyKSIgaWQ9Il9UcmFuc3BhcmVudF9SZWN0YW5nbGVfIi8+JiN4YTsgICAgICAgICAgICAgICAgPC9nPiYjeGE7ICAgICAgICAgICAgPC9nPiYjeGE7ICAgICAgICA8L2c+JiN4YTsgICAgPC9nPiYjeGE7PC9zdmc+;fontFamily=IBM Plex Sans;fontSize=14;spacingTop=-7;labelPosition=center;align=center;" parent="6EkFWpLrjTElACthLAa1-1" vertex="1">
            <mxGeometry x="2326" y="590" width="48" height="48" as="geometry" />
          </mxCell>
        </object>
        <object label="Floating&#xa;IP" release="v2.0.3" generation="2.0" id="HigGXVXa3_k5PrCU9umI-32">
          <mxCell style="shape=image;verticalLabelPosition=bottom;verticalAlign=top;imageAspect=0;aspect=fixed;image=data:image/svg+xml,PHN2ZyB4bWxuczp4bGluaz0iaHR0cDovL3d3dy53My5vcmcvMTk5OS94bGluayIgeG1sbnM9Imh0dHA6Ly93d3cudzMub3JnLzIwMDAvc3ZnIiB2ZXJzaW9uPSIxLjEiIHZpZXdCb3g9IjAgMCA0OCA0OCIgaGVpZ2h0PSI0OHB4IiB3aWR0aD0iNDhweCI+JiN4YTsgICAgPHRpdGxlPmZsb2F0aW5nLWlwPC90aXRsZT4mI3hhOyAgICA8ZyBmaWxsLXJ1bGU9ImV2ZW5vZGQiIGZpbGw9Im5vbmUiIHN0cm9rZS13aWR0aD0iMSIgc3Ryb2tlPSJub25lIiBpZD0iVjItSWNvbnMiPiYjeGE7ICAgICAgICA8ZyB0cmFuc2Zvcm09InRyYW5zbGF0ZSgtNzAwLCAtMjQpIiBpZD0iSUJNL0Nsb3VkL05ldHdvcmsiPiYjeGE7ICAgICAgICAgICAgPGcgdHJhbnNmb3JtPSJ0cmFuc2xhdGUoNzAwLCAyNCkiIGlkPSJmbG9hdGluZy1pcCI+JiN4YTsgICAgICAgICAgICAgICAgPHJlY3QgaGVpZ2h0PSI0OCIgd2lkdGg9IjQ4IiB5PSIwIiB4PSIwIiBmaWxsPSIjMTE5MkU4IiBpZD0iUmVjdGFuZ2xlLUNvcHktNDciLz4mI3hhOyAgICAgICAgICAgICAgICA8ZyB0cmFuc2Zvcm09InRyYW5zbGF0ZSgxMiwgMTIpIj4mI3hhOyAgICAgICAgICAgICAgICAgICAgPHBhdGggZmlsbC1ydWxlPSJub256ZXJvIiBmaWxsPSIjRkZGRkZGIiBpZD0iU2hhcGUiIGQ9Ik0xOC43NSw4LjI1IEMxNi45Njg5MTIsOC4yNTI0MzcwMSAxNS40MzQ0MDI2LDkuNTA1Mzc4OTggMTUuMDc1ODI1LDExLjI1IEw4LjkyNDE3NSwxMS4yNSBDOC41MzkxNTE0Niw5LjM2Mzc3NzU5IDYuNzg4NDAwOTcsOC4wNzU0OTc4NSA0Ljg3MzAzMTc4LDguMjY4OTg5NDMgQzIuOTU3NjYyNTksOC40NjI0ODEwMSAxLjQ5OTk0MDM5LDEwLjA3NDg4MjMgMS40OTk5NDAzOSwxMiBDMS40OTk5NDAzOSwxMy45MjUxMTc3IDIuOTU3NjYyNTksMTUuNTM3NTE5IDQuODczMDMxNzgsMTUuNzMxMDEwNiBDNi43ODg0MDA5NywxNS45MjQ1MDIyIDguNTM5MTUxNDYsMTQuNjM2MjIyNCA4LjkyNDE3NSwxMi43NSBMMTUuMDc1ODI1LDEyLjc1IEMxNS40NzA1MTUyLDE0LjY4MzU3OTEgMTcuMjk2MjY4MiwxNS45ODAzODkzIDE5LjI1MTk2MzYsMTUuNzE2MjYwNSBDMjEuMjA3NjU5LDE1LjQ1MjEzMTggMjIuNjIzOTkxMywxMy43MTc0NTc4IDIyLjQ5MTYxMzIsMTEuNzQ4NDUxOSBDMjIuMzU5MjM1MSw5Ljc3OTQ0NTkzIDIwLjcyMzQ1MDksOC4yNDk5Njg2MyAxOC43NSw4LjI1IFogTTE4Ljc1LDE0LjI1IEMxNy41MDczNTkzLDE0LjI1IDE2LjUsMTMuMjQyNjQwNyAxNi41LDEyIEMxNi41LDEwLjc1NzM1OTMgMTcuNTA3MzU5Myw5Ljc1IDE4Ljc1LDkuNzUgQzE5Ljk5MjY0MDcsOS43NSAyMSwxMC43NTczNTkzIDIxLDEyIEMyMC45OTg2MzYsMTMuMjQyMDc1MiAxOS45OTIwNzUyLDE0LjI0ODYzNiAxOC43NSwxNC4yNSBaIi8+JiN4YTsgICAgICAgICAgICAgICAgICAgIDxyZWN0IGhlaWdodD0iMjQiIHdpZHRoPSIyNCIgeT0iMCIgeD0iMCIgaWQ9Il9UcmFuc3BhcmVudF9SZWN0YW5nbGVfIi8+JiN4YTsgICAgICAgICAgICAgICAgPC9nPiYjeGE7ICAgICAgICAgICAgPC9nPiYjeGE7ICAgICAgICA8L2c+JiN4YTsgICAgPC9nPiYjeGE7PC9zdmc+;fontFamily=IBM Plex Sans;fontSize=14;spacingTop=-7;labelPosition=center;align=center;" parent="6EkFWpLrjTElACthLAa1-1" vertex="1">
            <mxGeometry x="2196" y="490" width="48" height="48" as="geometry" />
          </mxCell>
        </object>
        <object label="VSI 2" release="v2.0.3" generation="2.0" id="HigGXVXa3_k5PrCU9umI-33">
          <mxCell style="shape=image;aspect=fixed;image=data:image/svg+xml,PD94bWwgdmVyc2lvbj0iMS4wIiBlbmNvZGluZz0iVVRGLTgiPz4KPHN2ZyB3aWR0aD0iNDhweCIgaGVpZ2h0PSI0OXB4IiB2aWV3Qm94PSIwIDAgNDggNDkiIHZlcnNpb249IjEuMSIgeG1sbnM9Imh0dHA6Ly93d3cudzMub3JnLzIwMDAvc3ZnIiB4bWxuczp4bGluaz0iaHR0cDovL3d3dy53My5vcmcvMTk5OS94bGluayI+CiAgICA8dGl0bGU+VmlydHVhbCBTZXJ2ZXIgQ2xhc3NpYzwvdGl0bGU+CiAgICA8ZyBpZD0iVjItSWNvbnMiIHN0cm9rZT0ibm9uZSIgc3Ryb2tlLXdpZHRoPSIxIiBmaWxsPSJub25lIiBmaWxsLXJ1bGU9ImV2ZW5vZGQiPgogICAgICAgIDxnIGlkPSJJQk0tLy1DbG91ZC0vLUNvbXB1dGUiIHRyYW5zZm9ybT0idHJhbnNsYXRlKC0xMjUzLCAtNDgpIj4KICAgICAgICAgICAgPGcgaWQ9IlZpcnR1YWwtU2VydmVyLUNsYXNzaWMiIHRyYW5zZm9ybT0idHJhbnNsYXRlKDEyNTMsIDQ4LjM0MjEpIj4KICAgICAgICAgICAgICAgIDxwb2x5Z29uIGlkPSJSZWN0YW5nbGUiIGZpbGw9IiMxOTgwMzgiIHBvaW50cz0iMCA0OCA0OCA0OCA0OCAwIDAgMCI+PC9wb2x5Z29uPgogICAgICAgICAgICAgICAgPGcgaWQ9ImlibS1jbG91ZC0tdmlydHVhbC1zZXJ2ZXItdnBjIiB0cmFuc2Zvcm09InRyYW5zbGF0ZSgxMS45OTU4LCAxMS42NTc5KSI+CiAgICAgICAgICAgICAgICAgICAgPGNpcmNsZSBpZD0iT3ZhbCIgZmlsbD0iI0ZGRkZGRiIgZmlsbC1ydWxlPSJub256ZXJvIiBjeD0iNiIgY3k9IjE5LjUiIHI9IjEiPjwvY2lyY2xlPgogICAgICAgICAgICAgICAgICAgIDxwYXRoIGQ9Ik0zLjc1LDIyLjUgTDIwLjI1LDIyLjUgQzIxLjA3NSwyMi41IDIxLjc1LDIxLjgyNSAyMS43NSwyMSBMMjEuNzUsMTggQzIxLjc1LDE3LjE3NSAyMS4wNzUsMTYuNSAyMC4yNSwxNi41IEwzLjc1LDE2LjUgQzIuOTI1LDE2LjUgMi4yNSwxNy4xNzUgMi4yNSwxOCBMMi4yNSwyMSBDMi4yNSwyMS44MjUgMi45MjUsMjIuNSAzLjc1LDIyLjUgWiBNMy43NSwxOCBMMjAuMjUsMTggTDIwLjI1LDIxIEwzLjc1LDIxIEwzLjc1LDE4IFoiIGlkPSJTaGFwZSIgZmlsbD0iI0ZGRkZGRiIgZmlsbC1ydWxlPSJub256ZXJvIj48L3BhdGg+CiAgICAgICAgICAgICAgICAgICAgPHBhdGggZD0iTTE3LjI1LDE1IEw2Ljc1LDE1IEM0LjI2NzUsMTUgMi4yNSwxMi45ODI1IDIuMjUsMTAuNSBDMi4yNSw4LjIxMjUgMy45Njc1LDYuMzE1IDYuMTg3NSw2LjAzNzUgQzYuODQ3NSwzLjQxMjUgOS4yNDc1LDEuNSAxMiwxLjUgQzE0Ljc1MjUsMS41IDE3LjE1MjUsMy40MTI1IDE3LjgxMjUsNi4wMzc1IEMyMC4wMzI1LDYuMzE1IDIxLjc1LDguMjEyNSAyMS43NSwxMC41IEMyMS43NSwxMi45ODI1IDE5LjczMjUsMTUgMTcuMjUsMTUgWiBNNi43MTI1LDcuNSBDNS4wNzc1LDcuNTIyNSAzLjc1LDguODU3NSAzLjc1LDEwLjUgQzMuNzUsMTIuMTU3NSA1LjA5MjUsMTMuNSA2Ljc1LDEzLjUgTDE3LjI1LDEzLjUgQzE4LjkwNzUsMTMuNSAyMC4yNSwxMi4xNTc1IDIwLjI1LDEwLjUgQzIwLjI1LDguODU3NSAxOC45Myw3LjUyMjUgMTcuMjk1LDcuNSBMMTcuMjA1LDcuNTA3NSBMMTYuNTQ1LDcuNTIyNSBMMTYuNDU1LDYuODYyNSBDMTYuMTMyNSw0LjY1NzUgMTQuMjIsMyAxMiwzIEM5Ljc4LDMgNy44Njc1LDQuNjU3NSA3LjU1MjUsNi44NjI1IEw3LjQ2MjUsNy41MjI1IEw2LjcxMjUsNy41IFoiIGlkPSJTaGFwZSIgZmlsbD0iI0ZGRkZGRiIgZmlsbC1ydWxlPSJub256ZXJvIj48L3BhdGg+CiAgICAgICAgICAgICAgICAgICAgPHJlY3QgaWQ9IlJlY3RhbmdsZSIgeD0iMCIgeT0iMCIgd2lkdGg9IjI0IiBoZWlnaHQ9IjI0Ij48L3JlY3Q+CiAgICAgICAgICAgICAgICA8L2c+CiAgICAgICAgICAgIDwvZz4KICAgICAgICA8L2c+CiAgICA8L2c+Cjwvc3ZnPg==;fontFamily=IBM Plex Sans;fontSize=14;labelPosition=center;verticalLabelPosition=bottom;align=center;verticalAlign=top;spacingTop=-6;flipV=0;" parent="6EkFWpLrjTElACthLAa1-1" vertex="1">
            <mxGeometry x="2066" y="490" width="48" height="48" as="geometry" />
          </mxCell>
        </object>
        <object label="VSI 1" release="v2.0.3" generation="2.0" id="HigGXVXa3_k5PrCU9umI-34">
          <mxCell style="shape=image;aspect=fixed;image=data:image/svg+xml,PD94bWwgdmVyc2lvbj0iMS4wIiBlbmNvZGluZz0iVVRGLTgiPz4KPHN2ZyB3aWR0aD0iNDhweCIgaGVpZ2h0PSI0OXB4IiB2aWV3Qm94PSIwIDAgNDggNDkiIHZlcnNpb249IjEuMSIgeG1sbnM9Imh0dHA6Ly93d3cudzMub3JnLzIwMDAvc3ZnIiB4bWxuczp4bGluaz0iaHR0cDovL3d3dy53My5vcmcvMTk5OS94bGluayI+CiAgICA8dGl0bGU+VmlydHVhbCBTZXJ2ZXIgQ2xhc3NpYzwvdGl0bGU+CiAgICA8ZyBpZD0iVjItSWNvbnMiIHN0cm9rZT0ibm9uZSIgc3Ryb2tlLXdpZHRoPSIxIiBmaWxsPSJub25lIiBmaWxsLXJ1bGU9ImV2ZW5vZGQiPgogICAgICAgIDxnIGlkPSJJQk0tLy1DbG91ZC0vLUNvbXB1dGUiIHRyYW5zZm9ybT0idHJhbnNsYXRlKC0xMjUzLCAtNDgpIj4KICAgICAgICAgICAgPGcgaWQ9IlZpcnR1YWwtU2VydmVyLUNsYXNzaWMiIHRyYW5zZm9ybT0idHJhbnNsYXRlKDEyNTMsIDQ4LjM0MjEpIj4KICAgICAgICAgICAgICAgIDxwb2x5Z29uIGlkPSJSZWN0YW5nbGUiIGZpbGw9IiMxOTgwMzgiIHBvaW50cz0iMCA0OCA0OCA0OCA0OCAwIDAgMCI+PC9wb2x5Z29uPgogICAgICAgICAgICAgICAgPGcgaWQ9ImlibS1jbG91ZC0tdmlydHVhbC1zZXJ2ZXItdnBjIiB0cmFuc2Zvcm09InRyYW5zbGF0ZSgxMS45OTU4LCAxMS42NTc5KSI+CiAgICAgICAgICAgICAgICAgICAgPGNpcmNsZSBpZD0iT3ZhbCIgZmlsbD0iI0ZGRkZGRiIgZmlsbC1ydWxlPSJub256ZXJvIiBjeD0iNiIgY3k9IjE5LjUiIHI9IjEiPjwvY2lyY2xlPgogICAgICAgICAgICAgICAgICAgIDxwYXRoIGQ9Ik0zLjc1LDIyLjUgTDIwLjI1LDIyLjUgQzIxLjA3NSwyMi41IDIxLjc1LDIxLjgyNSAyMS43NSwyMSBMMjEuNzUsMTggQzIxLjc1LDE3LjE3NSAyMS4wNzUsMTYuNSAyMC4yNSwxNi41IEwzLjc1LDE2LjUgQzIuOTI1LDE2LjUgMi4yNSwxNy4xNzUgMi4yNSwxOCBMMi4yNSwyMSBDMi4yNSwyMS44MjUgMi45MjUsMjIuNSAzLjc1LDIyLjUgWiBNMy43NSwxOCBMMjAuMjUsMTggTDIwLjI1LDIxIEwzLjc1LDIxIEwzLjc1LDE4IFoiIGlkPSJTaGFwZSIgZmlsbD0iI0ZGRkZGRiIgZmlsbC1ydWxlPSJub256ZXJvIj48L3BhdGg+CiAgICAgICAgICAgICAgICAgICAgPHBhdGggZD0iTTE3LjI1LDE1IEw2Ljc1LDE1IEM0LjI2NzUsMTUgMi4yNSwxMi45ODI1IDIuMjUsMTAuNSBDMi4yNSw4LjIxMjUgMy45Njc1LDYuMzE1IDYuMTg3NSw2LjAzNzUgQzYuODQ3NSwzLjQxMjUgOS4yNDc1LDEuNSAxMiwxLjUgQzE0Ljc1MjUsMS41IDE3LjE1MjUsMy40MTI1IDE3LjgxMjUsNi4wMzc1IEMyMC4wMzI1LDYuMzE1IDIxLjc1LDguMjEyNSAyMS43NSwxMC41IEMyMS43NSwxMi45ODI1IDE5LjczMjUsMTUgMTcuMjUsMTUgWiBNNi43MTI1LDcuNSBDNS4wNzc1LDcuNTIyNSAzLjc1LDguODU3NSAzLjc1LDEwLjUgQzMuNzUsMTIuMTU3NSA1LjA5MjUsMTMuNSA2Ljc1LDEzLjUgTDE3LjI1LDEzLjUgQzE4LjkwNzUsMTMuNSAyMC4yNSwxMi4xNTc1IDIwLjI1LDEwLjUgQzIwLjI1LDguODU3NSAxOC45Myw3LjUyMjUgMTcuMjk1LDcuNSBMMTcuMjA1LDcuNTA3NSBMMTYuNTQ1LDcuNTIyNSBMMTYuNDU1LDYuODYyNSBDMTYuMTMyNSw0LjY1NzUgMTQuMjIsMyAxMiwzIEM5Ljc4LDMgNy44Njc1LDQuNjU3NSA3LjU1MjUsNi44NjI1IEw3LjQ2MjUsNy41MjI1IEw2LjcxMjUsNy41IFoiIGlkPSJTaGFwZSIgZmlsbD0iI0ZGRkZGRiIgZmlsbC1ydWxlPSJub256ZXJvIj48L3BhdGg+CiAgICAgICAgICAgICAgICAgICAgPHJlY3QgaWQ9IlJlY3RhbmdsZSIgeD0iMCIgeT0iMCIgd2lkdGg9IjI0IiBoZWlnaHQ9IjI0Ij48L3JlY3Q+CiAgICAgICAgICAgICAgICA8L2c+CiAgICAgICAgICAgIDwvZz4KICAgICAgICA8L2c+CiAgICA8L2c+Cjwvc3ZnPg==;fontFamily=IBM Plex Sans;fontSize=14;labelPosition=center;verticalLabelPosition=bottom;align=center;verticalAlign=top;spacingTop=-6;flipV=0;" parent="6EkFWpLrjTElACthLAa1-1" vertex="1">
            <mxGeometry x="1956" y="490" width="48" height="48" as="geometry" />
          </mxCell>
        </object>
        <object label="VSI 4" release="v2.0.3" generation="2.0" id="HigGXVXa3_k5PrCU9umI-29">
          <mxCell style="shape=image;aspect=fixed;image=data:image/svg+xml,PD94bWwgdmVyc2lvbj0iMS4wIiBlbmNvZGluZz0iVVRGLTgiPz4KPHN2ZyB3aWR0aD0iNDhweCIgaGVpZ2h0PSI0OXB4IiB2aWV3Qm94PSIwIDAgNDggNDkiIHZlcnNpb249IjEuMSIgeG1sbnM9Imh0dHA6Ly93d3cudzMub3JnLzIwMDAvc3ZnIiB4bWxuczp4bGluaz0iaHR0cDovL3d3dy53My5vcmcvMTk5OS94bGluayI+CiAgICA8dGl0bGU+VmlydHVhbCBTZXJ2ZXIgQ2xhc3NpYzwvdGl0bGU+CiAgICA8ZyBpZD0iVjItSWNvbnMiIHN0cm9rZT0ibm9uZSIgc3Ryb2tlLXdpZHRoPSIxIiBmaWxsPSJub25lIiBmaWxsLXJ1bGU9ImV2ZW5vZGQiPgogICAgICAgIDxnIGlkPSJJQk0tLy1DbG91ZC0vLUNvbXB1dGUiIHRyYW5zZm9ybT0idHJhbnNsYXRlKC0xMjUzLCAtNDgpIj4KICAgICAgICAgICAgPGcgaWQ9IlZpcnR1YWwtU2VydmVyLUNsYXNzaWMiIHRyYW5zZm9ybT0idHJhbnNsYXRlKDEyNTMsIDQ4LjM0MjEpIj4KICAgICAgICAgICAgICAgIDxwb2x5Z29uIGlkPSJSZWN0YW5nbGUiIGZpbGw9IiMxOTgwMzgiIHBvaW50cz0iMCA0OCA0OCA0OCA0OCAwIDAgMCI+PC9wb2x5Z29uPgogICAgICAgICAgICAgICAgPGcgaWQ9ImlibS1jbG91ZC0tdmlydHVhbC1zZXJ2ZXItdnBjIiB0cmFuc2Zvcm09InRyYW5zbGF0ZSgxMS45OTU4LCAxMS42NTc5KSI+CiAgICAgICAgICAgICAgICAgICAgPGNpcmNsZSBpZD0iT3ZhbCIgZmlsbD0iI0ZGRkZGRiIgZmlsbC1ydWxlPSJub256ZXJvIiBjeD0iNiIgY3k9IjE5LjUiIHI9IjEiPjwvY2lyY2xlPgogICAgICAgICAgICAgICAgICAgIDxwYXRoIGQ9Ik0zLjc1LDIyLjUgTDIwLjI1LDIyLjUgQzIxLjA3NSwyMi41IDIxLjc1LDIxLjgyNSAyMS43NSwyMSBMMjEuNzUsMTggQzIxLjc1LDE3LjE3NSAyMS4wNzUsMTYuNSAyMC4yNSwxNi41IEwzLjc1LDE2LjUgQzIuOTI1LDE2LjUgMi4yNSwxNy4xNzUgMi4yNSwxOCBMMi4yNSwyMSBDMi4yNSwyMS44MjUgMi45MjUsMjIuNSAzLjc1LDIyLjUgWiBNMy43NSwxOCBMMjAuMjUsMTggTDIwLjI1LDIxIEwzLjc1LDIxIEwzLjc1LDE4IFoiIGlkPSJTaGFwZSIgZmlsbD0iI0ZGRkZGRiIgZmlsbC1ydWxlPSJub256ZXJvIj48L3BhdGg+CiAgICAgICAgICAgICAgICAgICAgPHBhdGggZD0iTTE3LjI1LDE1IEw2Ljc1LDE1IEM0LjI2NzUsMTUgMi4yNSwxMi45ODI1IDIuMjUsMTAuNSBDMi4yNSw4LjIxMjUgMy45Njc1LDYuMzE1IDYuMTg3NSw2LjAzNzUgQzYuODQ3NSwzLjQxMjUgOS4yNDc1LDEuNSAxMiwxLjUgQzE0Ljc1MjUsMS41IDE3LjE1MjUsMy40MTI1IDE3LjgxMjUsNi4wMzc1IEMyMC4wMzI1LDYuMzE1IDIxLjc1LDguMjEyNSAyMS43NSwxMC41IEMyMS43NSwxMi45ODI1IDE5LjczMjUsMTUgMTcuMjUsMTUgWiBNNi43MTI1LDcuNSBDNS4wNzc1LDcuNTIyNSAzLjc1LDguODU3NSAzLjc1LDEwLjUgQzMuNzUsMTIuMTU3NSA1LjA5MjUsMTMuNSA2Ljc1LDEzLjUgTDE3LjI1LDEzLjUgQzE4LjkwNzUsMTMuNSAyMC4yNSwxMi4xNTc1IDIwLjI1LDEwLjUgQzIwLjI1LDguODU3NSAxOC45Myw3LjUyMjUgMTcuMjk1LDcuNSBMMTcuMjA1LDcuNTA3NSBMMTYuNTQ1LDcuNTIyNSBMMTYuNDU1LDYuODYyNSBDMTYuMTMyNSw0LjY1NzUgMTQuMjIsMyAxMiwzIEM5Ljc4LDMgNy44Njc1LDQuNjU3NSA3LjU1MjUsNi44NjI1IEw3LjQ2MjUsNy41MjI1IEw2LjcxMjUsNy41IFoiIGlkPSJTaGFwZSIgZmlsbD0iI0ZGRkZGRiIgZmlsbC1ydWxlPSJub256ZXJvIj48L3BhdGg+CiAgICAgICAgICAgICAgICAgICAgPHJlY3QgaWQ9IlJlY3RhbmdsZSIgeD0iMCIgeT0iMCIgd2lkdGg9IjI0IiBoZWlnaHQ9IjI0Ij48L3JlY3Q+CiAgICAgICAgICAgICAgICA8L2c+CiAgICAgICAgICAgIDwvZz4KICAgICAgICA8L2c+CiAgICA8L2c+Cjwvc3ZnPg==;fontFamily=IBM Plex Sans;fontSize=14;labelPosition=center;verticalLabelPosition=bottom;align=center;verticalAlign=top;spacingTop=-6;flipV=0;" parent="6EkFWpLrjTElACthLAa1-1" vertex="1">
            <mxGeometry x="2066" y="710" width="48" height="48" as="geometry" />
          </mxCell>
        </object>
        <object label="VSI 3" release="v2.0.3" generation="2.0" id="HigGXVXa3_k5PrCU9umI-28">
          <mxCell style="shape=image;aspect=fixed;image=data:image/svg+xml,PD94bWwgdmVyc2lvbj0iMS4wIiBlbmNvZGluZz0iVVRGLTgiPz4KPHN2ZyB3aWR0aD0iNDhweCIgaGVpZ2h0PSI0OXB4IiB2aWV3Qm94PSIwIDAgNDggNDkiIHZlcnNpb249IjEuMSIgeG1sbnM9Imh0dHA6Ly93d3cudzMub3JnLzIwMDAvc3ZnIiB4bWxuczp4bGluaz0iaHR0cDovL3d3dy53My5vcmcvMTk5OS94bGluayI+CiAgICA8dGl0bGU+VmlydHVhbCBTZXJ2ZXIgQ2xhc3NpYzwvdGl0bGU+CiAgICA8ZyBpZD0iVjItSWNvbnMiIHN0cm9rZT0ibm9uZSIgc3Ryb2tlLXdpZHRoPSIxIiBmaWxsPSJub25lIiBmaWxsLXJ1bGU9ImV2ZW5vZGQiPgogICAgICAgIDxnIGlkPSJJQk0tLy1DbG91ZC0vLUNvbXB1dGUiIHRyYW5zZm9ybT0idHJhbnNsYXRlKC0xMjUzLCAtNDgpIj4KICAgICAgICAgICAgPGcgaWQ9IlZpcnR1YWwtU2VydmVyLUNsYXNzaWMiIHRyYW5zZm9ybT0idHJhbnNsYXRlKDEyNTMsIDQ4LjM0MjEpIj4KICAgICAgICAgICAgICAgIDxwb2x5Z29uIGlkPSJSZWN0YW5nbGUiIGZpbGw9IiMxOTgwMzgiIHBvaW50cz0iMCA0OCA0OCA0OCA0OCAwIDAgMCI+PC9wb2x5Z29uPgogICAgICAgICAgICAgICAgPGcgaWQ9ImlibS1jbG91ZC0tdmlydHVhbC1zZXJ2ZXItdnBjIiB0cmFuc2Zvcm09InRyYW5zbGF0ZSgxMS45OTU4LCAxMS42NTc5KSI+CiAgICAgICAgICAgICAgICAgICAgPGNpcmNsZSBpZD0iT3ZhbCIgZmlsbD0iI0ZGRkZGRiIgZmlsbC1ydWxlPSJub256ZXJvIiBjeD0iNiIgY3k9IjE5LjUiIHI9IjEiPjwvY2lyY2xlPgogICAgICAgICAgICAgICAgICAgIDxwYXRoIGQ9Ik0zLjc1LDIyLjUgTDIwLjI1LDIyLjUgQzIxLjA3NSwyMi41IDIxLjc1LDIxLjgyNSAyMS43NSwyMSBMMjEuNzUsMTggQzIxLjc1LDE3LjE3NSAyMS4wNzUsMTYuNSAyMC4yNSwxNi41IEwzLjc1LDE2LjUgQzIuOTI1LDE2LjUgMi4yNSwxNy4xNzUgMi4yNSwxOCBMMi4yNSwyMSBDMi4yNSwyMS44MjUgMi45MjUsMjIuNSAzLjc1LDIyLjUgWiBNMy43NSwxOCBMMjAuMjUsMTggTDIwLjI1LDIxIEwzLjc1LDIxIEwzLjc1LDE4IFoiIGlkPSJTaGFwZSIgZmlsbD0iI0ZGRkZGRiIgZmlsbC1ydWxlPSJub256ZXJvIj48L3BhdGg+CiAgICAgICAgICAgICAgICAgICAgPHBhdGggZD0iTTE3LjI1LDE1IEw2Ljc1LDE1IEM0LjI2NzUsMTUgMi4yNSwxMi45ODI1IDIuMjUsMTAuNSBDMi4yNSw4LjIxMjUgMy45Njc1LDYuMzE1IDYuMTg3NSw2LjAzNzUgQzYuODQ3NSwzLjQxMjUgOS4yNDc1LDEuNSAxMiwxLjUgQzE0Ljc1MjUsMS41IDE3LjE1MjUsMy40MTI1IDE3LjgxMjUsNi4wMzc1IEMyMC4wMzI1LDYuMzE1IDIxLjc1LDguMjEyNSAyMS43NSwxMC41IEMyMS43NSwxMi45ODI1IDE5LjczMjUsMTUgMTcuMjUsMTUgWiBNNi43MTI1LDcuNSBDNS4wNzc1LDcuNTIyNSAzLjc1LDguODU3NSAzLjc1LDEwLjUgQzMuNzUsMTIuMTU3NSA1LjA5MjUsMTMuNSA2Ljc1LDEzLjUgTDE3LjI1LDEzLjUgQzE4LjkwNzUsMTMuNSAyMC4yNSwxMi4xNTc1IDIwLjI1LDEwLjUgQzIwLjI1LDguODU3NSAxOC45Myw3LjUyMjUgMTcuMjk1LDcuNSBMMTcuMjA1LDcuNTA3NSBMMTYuNTQ1LDcuNTIyNSBMMTYuNDU1LDYuODYyNSBDMTYuMTMyNSw0LjY1NzUgMTQuMjIsMyAxMiwzIEM5Ljc4LDMgNy44Njc1LDQuNjU3NSA3LjU1MjUsNi44NjI1IEw3LjQ2MjUsNy41MjI1IEw2LjcxMjUsNy41IFoiIGlkPSJTaGFwZSIgZmlsbD0iI0ZGRkZGRiIgZmlsbC1ydWxlPSJub256ZXJvIj48L3BhdGg+CiAgICAgICAgICAgICAgICAgICAgPHJlY3QgaWQ9IlJlY3RhbmdsZSIgeD0iMCIgeT0iMCIgd2lkdGg9IjI0IiBoZWlnaHQ9IjI0Ij48L3JlY3Q+CiAgICAgICAgICAgICAgICA8L2c+CiAgICAgICAgICAgIDwvZz4KICAgICAgICA8L2c+CiAgICA8L2c+Cjwvc3ZnPg==;fontFamily=IBM Plex Sans;fontSize=14;labelPosition=center;verticalLabelPosition=bottom;align=center;verticalAlign=top;spacingTop=-6;flipV=0;" parent="6EkFWpLrjTElACthLAa1-1" vertex="1">
            <mxGeometry x="1956" y="710" width="48" height="48" as="geometry" />
          </mxCell>
        </object>
        <object label="Public&#xa;Gateway" release="v2.0.3" generation="2.0" id="HigGXVXa3_k5PrCU9umI-30">
          <mxCell style="shape=image;verticalLabelPosition=bottom;verticalAlign=top;imageAspect=0;aspect=fixed;image=data:image/svg+xml,PHN2ZyB4bWxuczp4bGluaz0iaHR0cDovL3d3dy53My5vcmcvMTk5OS94bGluayIgeG1sbnM9Imh0dHA6Ly93d3cudzMub3JnLzIwMDAvc3ZnIiB2ZXJzaW9uPSIxLjEiIHZpZXdCb3g9IjAgMCA0OCA0OCIgaGVpZ2h0PSI0OHB4IiB3aWR0aD0iNDhweCI+JiN4YTsgICAgPHRpdGxlPmdhdGV3YXktLXB1YmxpYzwvdGl0bGU+JiN4YTsgICAgPGcgZmlsbC1ydWxlPSJldmVub2RkIiBmaWxsPSJub25lIiBzdHJva2Utd2lkdGg9IjEiIHN0cm9rZT0ibm9uZSIgaWQ9IlYyLUljb25zIj4mI3hhOyAgICAgICAgPGcgdHJhbnNmb3JtPSJ0cmFuc2xhdGUoLTYzNywgLTg2KSIgaWQ9IklCTS9DbG91ZC9OZXR3b3JrIj4mI3hhOyAgICAgICAgICAgIDxnIHRyYW5zZm9ybT0idHJhbnNsYXRlKDYzNywgODYpIiBpZD0iZ2F0ZXdheS0tcHVibGljIj4mI3hhOyAgICAgICAgICAgICAgICA8cmVjdCBoZWlnaHQ9IjQ4IiB3aWR0aD0iNDgiIHk9IjAiIHg9IjAiIGZpbGw9IiMxMTkyRTgiIGlkPSJSZWN0YW5nbGUtQ29weS0xOSIvPiYjeGE7ICAgICAgICAgICAgICAgIDxnIHRyYW5zZm9ybT0idHJhbnNsYXRlKDEyLCAxMikiPiYjeGE7ICAgICAgICAgICAgICAgICAgICA8cGF0aCBmaWxsLXJ1bGU9Im5vbnplcm8iIGZpbGw9IiNGRkZGRkYiIGlkPSJTaGFwZSIgZD0iTTE0LjI1LDEwLjUgTDEwLjUsMTAuNSBMMTAuNSw5IEMxMC41LDguMTcxNTcyODggMTEuMTcxNTcyOSw3LjUgMTIsNy41IEMxMi44Mjg0MjcxLDcuNSAxMy41LDguMTcxNTcyODggMTMuNSw5IEwxNSw5IEMxNSw3LjM0MzE0NTc1IDEzLjY1Njg1NDIsNiAxMiw2IEMxMC4zNDMxNDU4LDYgOSw3LjM0MzE0NTc1IDksOSBMOSwxMC43MDg3MjUgQzguNTM3NDk0NywxMC45NzQ0ODI5IDguMjUxNjczNTIsMTEuNDY2NTgxMiA4LjI1LDEyIEw4LjI1LDE1Ljc1IEM4LjI1MDk1MDYsMTYuNTc4MDMzMSA4LjkyMTk2Njk1LDE3LjI0OTA0OTQgOS43NSwxNy4yNSBMMTQuMjUsMTcuMjUgQzE1LjA3ODAzMzEsMTcuMjQ5MDQ5NCAxNS43NDkwNDk0LDE2LjU3ODAzMzEgMTUuNzUsMTUuNzUgTDE1Ljc1LDEyIEMxNS43NDkwNDk0LDExLjE3MTk2NjkgMTUuMDc4MDMzMSwxMC41MDA5NTA2IDE0LjI1LDEwLjUgWiBNMTQuMjUsMTUuNzUgTDkuNzUsMTUuNzUgTDkuNzUsMTIgTDE0LjI1LDEyIEwxNC4yNSwxNS43NSBaIi8+JiN4YTsgICAgICAgICAgICAgICAgICAgIDxwYXRoIGZpbGwtcnVsZT0ibm9uemVybyIgZmlsbD0iI0ZGRkZGRiIgaWQ9IlNoYXBlIiBkPSJNMjIuODEwNTc1LDEzLjA2MDU3NSBDMjMuMDkxOTE5NCwxMi43NzkzMjYxIDIzLjI0OTk4NSwxMi4zOTc4MTM1IDIzLjI0OTk4NSwxMiBDMjMuMjQ5OTg1LDExLjYwMjE4NjUgMjMuMDkxOTE5NCwxMS4yMjA2NzM5IDIyLjgxMDU3NSwxMC45Mzk0MjUgTDE4LjQ3MDQsNi41OTk0NzUgTDIwLjY0NTg1LDQuNDUyMzc1IEMyMS4zMDU1MTE4LDQuNjE1ODM5NDggMjEuOTkyNzEzOSw0LjMxNTc5MDM4IDIyLjMyMTI0MTQsMy43MjA4NTg0MSBDMjIuNjQ5NzY5LDMuMTI1OTI2NDUgMjIuNTM3NjgwMSwyLjM4NDUwMDY2IDIyLjA0Nzk2OTgsMS45MTMyNzAwNiBDMjEuNTU4MjU5NiwxLjQ0MjAzOTQ2IDIwLjgxMzA3MjUsMS4zNTg1MzkyNiAyMC4yMzEyMTE0LDEuNzA5Njk3NDQgQzE5LjY0OTM1MDMsMi4wNjA4NTU2MiAxOS4zNzU5NDQyLDIuNzU5MDg1NjYgMTkuNTY0NjUsMy40MTE5NzUgTDE3LjQwOTY3NSw1LjUzODYgTDEzLjA2MDU3NSwxLjE4OTQyNSBDMTIuNzc5MzI2MSwwLjkwODA4MDYzMyAxMi4zOTc4MTM1LDAuNzUwMDE0OTgzIDEyLDAuNzUwMDE0OTgzIEMxMS42MDIxODY1LDAuNzUwMDE0OTgzIDExLjIyMDY3MzksMC45MDgwODA2MzMgMTAuOTM5NDI1LDEuMTg5NDI1IEw2LjU5OTQ3NSw1LjUyOTQ1IEw0LjQ1MjYsMy4zNTM3NzUgQzQuNjE1OTcxODYsMi42OTM5OTg2MiA0LjMxNTc1MDI2LDIuMDA2NzYwNjIgMy43MjA2NzEzNCwxLjY3ODMxNTMxIEMzLjEyNTU5MjQzLDEuMzQ5ODcgMi4zODQwOTE1MiwxLjQ2MjE0NDEzIDEuOTEyOTIwNzgsMS45NTIwMzUzMiBDMS40NDE3NTAwNCwyLjQ0MTkyNjUgMS4zNTg0MzczNywzLjE4NzIzNzIyIDEuNzA5ODA3NzIsMy43NjkwNzQwNyBDMi4wNjExNzgwNyw0LjM1MDkxMDkyIDIuNzU5NTg2Myw0LjYyNDE0MTYzIDMuNDEyNSw0LjQzNTIgTDUuNTM4NzUsNi41OTAzMjUgTDEuMTg5NDI1LDEwLjkzOTQyNSBDMC45MDgwODA2MzMsMTEuMjIwNjczOSAwLjc1MDAxNDk4MywxMS42MDIxODY1IDAuNzUwMDE0OTgzLDEyIEMwLjc1MDAxNDk4MywxMi4zOTc4MTM1IDAuOTA4MDgwNjMzLDEyLjc3OTMyNjEgMS4xODk0MjUsMTMuMDYwNTc1IEw1LjUzODYsMTcuNDA5Njc1IEwzLjQxMjUsMTkuNTY0OCBDMi43NjEwNzcwNiwxOS4zNzcyNDU0IDIuMDY0ODc5MzYsMTkuNjUwNDQxNCAxLjcxNDg2MjE2LDIwLjIzMDk3MjYgQzEuMzY0ODQ0OTUsMjAuODExNTAzOSAxLjQ0ODIxOTMzLDIxLjU1NDcyMzkgMS45MTgxNjU3NywyMi4wNDMyNzE3IEMyLjM4ODExMjIxLDIyLjUzMTgxOTUgMy4xMjc1Mzc3NSwyMi42NDM5NjczIDMuNzIxMjEyMjMsMjIuMzE2NzM3NyBDNC4zMTQ4ODY3MSwyMS45ODk1MDgxIDQuNjE0ODg4OCwyMS4zMDQ0MzQ0IDQuNDUyNzUsMjAuNjQ2MjI1IEw2LjU5OTYyNSwxOC40NzA1NSBMMTAuOTM5NTc1LDIyLjgxMDU3NSBDMTEuMjIwODIzOSwyMy4wOTE5MTk0IDExLjYwMjMzNjUsMjMuMjQ5OTg1IDEyLjAwMDE1LDIzLjI0OTk4NSBDMTIuMzk3OTYzNSwyMy4yNDk5ODUgMTIuNzc5NDc2MSwyMy4wOTE5MTk0IDEzLjA2MDcyNSwyMi44MTA1NzUgTDE3LjQwOTgyNSwxOC40NjE0IEwxOS41NjQ4LDIwLjU4ODAyNSBDMTkuMzc3MjUyMywyMS4yMzk1ODc1IDE5LjY1MDU2OTEsMjEuOTM1OTAwNiAyMC4yMzEyNTYxLDIyLjI4NTkxNTYgQzIwLjgxMTk0MzEsMjIuNjM1OTMwNiAyMS41NTUzMDEyLDIyLjU1MjQyODggMjIuMDQzODYxNiwyMi4wODIzMDQ3IEMyMi41MzI0MjE5LDIxLjYxMjE4MDYgMjIuNjQ0NDQyMSwyMC44NzI1ODI0IDIyLjMxNzAxMTgsMjAuMjc4ODY3NyBDMjEuOTg5NTgxNCwxOS42ODUxNTI5IDIxLjMwNDI5MTUsMTkuMzg1MjY2OCAyMC42NDYsMTkuNTQ3NjI1IEwxOC40NzA1NSwxNy40MDA1MjUgTDIyLjgxMDU3NSwxMy4wNjA1NzUgWiBNMTIsMjEuNzUgTDIuMjUsMTIgTDEyLDIuMjUgTDIxLjc1LDEyIEwxMiwyMS43NSBaIi8+JiN4YTsgICAgICAgICAgICAgICAgICAgIDxyZWN0IGhlaWdodD0iMjQiIHdpZHRoPSIyNCIgeT0iMCIgeD0iMCIgaWQ9Il9UcmFuc3BhcmVudF9SZWN0YW5nbGVfIi8+JiN4YTsgICAgICAgICAgICAgICAgPC9nPiYjeGE7ICAgICAgICAgICAgPC9nPiYjeGE7ICAgICAgICA8L2c+JiN4YTsgICAgPC9nPiYjeGE7PC9zdmc+;fontFamily=IBM Plex Sans;fontSize=14;spacingTop=-7;labelPosition=center;align=center;" parent="6EkFWpLrjTElACthLAa1-1" vertex="1">
            <mxGeometry x="2196" y="696" width="48" height="48" as="geometry" />
          </mxCell>
        </object>
        <mxCell id="iYnpUvTsRK1yRuX2WcdL-0" value="Connectors" parent="6EkFWpLrjTElACthLAa1-0" />
        <mxCell id="_7V3AvlrsMas7PXJ1S_N-5" style="edgeStyle=orthogonalEdgeStyle;rounded=0;orthogonalLoop=1;jettySize=auto;html=1;exitX=1;exitY=0.5;exitDx=0;exitDy=0;endArrow=block;endFill=1;strokeWidth=2;startArrow=oval;startFill=1;" parent="iYnpUvTsRK1yRuX2WcdL-0" source="HigGXVXa3_k5PrCU9umI-32" target="HigGXVXa3_k5PrCU9umI-31" edge="1">
          <mxGeometry relative="1" as="geometry" />
        </mxCell>
        <mxCell id="_7V3AvlrsMas7PXJ1S_N-3" style="edgeStyle=orthogonalEdgeStyle;rounded=0;orthogonalLoop=1;jettySize=auto;html=1;exitX=1;exitY=0.5;exitDx=0;exitDy=0;entryX=0;entryY=0.5;entryDx=0;entryDy=0;startArrow=oval;startFill=1;endArrow=oval;endFill=1;strokeWidth=2;" parent="iYnpUvTsRK1yRuX2WcdL-0" source="HigGXVXa3_k5PrCU9umI-33" target="HigGXVXa3_k5PrCU9umI-32" edge="1">
          <mxGeometry relative="1" as="geometry" />
        </mxCell>
        <mxCell id="_7V3AvlrsMas7PXJ1S_N-6" style="edgeStyle=orthogonalEdgeStyle;rounded=0;orthogonalLoop=1;jettySize=auto;html=1;exitX=1;exitY=0.5;exitDx=0;exitDy=0;entryX=0.5;entryY=1;entryDx=0;entryDy=0;strokeWidth=2;endArrow=block;endFill=1;startArrow=oval;startFill=1;" parent="iYnpUvTsRK1yRuX2WcdL-0" source="HigGXVXa3_k5PrCU9umI-30" target="HigGXVXa3_k5PrCU9umI-31" edge="1">
          <mxGeometry relative="1" as="geometry" />
        </mxCell>
      </root>
    </mxGraphModel>
  </diagram>
  <diagram name="Interconnecting VPCs Example" id="1hy5g2MCulr0KYysmXS4">
    <mxGraphModel dx="1242" dy="-308" grid="1" gridSize="10" guides="1" tooltips="1" connect="1" arrows="1" fold="1" page="1" pageScale="1" pageWidth="850" pageHeight="1100" math="0" shadow="0">
      <root>
        <mxCell id="oL_wjMoZXA4-4voO2rJ6-0" />
        <mxCell id="oL_wjMoZXA4-4voO2rJ6-1" parent="oL_wjMoZXA4-4voO2rJ6-0" />
        <mxCell id="snGLk7mVCXV_w4UDnkFq-116" value="" style="rounded=0;whiteSpace=wrap;html=1;fontFamily=IBM Plex Sans;fontSize=14;spacingBottom=-28;spacingTop=0;labelPosition=-100;verticalLabelPosition=top;align=center;verticalAlign=bottom;spacingLeft=9;spacing=0;expand=0;recursiveResize=0;spacingRight=0;container=1;collapsible=0;strokeColor=#1192E8;fillColor=default;" parent="oL_wjMoZXA4-4voO2rJ6-1" vertex="1">
          <mxGeometry x="65" y="1319" width="750" height="560" as="geometry">
            <mxRectangle width="670" as="alternateBounds" />
          </mxGeometry>
        </mxCell>
        <mxCell id="snGLk7mVCXV_w4UDnkFq-117" value="" style="rounded=0;whiteSpace=wrap;html=1;strokeColor=#1192E8;fillColor=#1192E8;fontFamily=IBM Plex Sans;" parent="snGLk7mVCXV_w4UDnkFq-116" vertex="1">
          <mxGeometry width="4" height="48" as="geometry" />
        </mxCell>
        <mxCell id="snGLk7mVCXV_w4UDnkFq-118" value="IBM Cloud" style="text;html=1;strokeColor=none;fillColor=none;align=left;verticalAlign=middle;whiteSpace=wrap;rounded=0;fontFamily=IBM Plex Sans;fontSize=14;" parent="snGLk7mVCXV_w4UDnkFq-116" vertex="1">
          <mxGeometry x="51" y="8" width="163" height="20" as="geometry" />
        </mxCell>
        <mxCell id="snGLk7mVCXV_w4UDnkFq-119" value="" style="shape=image;image=data:image/svg+xml,PD94bWwgdmVyc2lvbj0iMS4wIiBlbmNvZGluZz0iVVRGLTgiPz4KPHN2ZyB3aWR0aD0iMzNweCIgaGVpZ2h0PSIzMXB4IiB2aWV3Qm94PSIwIDAgMzMgMzEiIHZlcnNpb249IjEuMSIgeG1sbnM9Imh0dHA6Ly93d3cudzMub3JnLzIwMDAvc3ZnIiB4bWxuczp4bGluaz0iaHR0cDovL3d3dy53My5vcmcvMTk5OS94bGluayI+CiAgICA8IS0tIEdlbmVyYXRvcjogU2tldGNoIDUzICg3MjUyMCkgLSBodHRwczovL3NrZXRjaGFwcC5jb20gLS0+CiAgICA8dGl0bGU+SUJNIENsb3VkIEJsYWNrPC90aXRsZT4KICAgIDxkZXNjPkNyZWF0ZWQgd2l0aCBTa2V0Y2guPC9kZXNjPgogICAgPGcgaWQ9IlBhZ2UtMSIgc3Ryb2tlPSJub25lIiBzdHJva2Utd2lkdGg9IjEiIGZpbGw9Im5vbmUiIGZpbGwtcnVsZT0iZXZlbm9kZCI+CiAgICAgICAgPGcgaWQ9IklCTS1DbG91ZC1CbGFjayIgdHJhbnNmb3JtPSJ0cmFuc2xhdGUoMC43ODQ3MjIsIDAuNTAwMTI1KSIgZmlsbD0iIzAwMDAwMCI+CiAgICAgICAgICAgIDxwYXRoIGQ9Ik0yNy4xMDIxLDI3LjAxMDYgQzI1Ljg3MDEsMjcuODc5NiAyNC4zNjExLDI4LjI2NzYgMjIuODUzMSwyOC4yNjc2IEw3LjAwNDEsMjguMjY3NiBDNC4xMTIxLDI4LjI3NDYgMS43NjIxLDI1LjkzNDYgMS43NTUxLDIzLjA0MjYgQzEuNzQ5MSwyMC40MTA2IDMuNjk3MSwxOC4xODM2IDYuMzA1MSwxNy44Mzg2IEM2LjQxMTEsMTkuMTYxNiA2Ljc4NzEsMjAuNDQ5NiA3LjQwOTEsMjEuNjIxNiBDNy41OTUxLDIxLjk5MTYgOC4wNDYxLDIyLjE0MDYgOC40MTYxLDIxLjk1NDYgQzguNzg2MSwyMS43Njc2IDguOTM1MSwyMS4zMTc2IDguNzQ4MSwyMC45NDc2IEw4LjczMDEsMjAuOTEyNiBDNy4xMzIxLDE3LjkzNTYgNy40MjkxLDE0LjIxNzYgOS42NzIxLDExLjY4OTYgQzEzLjQ4NjEsNy4zOTI2IDE5Ljc4NzEsOC4wNTI2IDIyLjc1NzEsMTIuMjgxNiBDMjAuMzM0MSwxMi4zNDc2IDE4LjA0NzEsMTMuNDE1NiAxNi40NDExLDE1LjIzMDYgQzE2LjE2MTEsMTUuNTM1NiAxNi4xODExLDE2LjAxMDYgMTYuNDg1MSwxNi4yOTA2IEMxNi43ODkxLDE2LjU3MTYgMTcuMjY0MSwxNi41NTI2IDE3LjU0NTEsMTYuMjQ3NiBMMTcuNTY2MSwxNi4yMjI2IEMxOS41OTUxLDEzLjkyMzYgMjIuODg0MSwxMy4wNTI2IDI1LjcwMzEsMTQuMjYzNiBDMzEuMTY1MSwxNi42MDk2IDMxLjgxMDEsMjMuNjkyNiAyNy4xMDIxLDI3LjAxMDYgTTI0LjU4NTEsMTIuOTE3NiBDMjIuMDU0MSw4LjE3NTYgMTYuMTU5MSw2LjM4MjYgMTEuNDE2MSw4LjkxMzYgQzguNDY1MSwxMC40ODg2IDYuNTI5MSwxMy40Njg2IDYuMjkwMSwxNi44MDY2IEMyLjU4NDEsMTcuMjA0NiAtMC4wOTc5LDIwLjUzMjYgMC4zMDExLDI0LjIzOTYgQzAuNjY5MSwyNy42NjU2IDMuNTU5MSwzMC4yNjM2IDcuMDA0MSwzMC4yNjc2IEwyMy4wMDQxLDMwLjI2NzYgQzI3LjgzNTEsMzAuMjcwNiAzMS43NTMxLDI2LjM1NzYgMzEuNzU2MSwyMS41MjY2IEMzMS43NTkxLDE3LjMwMTYgMjguNzQxMSwxMy42Nzg2IDI0LjU4NTEsMTIuOTE3NiIgaWQ9IkZpbGwtMSI+PC9wYXRoPgogICAgICAgICAgICA8ZyBpZD0iR3JvdXAtNSIgdHJhbnNmb3JtPSJ0cmFuc2xhdGUoMjcuMDAwMDAwLCA4LjI2NzcwMCkiPgogICAgICAgICAgICAgICAgPHBhdGggZD0iTTQuOTAyOCwwLjkxOTcgQzQuNjkzOCwwLjU1NjcgNC4yMjk4LDAuNDMyNyAzLjg2NjgsMC42NDE3IEMzLjg2NjgsMC42NDE3IDMuODY2OCwwLjY0MTcgMy44NjY4LDAuNjQyNyBMMC44NDY4LDIuMzg1NyBDMC40Nzg4LDIuNTg2NyAwLjM0MzgsMy4wNDc3IDAuNTQ0OCwzLjQxNTcgQzAuNzQ1OCwzLjc4MzcgMS4yMDY4LDMuOTE4NyAxLjU3NDgsMy43MTc3IEMxLjU4NDgsMy43MTE3IDEuNTk0OCwzLjcwNTcgMS42MDQ4LDMuNjk5NyBMNC42MjQ4LDEuOTU2NyBDNC45ODc4LDEuNzQ2NyA1LjExMTgsMS4yODI3IDQuOTAyOCwwLjkxOTciIGlkPSJGaWxsLTMiPjwvcGF0aD4KICAgICAgICAgICAgPC9nPgogICAgICAgICAgICA8cGF0aCBkPSJNMjIuNjgxMiw2LjgwMjYgQzIzLjA0MzIsNy4wMTI2IDIzLjUwNzIsNi44ODg2IDIzLjcxNzIsNi41MjU2IEwyMy43MTcyLDYuNTI1NiBMMjUuNDYxMiwzLjUwNTYgQzI1LjY2ODIsMy4xNDA2IDI1LjU0MDIsMi42Nzc2IDI1LjE3NjIsMi40NzA2IEMyNC44MTUyLDIuMjY2NiAyNC4zNTcyLDIuMzg4NiAyNC4xNDcyLDIuNzQ2NiBMMjIuNDAzMiw1Ljc2NjYgQzIyLjE5NDIsNi4xMjk2IDIyLjMxODIsNi41OTM2IDIyLjY4MTIsNi44MDI2IiBpZD0iRmlsbC02Ij48L3BhdGg+CiAgICAgICAgICAgIDxwYXRoIGQ9Ik0xNi4wMDQ0LDUuMDE0MSBDMTYuNDIzNCw1LjAxNDEgMTYuNzYzNCw0LjY3NDEgMTcuMzM1NCw0LjI1NTEgTDE3LjMzNTQsMC43NjcxIEMxNi43Njg0LDAuMzQ4MSAxNi40MzI0LDAuMDA1MSAxNi4wMTM0LDAuMDAwMSBDMTUuNTk0NCwtMC4wMDQ5IDE1LjI1MTQsMC4zMzExIDE1LjMzNTQsMC43NTAxIEwxNS4zMzU0LDAuNzY3MSBMMTUuMzM1NCw0LjI1NTEgQzE1LjI0NjQsNC42NzQxIDE1LjU4NTQsNS4wMTQxIDE2LjAwNDQsNS4wMTQxIiBpZD0iRmlsbC04Ij48L3BhdGg+CiAgICAgICAgICAgIDxwYXRoIGQ9Ik04LjI5Miw2LjUyNDggQzguNTA0LDYuODg1OCA4Ljk2OSw3LjAwNjggOS4zMzEsNi43OTQ4IEM5LjY4OCw2LjU4NDggOS44MTEsNi4xMjY4IDkuNjA2LDUuNzY1OCBMNy44NjIsMi43NDU4IEM3LjY1NSwyLjM4MTggNy4xOTIsMi4yNTM4IDYuODI4LDIuNDYwOCBDNi40NjMsMi42Njc4IDYuMzM1LDMuMTMwOCA2LjU0MiwzLjQ5NDggQzYuNTQ0LDMuNDk4OCA2LjU0NiwzLjUwMTggNi41NDgsMy41MDQ4IEw4LjI5Miw2LjUyNDggWiIgaWQ9IkZpbGwtMTAiPjwvcGF0aD4KICAgICAgICAgICAgPGcgaWQ9Ikdyb3VwLTE0IiB0cmFuc2Zvcm09InRyYW5zbGF0ZSgwLjAwMDAwMCwgOC4yNjc3MDApIj4KICAgICAgICAgICAgICAgIDxwYXRoIGQ9Ik00LjE2MzEsMi4zODYgTDEuMTQzMSwwLjY0MiBDMC43ODIxLDAuNDMgMC4zMTcxLDAuNTUxIDAuMTA0MSwwLjkxMiBDLTAuMTA3OSwxLjI3MyAwLjAxMzEsMS43MzkgMC4zNzQxLDEuOTUgQzAuMzc4MSwxLjk1MiAwLjM4MTEsMS45NTQgMC4zODQxLDEuOTU2IEwzLjQwNTEsMy43IEMzLjc2NjEsMy45MTIgNC4yMzExLDMuNzkxIDQuNDQzMSwzLjQzIEM0LjY1NTEsMy4wNjkgNC41MzUxLDIuNjA0IDQuMTczMSwyLjM5MiBDNC4xNzAxLDIuMzkgNC4xNjYxLDIuMzg4IDQuMTYzMSwyLjM4NiBaIiBpZD0iRmlsbC0xMiI+PC9wYXRoPgogICAgICAgICAgICA8L2c+CiAgICAgICAgPC9nPgogICAgPC9nPgo8L3N2Zz4=;fontFamily=IBM Plex Sans;" parent="snGLk7mVCXV_w4UDnkFq-116" vertex="1">
          <mxGeometry x="15" y="7" width="24" height="24" as="geometry" />
        </mxCell>
        <mxCell id="snGLk7mVCXV_w4UDnkFq-120" value="" style="rounded=0;whiteSpace=wrap;html=1;fontFamily=IBM Plex Sans;fontSize=14;fillColor=#fff1f1;spacingBottom=-28;spacingTop=0;labelPosition=-100;verticalLabelPosition=top;align=center;verticalAlign=bottom;spacingLeft=9;spacing=0;expand=0;recursiveResize=0;spacingRight=0;container=0;collapsible=0;strokeColor=#FA4D56;strokeWidth=2;dashed=1;dashPattern=1 2;" parent="oL_wjMoZXA4-4voO2rJ6-1" vertex="1">
          <mxGeometry x="75" y="1369" width="730" height="501" as="geometry">
            <mxRectangle width="670" as="alternateBounds" />
          </mxGeometry>
        </mxCell>
        <mxCell id="snGLk7mVCXV_w4UDnkFq-121" value="Account" style="text;html=1;strokeColor=none;fillColor=none;align=left;verticalAlign=middle;whiteSpace=wrap;rounded=0;fontFamily=IBM Plex Sans;fontSize=14;" parent="snGLk7mVCXV_w4UDnkFq-120" vertex="1">
          <mxGeometry x="50.33" y="8" width="170" height="20" as="geometry" />
        </mxCell>
        <mxCell id="snGLk7mVCXV_w4UDnkFq-122" value="" style="shape=image;aspect=fixed;image=data:image/svg+xml,PD94bWwgdmVyc2lvbj0iMS4wIiBlbmNvZGluZz0iVVRGLTgiPz4KPHN2ZyB3aWR0aD0iMjhweCIgaGVpZ2h0PSIyOXB4IiB2aWV3Qm94PSIwIDAgMjggMjkiIHZlcnNpb249IjEuMSIgeG1sbnM9Imh0dHA6Ly93d3cudzMub3JnLzIwMDAvc3ZnIiB4bWxuczp4bGluaz0iaHR0cDovL3d3dy53My5vcmcvMTk5OS94bGluayI+CiAgICA8IS0tIEdlbmVyYXRvcjogU2tldGNoIDUzICg3MjUyMCkgLSBodHRwczovL3NrZXRjaGFwcC5jb20gLS0+CiAgICA8dGl0bGU+QWNjb3VudCBHcm91cCBCbGFjazwvdGl0bGU+CiAgICA8ZGVzYz5DcmVhdGVkIHdpdGggU2tldGNoLjwvZGVzYz4KICAgIDxnIGlkPSJQYWdlLTEiIHN0cm9rZT0ibm9uZSIgc3Ryb2tlLXdpZHRoPSIxIiBmaWxsPSJub25lIiBmaWxsLXJ1bGU9ImV2ZW5vZGQiPgogICAgICAgIDxnIGlkPSJBY2NvdW50LUdyb3VwLUJsYWNrIiB0cmFuc2Zvcm09InRyYW5zbGF0ZSgwLjAwMDAwMCwgLTAuNzU4NTIxKSIgZmlsbD0iIzAwMDAwMCI+CiAgICAgICAgICAgIDxwYXRoIGQ9Ik0xNSwxMC4xMDQgTDksMTAuMTA0IEM3LjM0MywxMC4xMDQgNiwxMS40NDcgNiwxMy4xMDQgTDYsMTcuMTA0IEw4LDE3LjEwNCBMOCwxMy4xMDQgQzgsMTIuNTUyIDguNDQ4LDEyLjEwNCA5LDEyLjEwNCBMMTUsMTIuMTA0IEMxNS41NTIsMTIuMTA0IDE2LDEyLjU1MiAxNiwxMy4xMDQgTDE2LDE0LjEwNCBMMTgsMTQuMTA0IEwxOCwxMy4xMDQgQzE4LDExLjQ0NyAxNi42NTcsMTAuMTA0IDE1LDEwLjEwNCIgaWQ9IkZpbGwtMSI+PC9wYXRoPgogICAgICAgICAgICA8ZyBpZD0iR3JvdXAtNSIgdHJhbnNmb3JtPSJ0cmFuc2xhdGUoOC4wMDAwMDAsIDAuMTA0MjAwKSI+CiAgICAgICAgICAgICAgICA8cGF0aCBkPSJNNi40MDA5LDQuODk1OCBDNi40MDA5LDUuOTk5OCA1LjUwNTksNi44OTU4IDQuNDAwOSw2Ljg5NTggQzMuMjk2OSw2Ljg5NTggMi40MDA5LDUuOTk5OCAyLjQwMDksNC44OTU4IEMyLjQwMDksMy43OTE4IDMuMjk2OSwyLjg5NTggNC40MDA5LDIuODk1OCBDNS41MDU5LDIuODk1OCA2LjQwMDksMy43OTE4IDYuNDAwOSw0Ljg5NTggTTAuNDAwOSw0Ljg5NTggQzAuNDAwOSw3LjEwNDggMi4xOTE5LDguODk1OCA0LjQwMDksOC44OTU4IEM2LjYwOTksOC44OTU4IDguNDAwOSw3LjEwNDggOC40MDA5LDQuODk1OCBDOC40MDA5LDIuNjg2OCA2LjYwOTksMC44OTU4IDQuNDAwOSwwLjg5NTggQzIuMTkxOSwwLjg5NTggMC40MDA5LDIuNjg2OCAwLjQwMDksNC44OTU4IiBpZD0iRmlsbC0zIj48L3BhdGg+CiAgICAgICAgICAgIDwvZz4KICAgICAgICAgICAgPHBhdGggZD0iTTE0LDI0LjEwNDIgTDIwLDI0LjEwNDIgTDIwLDE4LjEwNDIgTDE0LDE4LjEwNDIgTDE0LDI0LjEwNDIgWiBNMjAsMjYuMTA0MiBMMTQsMjYuMTA0MiBDMTIuODk2LDI2LjEwNDIgMTIsMjUuMjA5MiAxMiwyNC4xMDQyIEwxMiwxOC4xMDQyIEMxMiwxNi45OTkyIDEyLjg5NiwxNi4xMDQyIDE0LDE2LjEwNDIgTDIwLDE2LjEwNDIgQzIxLjEwNCwxNi4xMDQyIDIyLDE2Ljk5OTIgMjIsMTguMTA0MiBMMjIsMjQuMTA0MiBDMjIsMjUuMjA5MiAyMS4xMDQsMjYuMTA0MiAyMCwyNi4xMDQyIEwyMCwyNi4xMDQyIFoiIGlkPSJGaWxsLTYiPjwvcGF0aD4KICAgICAgICAgICAgPHBhdGggZD0iTTYsMjkuMTA0IEwyLDI5LjEwNCBDMC44OTYsMjkuMTAzIDAuMDAxLDI4LjIwOCAwLDI3LjEwNCBMMCwzLjEwNCBDMC4wMDEsMiAwLjg5NiwxLjEwNSAyLDEuMTA0IEw2LDEuMTA0IEw2LDMuMTA0IEwyLDMuMTA0IEwyLDI3LjEwNCBMNiwyNy4xMDQgTDYsMjkuMTA0IFoiIGlkPSJGaWxsLTgiPjwvcGF0aD4KICAgICAgICAgICAgPHBhdGggZD0iTTI2LDI5LjEwNCBMMjIsMjkuMTA0IEwyMiwyNy4xMDQgTDI2LDI3LjEwNCBMMjYsMy4xMDQgTDIyLDMuMTA0IEwyMiwxLjEwNCBMMjYsMS4xMDQgQzI3LjEwNCwxLjEwNSAyNy45OTksMiAyOCwzLjEwNCBMMjgsMjcuMTA0IEMyNy45OTksMjguMjA4IDI3LjEwNCwyOS4xMDMgMjYsMjkuMTA0IiBpZD0iRmlsbC05Ij48L3BhdGg+CiAgICAgICAgPC9nPgogICAgPC9nPgo8L3N2Zz4=;fontFamily=IBM Plex Sans;" parent="snGLk7mVCXV_w4UDnkFq-120" vertex="1">
          <mxGeometry x="17" y="8.150000000000091" width="23.18" height="24" as="geometry" />
        </mxCell>
        <mxCell id="snGLk7mVCXV_w4UDnkFq-123" value="" style="rounded=0;whiteSpace=wrap;html=1;fontFamily=IBM Plex Sans;fontSize=14;spacingBottom=-28;spacingTop=0;labelPosition=-100;verticalLabelPosition=top;align=center;verticalAlign=bottom;spacingLeft=9;spacing=0;expand=0;recursiveResize=0;spacingRight=0;container=1;collapsible=0;strokeColor=#878d96;fillColor=default;" parent="oL_wjMoZXA4-4voO2rJ6-1" vertex="1">
          <mxGeometry x="95" y="1631" width="334" height="230" as="geometry">
            <mxRectangle width="670" as="alternateBounds" />
          </mxGeometry>
        </mxCell>
        <mxCell id="snGLk7mVCXV_w4UDnkFq-124" value="" style="rounded=0;whiteSpace=wrap;html=1;strokeColor=#878d96;fillColor=#878d96;fontFamily=IBM Plex Sans;" parent="snGLk7mVCXV_w4UDnkFq-123" vertex="1">
          <mxGeometry width="4" height="48" as="geometry" />
        </mxCell>
        <mxCell id="snGLk7mVCXV_w4UDnkFq-125" value="&lt;b&gt;Region - EU GB&lt;/b&gt;" style="text;html=1;strokeColor=none;fillColor=none;align=left;verticalAlign=middle;whiteSpace=wrap;rounded=0;fontFamily=IBM Plex Sans;fontSize=14;labelBackgroundColor=default;" parent="snGLk7mVCXV_w4UDnkFq-123" vertex="1">
          <mxGeometry x="51" y="8" width="168" height="20" as="geometry" />
        </mxCell>
        <mxCell id="snGLk7mVCXV_w4UDnkFq-126" style="edgeStyle=orthogonalEdgeStyle;rounded=0;orthogonalLoop=1;jettySize=auto;html=1;exitX=0;exitY=0.5;exitDx=0;exitDy=0;entryX=1.009;entryY=0.22;entryDx=0;entryDy=0;entryPerimeter=0;fontFamily=IBM Plex Sans;fontSource=fonts/IBMPlexSans-Regular.woff;fontSize=14;startArrow=oval;startFill=1;strokeColor=#198038;" parent="snGLk7mVCXV_w4UDnkFq-123" edge="1">
          <mxGeometry relative="1" as="geometry" />
        </mxCell>
        <mxCell id="snGLk7mVCXV_w4UDnkFq-127" value="" style="shape=image;image=data:image/svg+xml,PD94bWwgdmVyc2lvbj0iMS4wIiBlbmNvZGluZz0iVVRGLTgiPz4KPHN2ZyB3aWR0aD0iMjNweCIgaGVpZ2h0PSIyOHB4IiB2aWV3Qm94PSIwIDAgMjMgMjgiIHZlcnNpb249IjEuMSIgeG1sbnM9Imh0dHA6Ly93d3cudzMub3JnLzIwMDAvc3ZnIiB4bWxuczp4bGluaz0iaHR0cDovL3d3dy53My5vcmcvMTk5OS94bGluayI+CiAgICA8IS0tIEdlbmVyYXRvcjogU2tldGNoIDUzICg3MjUyMCkgLSBodHRwczovL3NrZXRjaGFwcC5jb20gLS0+CiAgICA8dGl0bGU+UmVnaW9uIEJsYWNrPC90aXRsZT4KICAgIDxkZXNjPkNyZWF0ZWQgd2l0aCBTa2V0Y2guPC9kZXNjPgogICAgPGcgaWQ9IlBhZ2UtMSIgc3Ryb2tlPSJub25lIiBzdHJva2Utd2lkdGg9IjEiIGZpbGw9Im5vbmUiIGZpbGwtcnVsZT0iZXZlbm9kZCI+CiAgICAgICAgPGcgaWQ9IlJlZ2lvbi1CbGFjayIgdHJhbnNmb3JtPSJ0cmFuc2xhdGUoMC4xMjUwMDAsIDAuMDAwMDAwKSIgZmlsbD0iIzAwMDAwMCI+CiAgICAgICAgICAgIDxwYXRoIGQ9Ik0xMS4wMDAyLDggQzkuMzQzMiw4IDguMDAwMiw5LjM0MyA4LjAwMDIsMTEgQzguMDAwMiwxMi42NTcgOS4zNDMyLDE0IDExLjAwMDIsMTQgQzEyLjY1NzIsMTQgMTQuMDAwMiwxMi42NTcgMTQuMDAwMiwxMSBDMTMuOTk4Miw5LjM0NCAxMi42NTYyLDguMDAyIDExLjAwMDIsOCBNMTEuMDAwMiwxNiBDOC4yMzgyLDE2IDYuMDAwMiwxMy43NjEgNi4wMDAyLDExIEM2LjAwMDIsOC4yMzkgOC4yMzgyLDYgMTEuMDAwMiw2IEMxMy43NjEyLDYgMTYuMDAwMiw4LjIzOSAxNi4wMDAyLDExIEMxNS45OTcyLDEzLjc2IDEzLjc2MDIsMTUuOTk3IDExLjAwMDIsMTYiIGlkPSJGaWxsLTEiPjwvcGF0aD4KICAgICAgICAgICAgPGcgaWQ9Ikdyb3VwLTUiPgogICAgICAgICAgICAgICAgPHBhdGggZD0iTTMuODEyNywxNi4zOTUgQzMuODEzNywxNi4zOTUgNC4wNDU3LDE2LjcwMyA0LjA5ODcsMTYuNzcgTDEwLjk5OTcsMjQuOTA4IEwxNy45MTA3LDE2Ljc1OCBDMTcuOTU0NywxNi43MDMgMTguMTg4NywxNi4zOTMgMTguMTg4NywxNi4zOTIgQzE5LjM2NjcsMTQuODQxIDIwLjAwMTcsMTIuOTQ3IDE5Ljk5OTcsMTEgQzE5Ljk5OTcsNi4wMjkgMTUuOTcwNywyIDEwLjk5OTcsMiBDNi4wMjk3LDIgMi4wMDA3LDYuMDI5IDIuMDAwNywxMSBDMS45OTc3LDEyLjk0OCAyLjYzNDcsMTQuODQzIDMuODEyNywxNi4zOTUgTDMuODEyNywxNi4zOTUgWiBNMTAuOTk5NywyOCBMMi41NjQ3LDE4LjA1MSBDMi41MTY3LDE3Ljk5NCAyLjIxNjcsMTcuNiAyLjIxNjcsMTcuNiBDMC43NzQ3LDE1LjcwMiAtMC4wMDMzLDEzLjM4MyAtMC4wMDAzLDExIEMtMC4wMDAzLDQuOTI1IDQuOTI0NywwIDEwLjk5OTcsMCBDMTcuMDc1NywwIDIxLjk5OTcsNC45MjUgMjEuOTk5NywxMSBDMjIuMDAyNywxMy4zODIgMjEuMjI1NywxNS43IDE5Ljc4NTcsMTcuNTk3IEwxOS43ODM3LDE3LjYgQzE5Ljc4MzcsMTcuNiAxOS40ODM3LDE3Ljk5NCAxOS40Mzg3LDE4LjA0NyBMMTAuOTk5NywyOCBaIiBpZD0iRmlsbC0zIj48L3BhdGg+CiAgICAgICAgICAgIDwvZz4KICAgICAgICA8L2c+CiAgICA8L2c+Cjwvc3ZnPg==;fontFamily=IBM Plex Sans;" parent="snGLk7mVCXV_w4UDnkFq-123" vertex="1">
          <mxGeometry x="19.66" y="8" width="24" height="24" as="geometry" />
        </mxCell>
        <mxCell id="snGLk7mVCXV_w4UDnkFq-128" value="" style="rounded=0;whiteSpace=wrap;html=1;fontFamily=IBM Plex Sans;fontSize=14;spacingBottom=-28;spacingTop=0;labelPosition=-100;verticalLabelPosition=top;align=center;verticalAlign=bottom;spacingLeft=9;spacing=0;expand=0;recursiveResize=0;spacingRight=0;container=1;collapsible=0;strokeColor=#878d96;fillColor=default;" parent="oL_wjMoZXA4-4voO2rJ6-1" vertex="1">
          <mxGeometry x="95" y="1409" width="334" height="210" as="geometry">
            <mxRectangle width="670" as="alternateBounds" />
          </mxGeometry>
        </mxCell>
        <mxCell id="snGLk7mVCXV_w4UDnkFq-129" value="" style="rounded=0;whiteSpace=wrap;html=1;strokeColor=#878d96;fillColor=#878d96;fontFamily=IBM Plex Sans;" parent="snGLk7mVCXV_w4UDnkFq-128" vertex="1">
          <mxGeometry width="4" height="48" as="geometry" />
        </mxCell>
        <mxCell id="snGLk7mVCXV_w4UDnkFq-130" value="&lt;b&gt;Region - US South&lt;/b&gt;" style="text;html=1;strokeColor=none;fillColor=none;align=left;verticalAlign=middle;whiteSpace=wrap;rounded=0;fontFamily=IBM Plex Sans;fontSize=14;labelBackgroundColor=default;" parent="snGLk7mVCXV_w4UDnkFq-128" vertex="1">
          <mxGeometry x="51" y="8" width="168" height="20" as="geometry" />
        </mxCell>
        <mxCell id="snGLk7mVCXV_w4UDnkFq-131" style="edgeStyle=orthogonalEdgeStyle;rounded=0;orthogonalLoop=1;jettySize=auto;html=1;exitX=0;exitY=0.5;exitDx=0;exitDy=0;entryX=1.009;entryY=0.22;entryDx=0;entryDy=0;entryPerimeter=0;fontFamily=IBM Plex Sans;fontSource=fonts/IBMPlexSans-Regular.woff;fontSize=14;startArrow=oval;startFill=1;strokeColor=#198038;" parent="snGLk7mVCXV_w4UDnkFq-128" edge="1">
          <mxGeometry relative="1" as="geometry" />
        </mxCell>
        <mxCell id="snGLk7mVCXV_w4UDnkFq-132" value="" style="shape=image;image=data:image/svg+xml,PD94bWwgdmVyc2lvbj0iMS4wIiBlbmNvZGluZz0iVVRGLTgiPz4KPHN2ZyB3aWR0aD0iMjNweCIgaGVpZ2h0PSIyOHB4IiB2aWV3Qm94PSIwIDAgMjMgMjgiIHZlcnNpb249IjEuMSIgeG1sbnM9Imh0dHA6Ly93d3cudzMub3JnLzIwMDAvc3ZnIiB4bWxuczp4bGluaz0iaHR0cDovL3d3dy53My5vcmcvMTk5OS94bGluayI+CiAgICA8IS0tIEdlbmVyYXRvcjogU2tldGNoIDUzICg3MjUyMCkgLSBodHRwczovL3NrZXRjaGFwcC5jb20gLS0+CiAgICA8dGl0bGU+UmVnaW9uIEJsYWNrPC90aXRsZT4KICAgIDxkZXNjPkNyZWF0ZWQgd2l0aCBTa2V0Y2guPC9kZXNjPgogICAgPGcgaWQ9IlBhZ2UtMSIgc3Ryb2tlPSJub25lIiBzdHJva2Utd2lkdGg9IjEiIGZpbGw9Im5vbmUiIGZpbGwtcnVsZT0iZXZlbm9kZCI+CiAgICAgICAgPGcgaWQ9IlJlZ2lvbi1CbGFjayIgdHJhbnNmb3JtPSJ0cmFuc2xhdGUoMC4xMjUwMDAsIDAuMDAwMDAwKSIgZmlsbD0iIzAwMDAwMCI+CiAgICAgICAgICAgIDxwYXRoIGQ9Ik0xMS4wMDAyLDggQzkuMzQzMiw4IDguMDAwMiw5LjM0MyA4LjAwMDIsMTEgQzguMDAwMiwxMi42NTcgOS4zNDMyLDE0IDExLjAwMDIsMTQgQzEyLjY1NzIsMTQgMTQuMDAwMiwxMi42NTcgMTQuMDAwMiwxMSBDMTMuOTk4Miw5LjM0NCAxMi42NTYyLDguMDAyIDExLjAwMDIsOCBNMTEuMDAwMiwxNiBDOC4yMzgyLDE2IDYuMDAwMiwxMy43NjEgNi4wMDAyLDExIEM2LjAwMDIsOC4yMzkgOC4yMzgyLDYgMTEuMDAwMiw2IEMxMy43NjEyLDYgMTYuMDAwMiw4LjIzOSAxNi4wMDAyLDExIEMxNS45OTcyLDEzLjc2IDEzLjc2MDIsMTUuOTk3IDExLjAwMDIsMTYiIGlkPSJGaWxsLTEiPjwvcGF0aD4KICAgICAgICAgICAgPGcgaWQ9Ikdyb3VwLTUiPgogICAgICAgICAgICAgICAgPHBhdGggZD0iTTMuODEyNywxNi4zOTUgQzMuODEzNywxNi4zOTUgNC4wNDU3LDE2LjcwMyA0LjA5ODcsMTYuNzcgTDEwLjk5OTcsMjQuOTA4IEwxNy45MTA3LDE2Ljc1OCBDMTcuOTU0NywxNi43MDMgMTguMTg4NywxNi4zOTMgMTguMTg4NywxNi4zOTIgQzE5LjM2NjcsMTQuODQxIDIwLjAwMTcsMTIuOTQ3IDE5Ljk5OTcsMTEgQzE5Ljk5OTcsNi4wMjkgMTUuOTcwNywyIDEwLjk5OTcsMiBDNi4wMjk3LDIgMi4wMDA3LDYuMDI5IDIuMDAwNywxMSBDMS45OTc3LDEyLjk0OCAyLjYzNDcsMTQuODQzIDMuODEyNywxNi4zOTUgTDMuODEyNywxNi4zOTUgWiBNMTAuOTk5NywyOCBMMi41NjQ3LDE4LjA1MSBDMi41MTY3LDE3Ljk5NCAyLjIxNjcsMTcuNiAyLjIxNjcsMTcuNiBDMC43NzQ3LDE1LjcwMiAtMC4wMDMzLDEzLjM4MyAtMC4wMDAzLDExIEMtMC4wMDAzLDQuOTI1IDQuOTI0NywwIDEwLjk5OTcsMCBDMTcuMDc1NywwIDIxLjk5OTcsNC45MjUgMjEuOTk5NywxMSBDMjIuMDAyNywxMy4zODIgMjEuMjI1NywxNS43IDE5Ljc4NTcsMTcuNTk3IEwxOS43ODM3LDE3LjYgQzE5Ljc4MzcsMTcuNiAxOS40ODM3LDE3Ljk5NCAxOS40Mzg3LDE4LjA0NyBMMTAuOTk5NywyOCBaIiBpZD0iRmlsbC0zIj48L3BhdGg+CiAgICAgICAgICAgIDwvZz4KICAgICAgICA8L2c+CiAgICA8L2c+Cjwvc3ZnPg==;fontFamily=IBM Plex Sans;" parent="snGLk7mVCXV_w4UDnkFq-128" vertex="1">
          <mxGeometry x="19.66" y="8" width="24" height="24" as="geometry" />
        </mxCell>
        <mxCell id="snGLk7mVCXV_w4UDnkFq-133" value="" style="rounded=0;whiteSpace=wrap;html=1;fontFamily=IBM Plex Sans;fontSize=14;spacingBottom=-28;spacingTop=0;labelPosition=-100;verticalLabelPosition=top;align=center;verticalAlign=bottom;spacingLeft=9;spacing=0;expand=0;recursiveResize=0;spacingRight=0;container=1;collapsible=0;strokeColor=#878d96;fillColor=default;" parent="oL_wjMoZXA4-4voO2rJ6-1" vertex="1">
          <mxGeometry x="465" y="1408" width="320" height="211" as="geometry">
            <mxRectangle width="670" as="alternateBounds" />
          </mxGeometry>
        </mxCell>
        <mxCell id="snGLk7mVCXV_w4UDnkFq-134" value="" style="rounded=0;whiteSpace=wrap;html=1;strokeColor=#878d96;fillColor=#878d96;fontFamily=IBM Plex Sans;" parent="snGLk7mVCXV_w4UDnkFq-133" vertex="1">
          <mxGeometry width="4" height="48" as="geometry" />
        </mxCell>
        <mxCell id="snGLk7mVCXV_w4UDnkFq-135" value="&lt;b&gt;Region - US East&lt;/b&gt;" style="text;html=1;strokeColor=none;fillColor=none;align=left;verticalAlign=middle;whiteSpace=wrap;rounded=0;fontFamily=IBM Plex Sans;fontSize=14;labelBackgroundColor=default;" parent="snGLk7mVCXV_w4UDnkFq-133" vertex="1">
          <mxGeometry x="51" y="8" width="168" height="20" as="geometry" />
        </mxCell>
        <mxCell id="snGLk7mVCXV_w4UDnkFq-136" style="edgeStyle=orthogonalEdgeStyle;rounded=0;orthogonalLoop=1;jettySize=auto;html=1;exitX=0;exitY=0.5;exitDx=0;exitDy=0;entryX=1.009;entryY=0.22;entryDx=0;entryDy=0;entryPerimeter=0;fontFamily=IBM Plex Sans;fontSource=fonts/IBMPlexSans-Regular.woff;fontSize=14;startArrow=oval;startFill=1;strokeColor=#198038;" parent="snGLk7mVCXV_w4UDnkFq-133" edge="1">
          <mxGeometry relative="1" as="geometry" />
        </mxCell>
        <mxCell id="snGLk7mVCXV_w4UDnkFq-137" value="" style="shape=image;image=data:image/svg+xml,PD94bWwgdmVyc2lvbj0iMS4wIiBlbmNvZGluZz0iVVRGLTgiPz4KPHN2ZyB3aWR0aD0iMjNweCIgaGVpZ2h0PSIyOHB4IiB2aWV3Qm94PSIwIDAgMjMgMjgiIHZlcnNpb249IjEuMSIgeG1sbnM9Imh0dHA6Ly93d3cudzMub3JnLzIwMDAvc3ZnIiB4bWxuczp4bGluaz0iaHR0cDovL3d3dy53My5vcmcvMTk5OS94bGluayI+CiAgICA8IS0tIEdlbmVyYXRvcjogU2tldGNoIDUzICg3MjUyMCkgLSBodHRwczovL3NrZXRjaGFwcC5jb20gLS0+CiAgICA8dGl0bGU+UmVnaW9uIEJsYWNrPC90aXRsZT4KICAgIDxkZXNjPkNyZWF0ZWQgd2l0aCBTa2V0Y2guPC9kZXNjPgogICAgPGcgaWQ9IlBhZ2UtMSIgc3Ryb2tlPSJub25lIiBzdHJva2Utd2lkdGg9IjEiIGZpbGw9Im5vbmUiIGZpbGwtcnVsZT0iZXZlbm9kZCI+CiAgICAgICAgPGcgaWQ9IlJlZ2lvbi1CbGFjayIgdHJhbnNmb3JtPSJ0cmFuc2xhdGUoMC4xMjUwMDAsIDAuMDAwMDAwKSIgZmlsbD0iIzAwMDAwMCI+CiAgICAgICAgICAgIDxwYXRoIGQ9Ik0xMS4wMDAyLDggQzkuMzQzMiw4IDguMDAwMiw5LjM0MyA4LjAwMDIsMTEgQzguMDAwMiwxMi42NTcgOS4zNDMyLDE0IDExLjAwMDIsMTQgQzEyLjY1NzIsMTQgMTQuMDAwMiwxMi42NTcgMTQuMDAwMiwxMSBDMTMuOTk4Miw5LjM0NCAxMi42NTYyLDguMDAyIDExLjAwMDIsOCBNMTEuMDAwMiwxNiBDOC4yMzgyLDE2IDYuMDAwMiwxMy43NjEgNi4wMDAyLDExIEM2LjAwMDIsOC4yMzkgOC4yMzgyLDYgMTEuMDAwMiw2IEMxMy43NjEyLDYgMTYuMDAwMiw4LjIzOSAxNi4wMDAyLDExIEMxNS45OTcyLDEzLjc2IDEzLjc2MDIsMTUuOTk3IDExLjAwMDIsMTYiIGlkPSJGaWxsLTEiPjwvcGF0aD4KICAgICAgICAgICAgPGcgaWQ9Ikdyb3VwLTUiPgogICAgICAgICAgICAgICAgPHBhdGggZD0iTTMuODEyNywxNi4zOTUgQzMuODEzNywxNi4zOTUgNC4wNDU3LDE2LjcwMyA0LjA5ODcsMTYuNzcgTDEwLjk5OTcsMjQuOTA4IEwxNy45MTA3LDE2Ljc1OCBDMTcuOTU0NywxNi43MDMgMTguMTg4NywxNi4zOTMgMTguMTg4NywxNi4zOTIgQzE5LjM2NjcsMTQuODQxIDIwLjAwMTcsMTIuOTQ3IDE5Ljk5OTcsMTEgQzE5Ljk5OTcsNi4wMjkgMTUuOTcwNywyIDEwLjk5OTcsMiBDNi4wMjk3LDIgMi4wMDA3LDYuMDI5IDIuMDAwNywxMSBDMS45OTc3LDEyLjk0OCAyLjYzNDcsMTQuODQzIDMuODEyNywxNi4zOTUgTDMuODEyNywxNi4zOTUgWiBNMTAuOTk5NywyOCBMMi41NjQ3LDE4LjA1MSBDMi41MTY3LDE3Ljk5NCAyLjIxNjcsMTcuNiAyLjIxNjcsMTcuNiBDMC43NzQ3LDE1LjcwMiAtMC4wMDMzLDEzLjM4MyAtMC4wMDAzLDExIEMtMC4wMDAzLDQuOTI1IDQuOTI0NywwIDEwLjk5OTcsMCBDMTcuMDc1NywwIDIxLjk5OTcsNC45MjUgMjEuOTk5NywxMSBDMjIuMDAyNywxMy4zODIgMjEuMjI1NywxNS43IDE5Ljc4NTcsMTcuNTk3IEwxOS43ODM3LDE3LjYgQzE5Ljc4MzcsMTcuNiAxOS40ODM3LDE3Ljk5NCAxOS40Mzg3LDE4LjA0NyBMMTAuOTk5NywyOCBaIiBpZD0iRmlsbC0zIj48L3BhdGg+CiAgICAgICAgICAgIDwvZz4KICAgICAgICA8L2c+CiAgICA8L2c+Cjwvc3ZnPg==;fontFamily=IBM Plex Sans;" parent="snGLk7mVCXV_w4UDnkFq-133" vertex="1">
          <mxGeometry x="19.66" y="8" width="24" height="24" as="geometry" />
        </mxCell>
        <mxCell id="snGLk7mVCXV_w4UDnkFq-138" value="Legend" style="text;html=1;strokeColor=none;fillColor=none;align=center;verticalAlign=middle;whiteSpace=wrap;rounded=0;fontFamily=IBM Plex Sans;" parent="oL_wjMoZXA4-4voO2rJ6-1" vertex="1">
          <mxGeometry x="38.91699999999997" y="1909" width="31.316000000000003" height="15.65891472868217" as="geometry" />
        </mxCell>
        <mxCell id="snGLk7mVCXV_w4UDnkFq-139" value="" style="endArrow=block;html=1;strokeColor=#000000;strokeWidth=2;endFill=1;startArrow=oval;startFill=1;entryX=0.372;entryY=0.887;entryDx=0;entryDy=0;entryPerimeter=0;fontFamily=IBM Plex Sans;" parent="oL_wjMoZXA4-4voO2rJ6-1" edge="1">
          <mxGeometry width="50" height="50" relative="1" as="geometry">
            <mxPoint x="35.004999999999995" y="1939.0016279069766" as="sourcePoint" />
            <mxPoint x="234.92999999999984" y="1938.77" as="targetPoint" />
          </mxGeometry>
        </mxCell>
        <mxCell id="snGLk7mVCXV_w4UDnkFq-140" value="&lt;b&gt;[Protocol HTTPS&lt;br&gt;SSL:443]&lt;/b&gt;" style="edgeLabel;html=1;align=center;verticalAlign=top;resizable=0;points=[];labelPosition=center;verticalLabelPosition=bottom;fontFamily=IBM Plex Sans;" parent="snGLk7mVCXV_w4UDnkFq-139" vertex="1" connectable="0">
          <mxGeometry x="-0.0849" y="-3" relative="1" as="geometry">
            <mxPoint x="4.27" y="-2.9" as="offset" />
          </mxGeometry>
        </mxCell>
        <mxCell id="snGLk7mVCXV_w4UDnkFq-141" value="" style="endArrow=open;endFill=1;endSize=12;html=1;fontFamily=IBM Plex Sans;" parent="oL_wjMoZXA4-4voO2rJ6-1" edge="1">
          <mxGeometry width="160" relative="1" as="geometry">
            <mxPoint x="38.92" y="1979" as="sourcePoint" />
            <mxPoint x="238.92000000000002" y="1979" as="targetPoint" />
          </mxGeometry>
        </mxCell>
        <mxCell id="snGLk7mVCXV_w4UDnkFq-142" value="Routing Table Association" style="edgeLabel;html=1;align=center;verticalAlign=middle;resizable=0;points=[];fontFamily=IBM Plex Sans;" parent="snGLk7mVCXV_w4UDnkFq-141" vertex="1" connectable="0">
          <mxGeometry x="-0.0375" y="1" relative="1" as="geometry">
            <mxPoint y="11" as="offset" />
          </mxGeometry>
        </mxCell>
        <mxCell id="snGLk7mVCXV_w4UDnkFq-143" value="" style="rounded=0;whiteSpace=wrap;html=1;fontFamily=IBM Plex Sans;fontSize=14;spacingBottom=-28;spacingTop=0;labelPosition=-100;verticalLabelPosition=top;align=center;verticalAlign=bottom;spacingLeft=9;spacing=0;expand=0;recursiveResize=0;spacingRight=0;container=1;collapsible=0;strokeColor=#1192E8;fillColor=#e5f6ff;" parent="oL_wjMoZXA4-4voO2rJ6-1" vertex="1">
          <mxGeometry x="125" y="1679" width="160" height="160" as="geometry">
            <mxRectangle width="670" as="alternateBounds" />
          </mxGeometry>
        </mxCell>
        <mxCell id="snGLk7mVCXV_w4UDnkFq-144" value="" style="rounded=0;whiteSpace=wrap;html=1;strokeColor=#1192E8;fillColor=#1192E8;fontFamily=IBM Plex Sans;" parent="snGLk7mVCXV_w4UDnkFq-143" vertex="1">
          <mxGeometry width="4" height="48" as="geometry" />
        </mxCell>
        <mxCell id="snGLk7mVCXV_w4UDnkFq-145" value="VPC E" style="text;html=1;strokeColor=none;fillColor=none;align=left;verticalAlign=middle;whiteSpace=wrap;rounded=0;fontFamily=IBM Plex Sans;fontSize=14;" parent="snGLk7mVCXV_w4UDnkFq-143" vertex="1">
          <mxGeometry x="51" y="8" width="59" height="20" as="geometry" />
        </mxCell>
        <mxCell id="snGLk7mVCXV_w4UDnkFq-146" value="" style="shape=image;image=data:image/svg+xml,PD94bWwgdmVyc2lvbj0iMS4wIiBlbmNvZGluZz0iVVRGLTgiPz4KPHN2ZyB3aWR0aD0iMjlweCIgaGVpZ2h0PSIyOHB4IiB2aWV3Qm94PSIwIDAgMjkgMjgiIHZlcnNpb249IjEuMSIgeG1sbnM9Imh0dHA6Ly93d3cudzMub3JnLzIwMDAvc3ZnIiB4bWxuczp4bGluaz0iaHR0cDovL3d3dy53My5vcmcvMTk5OS94bGluayI+CiAgICA8IS0tIEdlbmVyYXRvcjogU2tldGNoIDUzICg3MjUyMCkgLSBodHRwczovL3NrZXRjaGFwcC5jb20gLS0+CiAgICA8dGl0bGU+SUJNIFZQQyBCbGFjazwvdGl0bGU+CiAgICA8ZGVzYz5DcmVhdGVkIHdpdGggU2tldGNoLjwvZGVzYz4KICAgIDxnIGlkPSJQYWdlLTEiIHN0cm9rZT0ibm9uZSIgc3Ryb2tlLXdpZHRoPSIxIiBmaWxsPSJub25lIiBmaWxsLXJ1bGU9ImV2ZW5vZGQiPgogICAgICAgIDxnIGlkPSJJQk0tVlBDLUJsYWNrIiB0cmFuc2Zvcm09InRyYW5zbGF0ZSgwLjc1MDAwMCwgLTEuMDAwMDAwKSIgZmlsbD0iIzAwMDAwMCI+CiAgICAgICAgICAgIDxwYXRoIGQ9Ik0wLjAwMDksMS4wMDAyIEwwLjAwMDksOS4wMDAyIEw2LjU4NjksOS4wMDAyIEwyMC4wMDA5LDIyLjQxNDIgTDIwLjAwMDksMjkuMDAwMiBMMjguMDAwOSwyOS4wMDAyIEwyOC4wMDA5LDIxLjAwMDIgTDIxLjQxNTksMjEuMDAwMiBMOC4wMDA5LDcuNTg1MiBMOC4wMDA5LDEuMDAwMiBMMC4wMDA5LDEuMDAwMiBaIE0yLjAwMDksNy4wMDAyIEw2LjAwMDksNy4wMDAyIEw2LjAwMDksMy4wMDAyIEwyLjAwMDksMy4wMDAyIEwyLjAwMDksNy4wMDAyIFogTTIyLjAwMDksMjcuMDAxMiBMMjYuMDAxOSwyNy4wMDEyIEwyNi4wMDE5LDIzLjAwMDIgTDIyLjAwMDksMjMuMDAwMiBMMjIuMDAwOSwyNy4wMDEyIFoiIGlkPSJGaWxsLTEiPjwvcGF0aD4KICAgICAgICAgICAgPGcgaWQ9Ikdyb3VwLTgiIHRyYW5zZm9ybT0idHJhbnNsYXRlKDAuMDAwMDAwLCAwLjAwMTkwMCkiPgogICAgICAgICAgICAgICAgPGcgaWQ9Ikdyb3VwLTQiIHRyYW5zZm9ybT0idHJhbnNsYXRlKDExLjAwMDAwMCwgMC4wMDAwMDApIj4KICAgICAgICAgICAgICAgICAgICA8cGF0aCBkPSJNMTIuNjQ2Nyw2LjgxNzkgQzExLjU0MjcsNi44MTc5IDEwLjY0NjcsNS45MjI5IDEwLjY0NjcsNC44MTc5IEMxMC42NDY3LDMuNzEzOSAxMS41NDI3LDIuODE3OSAxMi42NDY3LDIuODE3OSBDMTMuNzUwNywyLjgxNzkgMTQuNjQ2NywzLjcxMzkgMTQuNjQ2Nyw0LjgxNzkgQzE0LjY0NTcsNS45MjE5IDEzLjc1MDcsNi44MTY5IDEyLjY0NjcsNi44MTc5IE0xNi43MzM3LDMuNTE4OSBDMTYuMzU2NywyLjQ5ODkgMTUuNTMxNywxLjY2NzkgMTQuNTE1NywxLjI4MDkgQzEyLjEyNzcsMC4zNzA5IDkuNzE3NywxLjc1NTkgOS4xNDI3LDMuOTk3OSBMMC4wMDA3LDMuOTk3OSBMMC4wMDA3LDUuOTk3OSBMOS4xNDI3LDUuOTk3OSBDOS41MDc3LDcuMzk3OSAxMC42MDE3LDguNDkwOSAxMi4wMDA3LDguODU1OSBMMTIuMDAwNywxNy45OTc5IEwxNC4wMDA3LDE3Ljk5NzkgTDE0LjAwMDcsOC44NTU5IEMxNi4yMjk3LDguMjgxOSAxNy42MTE3LDUuODk2OSAxNi43MzM3LDMuNTE4OSIgaWQ9IkZpbGwtMiI+PC9wYXRoPgogICAgICAgICAgICAgICAgPC9nPgogICAgICAgICAgICAgICAgPGcgaWQ9Ikdyb3VwLTciIHRyYW5zZm9ybT0idHJhbnNsYXRlKDAuMDAwMDAwLCAxMS4wMDAwMDApIj4KICAgICAgICAgICAgICAgICAgICA8cGF0aCBkPSJNMy42NDY3LDE1LjgxNzkgQzIuNTQyNywxNS44MTc5IDEuNjQ2NywxNC45MjI5IDEuNjQ2NywxMy44MTc5IEMxLjY0NjcsMTIuNzEzOSAyLjU0MjcsMTEuODE3OSAzLjY0NjcsMTEuODE3OSBDNC43NTA3LDExLjgxNzkgNS42NDY3LDEyLjcxMzkgNS42NDY3LDEzLjgxNzkgQzUuNjQ1NywxNC45MjE5IDQuNzUwNywxNS44MTY5IDMuNjQ2NywxNS44MTc5IEwzLjY0NjcsMTUuODE3OSBaIE0xNy4wMDA3LDEyLjk5NzkgTDcuODU4NywxMi45OTc5IEM3LjQ5MzcsMTEuNTk3OSA2LjQwMDcsMTAuNTA0OSA1LjAwMDcsMTAuMTM5OSBMNS4wMDA3LDAuOTk3OSBMMy4wMDA3LDAuOTk3OSBMMy4wMDA3LDEwLjEzOTkgQzAuNDg3NywxMC43ODQ5IC0wLjg1MTMsMTMuNjgzOSAwLjU5NDcsMTYuMTE5OSBDMS4xNTA3LDE3LjA1NTkgMi4xMTE3LDE3LjcyODkgMy4xODI3LDE3LjkyNjkgQzUuNDAyNywxOC4zMzc5IDcuMzUzNywxNi45Njk5IDcuODU4NywxNC45OTc5IEwxNy4wMDA3LDE0Ljk5NzkgTDE3LjAwMDcsMTIuOTk3OSBaIiBpZD0iRmlsbC01Ij48L3BhdGg+CiAgICAgICAgICAgICAgICA8L2c+CiAgICAgICAgICAgIDwvZz4KICAgICAgICA8L2c+CiAgICA8L2c+Cjwvc3ZnPg==;fontFamily=IBM Plex Sans;" parent="snGLk7mVCXV_w4UDnkFq-143" vertex="1">
          <mxGeometry x="17" y="9.849999999999909" width="24" height="24" as="geometry" />
        </mxCell>
        <mxCell id="snGLk7mVCXV_w4UDnkFq-147" value="10.8.0.0/16" style="shape=image;verticalLabelPosition=bottom;verticalAlign=top;imageAspect=0;aspect=fixed;image=data:image/svg+xml,PHN2ZyB4bWxuczp4bGluaz0iaHR0cDovL3d3dy53My5vcmcvMTk5OS94bGluayIgeG1sbnM9Imh0dHA6Ly93d3cudzMub3JnLzIwMDAvc3ZnIiB2ZXJzaW9uPSIxLjEiIHZpZXdCb3g9IjAgMCA0OCA0OCIgaGVpZ2h0PSI0OHB4IiB3aWR0aD0iNDhweCI+JiN4YTsgICAgPHRpdGxlPmlibS1jbG91ZC0tc3VibmV0czwvdGl0bGU+JiN4YTsgICAgPGcgZmlsbC1ydWxlPSJldmVub2RkIiBmaWxsPSJub25lIiBzdHJva2Utd2lkdGg9IjEiIHN0cm9rZT0ibm9uZSIgaWQ9IlYyLUljb25zIj4mI3hhOyAgICAgICAgPGcgdHJhbnNmb3JtPSJ0cmFuc2xhdGUoLTk2MSwgLTI0KSIgaWQ9IklCTS9DbG91ZC9OZXR3b3JrIj4mI3hhOyAgICAgICAgICAgIDxnIHRyYW5zZm9ybT0idHJhbnNsYXRlKDk2MSwgMjQpIiBpZD0iaWJtLWNsb3VkLS1zdWJuZXRzIj4mI3hhOyAgICAgICAgICAgICAgICA8cmVjdCBoZWlnaHQ9IjQ4IiB3aWR0aD0iNDgiIHk9IjAiIHg9IjAiIGZpbGw9IiMxMTkyRTgiIGlkPSJSZWN0YW5nbGUtQ29weS00NSIvPiYjeGE7ICAgICAgICAgICAgICAgIDxnIHRyYW5zZm9ybT0idHJhbnNsYXRlKDEyLjAwMDQsIDEyKSI+JiN4YTsgICAgICAgICAgICAgICAgICAgIDxwYXRoIGZpbGwtcnVsZT0ibm9uemVybyIgZmlsbD0iI0ZGRkZGRiIgaWQ9IlNoYXBlIiBkPSJNMTkuNSwxNi41IEMxOC45NjY1Njg0LDE2LjQ5ODgyNjggMTguNDQ0Njk2MiwxNi42NTUzODg1IDE4LDE2Ljk1IEwxNC41NjA3MjUsMTMuNSBMMTMuNSwxNC41NjA1NzUgTDE2Ljk1LDE4IEMxNi44MTgwNDE1LDE4LjIzNjAwMDUgMTYuNzE3MjAyOCwxOC40ODgwOTcyIDE2LjY1LDE4Ljc1IEw3LjM5MzcyNSwxOC43NSBDNy4zMTg3ODU0OCwxOC40ODM2Njk5IDcuMjAyODIwNTgsMTguMjMwNjM3MiA3LjA1LDE4IEwxOCw3LjA1IEMxOC40NDQ2OTYyLDcuMzQ0NjExNTMgMTguOTY2NTY4NCw3LjUwMTE3MzE3IDE5LjUsNy41IEMyMS4wNjA1NDI4LDcuNTA2MjcxNDggMjIuMzY1Mjc4NSw2LjMxNTA4Nzg3IDIyLjUwMDczMzcsNC43NjA0MjIyNSBDMjIuNjM2MTg4OSwzLjIwNTc1NjY0IDIxLjU1NzEyMDcsMS44MDY4NzY1MyAyMC4wMTkwMDgsMS41NDMxNjc3OSBDMTguNDgwODk1MiwxLjI3OTQ1OTA1IDE2Ljk5NzQ3NjUsMi4yMzkwMDE5NSAxNi42MDczMjUsMy43NSBMNy40MjUsMy43NSBDNy4wNjMxMzgwNCwyLjQzMDA5OTk3IDUuODY4NTU5NDIsMS41MTExOTMzNCA0LjUsMS41IEMyLjg0MzE0NTc1LDEuNSAxLjUsMi44NDMxNDU3NSAxLjUsNC41IEMxLjUsNi4xNTY4NTQyNSAyLjg0MzE0NTc1LDcuNSA0LjUsNy41IEM1LjAzMzQzMzU5LDcuNTAxMTg2NiA1LjU1NTMwOTU0LDcuMzQ0NjIzODEgNiw3LjA1IEw5LjQzOTM1LDEwLjUgTDEwLjUsOS40Mzk0MjUgTDcuMDUsNiBDNy4xODE5NjIzMiw1Ljc2NDAwMTI4IDcuMjgyODAxMTgsNS41MTE5MDQxMiA3LjM1LDUuMjUgTDE2LjYwNjM1LDUuMjUgQzE2LjY4MTI5ODQsNS41MTYzMTM4MSAxNi43OTcyMzU2LDUuNzY5MzQxNDcgMTYuOTUsNiBMNiwxNi45NSBDNS41NTUzMDk1NCwxNi42NTUzNzYyIDUuMDMzNDMzNTksMTYuNDk4ODEzNCA0LjUsMTYuNSBDMi45Mzk0NTcxNiwxNi40OTM3Mjg1IDEuNjM0NzIxNDksMTcuNjg0OTEyMSAxLjQ5OTI2NjMsMTkuMjM5NTc3NyBDMS4zNjM4MTExMSwyMC43OTQyNDM0IDIuNDQyODc5MjUsMjIuMTkzMTIzNSAzLjk4MDk5MjA1LDIyLjQ1NjgzMjIgQzUuNTE5MTA0ODUsMjIuNzIwNTQxIDcuMDAyNTIzNTQsMjEuNzYwOTk4MSA3LjM5MjY3NSwyMC4yNSBMMTYuNTc1LDIwLjI1IEMxNi45NjAyNDE3LDIxLjc2NTc0OTcgMTguNDQyNDY5MiwyMi43MzM2NDQzIDE5Ljk4NTE4MjYsMjIuNDc2ODQ5MyBDMjEuNTI3ODk2LDIyLjIyMDA1NDMgMjIuNjE2NjYxOCwyMC44MjQyMDA4IDIyLjQ5MDEyMjEsMTkuMjY1Mzg4NCBDMjIuMzYzNTgyNCwxNy43MDY1NzYgMjEuMDYzOTMzMiwxNi41MDQ2MDY4IDE5LjUsMTYuNSBaIE0xOS41LDMgQzIwLjMyODQyNzEsMyAyMSwzLjY3MTU3Mjg4IDIxLDQuNSBDMjEsNS4zMjg0MjcxMiAyMC4zMjg0MjcxLDYgMTkuNSw2IEMxOC42NzE1NzI5LDYgMTgsNS4zMjg0MjcxMiAxOCw0LjUgQzE4LjAwMjM4OTIsMy42NzI1NjQ1MyAxOC42NzI1NjQ1LDMuMDAyMzg5MTggMTkuNSwzIEwxOS41LDMgWiBNNC41LDYgQzMuNjcxNTcyODgsNiAzLDUuMzI4NDI3MTIgMyw0LjUgQzMsMy42NzE1NzI4OCAzLjY3MTU3Mjg4LDMgNC41LDMgQzUuMzI4NDI3MTIsMyA2LDMuNjcxNTcyODggNiw0LjUgQzUuOTk3NjEwODIsNS4zMjc0MzU0NyA1LjMyNzQzNTQ3LDUuOTk3NjEwODIgNC41LDYgWiBNNC41LDIxIEMzLjY3MTU3Mjg4LDIxIDMsMjAuMzI4NDI3MSAzLDE5LjUgQzMsMTguNjcxNTcyOSAzLjY3MTU3Mjg4LDE4IDQuNSwxOCBDNS4zMjg0MjcxMiwxOCA2LDE4LjY3MTU3MjkgNiwxOS41IEM1Ljk5NzYxMDgyLDIwLjMyNzQzNTUgNS4zMjc0MzU0NywyMC45OTc2MTA4IDQuNSwyMSBMNC41LDIxIFogTTE5LjUsMjEgQzE4LjY3MTU3MjksMjEgMTgsMjAuMzI4NDI3MSAxOCwxOS41IEMxOCwxOC42NzE1NzI5IDE4LjY3MTU3MjksMTggMTkuNSwxOCBDMjAuMzI4NDI3MSwxOCAyMSwxOC42NzE1NzI5IDIxLDE5LjUgQzIwLjk5NzYxMDgsMjAuMzI3NDM1NSAyMC4zMjc0MzU1LDIwLjk5NzYxMDggMTkuNSwyMSBMMTkuNSwyMSBaIi8+JiN4YTsgICAgICAgICAgICAgICAgICAgIDxyZWN0IGhlaWdodD0iMjQiIHdpZHRoPSIyNCIgeT0iMCIgeD0iMCIgaWQ9Il9UcmFuc3BhcmVudF9SZWN0YW5nbGVfIi8+JiN4YTsgICAgICAgICAgICAgICAgPC9nPiYjeGE7ICAgICAgICAgICAgPC9nPiYjeGE7ICAgICAgICA8L2c+JiN4YTsgICAgPC9nPiYjeGE7PC9zdmc+;fontFamily=IBM Plex Sans;fontSize=14;spacingTop=-7;labelPosition=center;align=center;" parent="snGLk7mVCXV_w4UDnkFq-143" vertex="1">
          <mxGeometry x="50" y="50" width="48" height="48" as="geometry" />
        </mxCell>
        <mxCell id="snGLk7mVCXV_w4UDnkFq-148" value="" style="rounded=0;whiteSpace=wrap;html=1;fontFamily=IBM Plex Sans;fontSize=14;spacingBottom=-28;spacingTop=0;labelPosition=-100;verticalLabelPosition=top;align=center;verticalAlign=bottom;spacingLeft=9;spacing=0;expand=0;recursiveResize=0;spacingRight=0;container=1;collapsible=0;strokeColor=#1192E8;fillColor=#e5f6ff;" parent="oL_wjMoZXA4-4voO2rJ6-1" vertex="1">
          <mxGeometry x="125" y="1449" width="160" height="160" as="geometry">
            <mxRectangle width="670" as="alternateBounds" />
          </mxGeometry>
        </mxCell>
        <mxCell id="snGLk7mVCXV_w4UDnkFq-149" value="" style="rounded=0;whiteSpace=wrap;html=1;strokeColor=#1192E8;fillColor=#1192E8;fontFamily=IBM Plex Sans;" parent="snGLk7mVCXV_w4UDnkFq-148" vertex="1">
          <mxGeometry width="4" height="48" as="geometry" />
        </mxCell>
        <mxCell id="snGLk7mVCXV_w4UDnkFq-150" value="VPC A" style="text;html=1;strokeColor=none;fillColor=none;align=left;verticalAlign=middle;whiteSpace=wrap;rounded=0;fontFamily=IBM Plex Sans;fontSize=14;" parent="snGLk7mVCXV_w4UDnkFq-148" vertex="1">
          <mxGeometry x="51" y="8" width="69" height="20" as="geometry" />
        </mxCell>
        <mxCell id="snGLk7mVCXV_w4UDnkFq-151" value="" style="shape=image;image=data:image/svg+xml,PD94bWwgdmVyc2lvbj0iMS4wIiBlbmNvZGluZz0iVVRGLTgiPz4KPHN2ZyB3aWR0aD0iMjlweCIgaGVpZ2h0PSIyOHB4IiB2aWV3Qm94PSIwIDAgMjkgMjgiIHZlcnNpb249IjEuMSIgeG1sbnM9Imh0dHA6Ly93d3cudzMub3JnLzIwMDAvc3ZnIiB4bWxuczp4bGluaz0iaHR0cDovL3d3dy53My5vcmcvMTk5OS94bGluayI+CiAgICA8IS0tIEdlbmVyYXRvcjogU2tldGNoIDUzICg3MjUyMCkgLSBodHRwczovL3NrZXRjaGFwcC5jb20gLS0+CiAgICA8dGl0bGU+SUJNIFZQQyBCbGFjazwvdGl0bGU+CiAgICA8ZGVzYz5DcmVhdGVkIHdpdGggU2tldGNoLjwvZGVzYz4KICAgIDxnIGlkPSJQYWdlLTEiIHN0cm9rZT0ibm9uZSIgc3Ryb2tlLXdpZHRoPSIxIiBmaWxsPSJub25lIiBmaWxsLXJ1bGU9ImV2ZW5vZGQiPgogICAgICAgIDxnIGlkPSJJQk0tVlBDLUJsYWNrIiB0cmFuc2Zvcm09InRyYW5zbGF0ZSgwLjc1MDAwMCwgLTEuMDAwMDAwKSIgZmlsbD0iIzAwMDAwMCI+CiAgICAgICAgICAgIDxwYXRoIGQ9Ik0wLjAwMDksMS4wMDAyIEwwLjAwMDksOS4wMDAyIEw2LjU4NjksOS4wMDAyIEwyMC4wMDA5LDIyLjQxNDIgTDIwLjAwMDksMjkuMDAwMiBMMjguMDAwOSwyOS4wMDAyIEwyOC4wMDA5LDIxLjAwMDIgTDIxLjQxNTksMjEuMDAwMiBMOC4wMDA5LDcuNTg1MiBMOC4wMDA5LDEuMDAwMiBMMC4wMDA5LDEuMDAwMiBaIE0yLjAwMDksNy4wMDAyIEw2LjAwMDksNy4wMDAyIEw2LjAwMDksMy4wMDAyIEwyLjAwMDksMy4wMDAyIEwyLjAwMDksNy4wMDAyIFogTTIyLjAwMDksMjcuMDAxMiBMMjYuMDAxOSwyNy4wMDEyIEwyNi4wMDE5LDIzLjAwMDIgTDIyLjAwMDksMjMuMDAwMiBMMjIuMDAwOSwyNy4wMDEyIFoiIGlkPSJGaWxsLTEiPjwvcGF0aD4KICAgICAgICAgICAgPGcgaWQ9Ikdyb3VwLTgiIHRyYW5zZm9ybT0idHJhbnNsYXRlKDAuMDAwMDAwLCAwLjAwMTkwMCkiPgogICAgICAgICAgICAgICAgPGcgaWQ9Ikdyb3VwLTQiIHRyYW5zZm9ybT0idHJhbnNsYXRlKDExLjAwMDAwMCwgMC4wMDAwMDApIj4KICAgICAgICAgICAgICAgICAgICA8cGF0aCBkPSJNMTIuNjQ2Nyw2LjgxNzkgQzExLjU0MjcsNi44MTc5IDEwLjY0NjcsNS45MjI5IDEwLjY0NjcsNC44MTc5IEMxMC42NDY3LDMuNzEzOSAxMS41NDI3LDIuODE3OSAxMi42NDY3LDIuODE3OSBDMTMuNzUwNywyLjgxNzkgMTQuNjQ2NywzLjcxMzkgMTQuNjQ2Nyw0LjgxNzkgQzE0LjY0NTcsNS45MjE5IDEzLjc1MDcsNi44MTY5IDEyLjY0NjcsNi44MTc5IE0xNi43MzM3LDMuNTE4OSBDMTYuMzU2NywyLjQ5ODkgMTUuNTMxNywxLjY2NzkgMTQuNTE1NywxLjI4MDkgQzEyLjEyNzcsMC4zNzA5IDkuNzE3NywxLjc1NTkgOS4xNDI3LDMuOTk3OSBMMC4wMDA3LDMuOTk3OSBMMC4wMDA3LDUuOTk3OSBMOS4xNDI3LDUuOTk3OSBDOS41MDc3LDcuMzk3OSAxMC42MDE3LDguNDkwOSAxMi4wMDA3LDguODU1OSBMMTIuMDAwNywxNy45OTc5IEwxNC4wMDA3LDE3Ljk5NzkgTDE0LjAwMDcsOC44NTU5IEMxNi4yMjk3LDguMjgxOSAxNy42MTE3LDUuODk2OSAxNi43MzM3LDMuNTE4OSIgaWQ9IkZpbGwtMiI+PC9wYXRoPgogICAgICAgICAgICAgICAgPC9nPgogICAgICAgICAgICAgICAgPGcgaWQ9Ikdyb3VwLTciIHRyYW5zZm9ybT0idHJhbnNsYXRlKDAuMDAwMDAwLCAxMS4wMDAwMDApIj4KICAgICAgICAgICAgICAgICAgICA8cGF0aCBkPSJNMy42NDY3LDE1LjgxNzkgQzIuNTQyNywxNS44MTc5IDEuNjQ2NywxNC45MjI5IDEuNjQ2NywxMy44MTc5IEMxLjY0NjcsMTIuNzEzOSAyLjU0MjcsMTEuODE3OSAzLjY0NjcsMTEuODE3OSBDNC43NTA3LDExLjgxNzkgNS42NDY3LDEyLjcxMzkgNS42NDY3LDEzLjgxNzkgQzUuNjQ1NywxNC45MjE5IDQuNzUwNywxNS44MTY5IDMuNjQ2NywxNS44MTc5IEwzLjY0NjcsMTUuODE3OSBaIE0xNy4wMDA3LDEyLjk5NzkgTDcuODU4NywxMi45OTc5IEM3LjQ5MzcsMTEuNTk3OSA2LjQwMDcsMTAuNTA0OSA1LjAwMDcsMTAuMTM5OSBMNS4wMDA3LDAuOTk3OSBMMy4wMDA3LDAuOTk3OSBMMy4wMDA3LDEwLjEzOTkgQzAuNDg3NywxMC43ODQ5IC0wLjg1MTMsMTMuNjgzOSAwLjU5NDcsMTYuMTE5OSBDMS4xNTA3LDE3LjA1NTkgMi4xMTE3LDE3LjcyODkgMy4xODI3LDE3LjkyNjkgQzUuNDAyNywxOC4zMzc5IDcuMzUzNywxNi45Njk5IDcuODU4NywxNC45OTc5IEwxNy4wMDA3LDE0Ljk5NzkgTDE3LjAwMDcsMTIuOTk3OSBaIiBpZD0iRmlsbC01Ij48L3BhdGg+CiAgICAgICAgICAgICAgICA8L2c+CiAgICAgICAgICAgIDwvZz4KICAgICAgICA8L2c+CiAgICA8L2c+Cjwvc3ZnPg==;fontFamily=IBM Plex Sans;" parent="snGLk7mVCXV_w4UDnkFq-148" vertex="1">
          <mxGeometry x="17" y="9.849999999999909" width="24" height="24" as="geometry" />
        </mxCell>
        <mxCell id="snGLk7mVCXV_w4UDnkFq-152" value="10.4.0.0/16" style="shape=image;verticalLabelPosition=bottom;verticalAlign=top;imageAspect=0;aspect=fixed;image=data:image/svg+xml,PHN2ZyB4bWxuczp4bGluaz0iaHR0cDovL3d3dy53My5vcmcvMTk5OS94bGluayIgeG1sbnM9Imh0dHA6Ly93d3cudzMub3JnLzIwMDAvc3ZnIiB2ZXJzaW9uPSIxLjEiIHZpZXdCb3g9IjAgMCA0OCA0OCIgaGVpZ2h0PSI0OHB4IiB3aWR0aD0iNDhweCI+JiN4YTsgICAgPHRpdGxlPmlibS1jbG91ZC0tc3VibmV0czwvdGl0bGU+JiN4YTsgICAgPGcgZmlsbC1ydWxlPSJldmVub2RkIiBmaWxsPSJub25lIiBzdHJva2Utd2lkdGg9IjEiIHN0cm9rZT0ibm9uZSIgaWQ9IlYyLUljb25zIj4mI3hhOyAgICAgICAgPGcgdHJhbnNmb3JtPSJ0cmFuc2xhdGUoLTk2MSwgLTI0KSIgaWQ9IklCTS9DbG91ZC9OZXR3b3JrIj4mI3hhOyAgICAgICAgICAgIDxnIHRyYW5zZm9ybT0idHJhbnNsYXRlKDk2MSwgMjQpIiBpZD0iaWJtLWNsb3VkLS1zdWJuZXRzIj4mI3hhOyAgICAgICAgICAgICAgICA8cmVjdCBoZWlnaHQ9IjQ4IiB3aWR0aD0iNDgiIHk9IjAiIHg9IjAiIGZpbGw9IiMxMTkyRTgiIGlkPSJSZWN0YW5nbGUtQ29weS00NSIvPiYjeGE7ICAgICAgICAgICAgICAgIDxnIHRyYW5zZm9ybT0idHJhbnNsYXRlKDEyLjAwMDQsIDEyKSI+JiN4YTsgICAgICAgICAgICAgICAgICAgIDxwYXRoIGZpbGwtcnVsZT0ibm9uemVybyIgZmlsbD0iI0ZGRkZGRiIgaWQ9IlNoYXBlIiBkPSJNMTkuNSwxNi41IEMxOC45NjY1Njg0LDE2LjQ5ODgyNjggMTguNDQ0Njk2MiwxNi42NTUzODg1IDE4LDE2Ljk1IEwxNC41NjA3MjUsMTMuNSBMMTMuNSwxNC41NjA1NzUgTDE2Ljk1LDE4IEMxNi44MTgwNDE1LDE4LjIzNjAwMDUgMTYuNzE3MjAyOCwxOC40ODgwOTcyIDE2LjY1LDE4Ljc1IEw3LjM5MzcyNSwxOC43NSBDNy4zMTg3ODU0OCwxOC40ODM2Njk5IDcuMjAyODIwNTgsMTguMjMwNjM3MiA3LjA1LDE4IEwxOCw3LjA1IEMxOC40NDQ2OTYyLDcuMzQ0NjExNTMgMTguOTY2NTY4NCw3LjUwMTE3MzE3IDE5LjUsNy41IEMyMS4wNjA1NDI4LDcuNTA2MjcxNDggMjIuMzY1Mjc4NSw2LjMxNTA4Nzg3IDIyLjUwMDczMzcsNC43NjA0MjIyNSBDMjIuNjM2MTg4OSwzLjIwNTc1NjY0IDIxLjU1NzEyMDcsMS44MDY4NzY1MyAyMC4wMTkwMDgsMS41NDMxNjc3OSBDMTguNDgwODk1MiwxLjI3OTQ1OTA1IDE2Ljk5NzQ3NjUsMi4yMzkwMDE5NSAxNi42MDczMjUsMy43NSBMNy40MjUsMy43NSBDNy4wNjMxMzgwNCwyLjQzMDA5OTk3IDUuODY4NTU5NDIsMS41MTExOTMzNCA0LjUsMS41IEMyLjg0MzE0NTc1LDEuNSAxLjUsMi44NDMxNDU3NSAxLjUsNC41IEMxLjUsNi4xNTY4NTQyNSAyLjg0MzE0NTc1LDcuNSA0LjUsNy41IEM1LjAzMzQzMzU5LDcuNTAxMTg2NiA1LjU1NTMwOTU0LDcuMzQ0NjIzODEgNiw3LjA1IEw5LjQzOTM1LDEwLjUgTDEwLjUsOS40Mzk0MjUgTDcuMDUsNiBDNy4xODE5NjIzMiw1Ljc2NDAwMTI4IDcuMjgyODAxMTgsNS41MTE5MDQxMiA3LjM1LDUuMjUgTDE2LjYwNjM1LDUuMjUgQzE2LjY4MTI5ODQsNS41MTYzMTM4MSAxNi43OTcyMzU2LDUuNzY5MzQxNDcgMTYuOTUsNiBMNiwxNi45NSBDNS41NTUzMDk1NCwxNi42NTUzNzYyIDUuMDMzNDMzNTksMTYuNDk4ODEzNCA0LjUsMTYuNSBDMi45Mzk0NTcxNiwxNi40OTM3Mjg1IDEuNjM0NzIxNDksMTcuNjg0OTEyMSAxLjQ5OTI2NjMsMTkuMjM5NTc3NyBDMS4zNjM4MTExMSwyMC43OTQyNDM0IDIuNDQyODc5MjUsMjIuMTkzMTIzNSAzLjk4MDk5MjA1LDIyLjQ1NjgzMjIgQzUuNTE5MTA0ODUsMjIuNzIwNTQxIDcuMDAyNTIzNTQsMjEuNzYwOTk4MSA3LjM5MjY3NSwyMC4yNSBMMTYuNTc1LDIwLjI1IEMxNi45NjAyNDE3LDIxLjc2NTc0OTcgMTguNDQyNDY5MiwyMi43MzM2NDQzIDE5Ljk4NTE4MjYsMjIuNDc2ODQ5MyBDMjEuNTI3ODk2LDIyLjIyMDA1NDMgMjIuNjE2NjYxOCwyMC44MjQyMDA4IDIyLjQ5MDEyMjEsMTkuMjY1Mzg4NCBDMjIuMzYzNTgyNCwxNy43MDY1NzYgMjEuMDYzOTMzMiwxNi41MDQ2MDY4IDE5LjUsMTYuNSBaIE0xOS41LDMgQzIwLjMyODQyNzEsMyAyMSwzLjY3MTU3Mjg4IDIxLDQuNSBDMjEsNS4zMjg0MjcxMiAyMC4zMjg0MjcxLDYgMTkuNSw2IEMxOC42NzE1NzI5LDYgMTgsNS4zMjg0MjcxMiAxOCw0LjUgQzE4LjAwMjM4OTIsMy42NzI1NjQ1MyAxOC42NzI1NjQ1LDMuMDAyMzg5MTggMTkuNSwzIEwxOS41LDMgWiBNNC41LDYgQzMuNjcxNTcyODgsNiAzLDUuMzI4NDI3MTIgMyw0LjUgQzMsMy42NzE1NzI4OCAzLjY3MTU3Mjg4LDMgNC41LDMgQzUuMzI4NDI3MTIsMyA2LDMuNjcxNTcyODggNiw0LjUgQzUuOTk3NjEwODIsNS4zMjc0MzU0NyA1LjMyNzQzNTQ3LDUuOTk3NjEwODIgNC41LDYgWiBNNC41LDIxIEMzLjY3MTU3Mjg4LDIxIDMsMjAuMzI4NDI3MSAzLDE5LjUgQzMsMTguNjcxNTcyOSAzLjY3MTU3Mjg4LDE4IDQuNSwxOCBDNS4zMjg0MjcxMiwxOCA2LDE4LjY3MTU3MjkgNiwxOS41IEM1Ljk5NzYxMDgyLDIwLjMyNzQzNTUgNS4zMjc0MzU0NywyMC45OTc2MTA4IDQuNSwyMSBMNC41LDIxIFogTTE5LjUsMjEgQzE4LjY3MTU3MjksMjEgMTgsMjAuMzI4NDI3MSAxOCwxOS41IEMxOCwxOC42NzE1NzI5IDE4LjY3MTU3MjksMTggMTkuNSwxOCBDMjAuMzI4NDI3MSwxOCAyMSwxOC42NzE1NzI5IDIxLDE5LjUgQzIwLjk5NzYxMDgsMjAuMzI3NDM1NSAyMC4zMjc0MzU1LDIwLjk5NzYxMDggMTkuNSwyMSBMMTkuNSwyMSBaIi8+JiN4YTsgICAgICAgICAgICAgICAgICAgIDxyZWN0IGhlaWdodD0iMjQiIHdpZHRoPSIyNCIgeT0iMCIgeD0iMCIgaWQ9Il9UcmFuc3BhcmVudF9SZWN0YW5nbGVfIi8+JiN4YTsgICAgICAgICAgICAgICAgPC9nPiYjeGE7ICAgICAgICAgICAgPC9nPiYjeGE7ICAgICAgICA8L2c+JiN4YTsgICAgPC9nPiYjeGE7PC9zdmc+;fontFamily=IBM Plex Sans;fontSize=14;spacingTop=-7;labelPosition=center;align=center;" parent="snGLk7mVCXV_w4UDnkFq-148" vertex="1">
          <mxGeometry x="50" y="50" width="48" height="48" as="geometry" />
        </mxCell>
        <mxCell id="snGLk7mVCXV_w4UDnkFq-153" value="" style="rounded=0;whiteSpace=wrap;html=1;fontFamily=IBM Plex Sans;fontSize=14;spacingBottom=-28;spacingTop=0;labelPosition=-100;verticalLabelPosition=top;align=center;verticalAlign=bottom;spacingLeft=9;spacing=0;expand=0;recursiveResize=0;spacingRight=0;container=1;collapsible=0;strokeColor=#1192E8;fillColor=#e5f6ff;" parent="oL_wjMoZXA4-4voO2rJ6-1" vertex="1">
          <mxGeometry x="515" y="1449" width="160" height="160" as="geometry">
            <mxRectangle width="670" as="alternateBounds" />
          </mxGeometry>
        </mxCell>
        <mxCell id="snGLk7mVCXV_w4UDnkFq-154" value="" style="rounded=0;whiteSpace=wrap;html=1;strokeColor=#1192E8;fillColor=#1192E8;fontFamily=IBM Plex Sans;" parent="snGLk7mVCXV_w4UDnkFq-153" vertex="1">
          <mxGeometry width="4" height="48" as="geometry" />
        </mxCell>
        <mxCell id="snGLk7mVCXV_w4UDnkFq-155" value="" style="shape=image;image=data:image/svg+xml,PD94bWwgdmVyc2lvbj0iMS4wIiBlbmNvZGluZz0iVVRGLTgiPz4KPHN2ZyB3aWR0aD0iMjlweCIgaGVpZ2h0PSIyOHB4IiB2aWV3Qm94PSIwIDAgMjkgMjgiIHZlcnNpb249IjEuMSIgeG1sbnM9Imh0dHA6Ly93d3cudzMub3JnLzIwMDAvc3ZnIiB4bWxuczp4bGluaz0iaHR0cDovL3d3dy53My5vcmcvMTk5OS94bGluayI+CiAgICA8IS0tIEdlbmVyYXRvcjogU2tldGNoIDUzICg3MjUyMCkgLSBodHRwczovL3NrZXRjaGFwcC5jb20gLS0+CiAgICA8dGl0bGU+SUJNIFZQQyBCbGFjazwvdGl0bGU+CiAgICA8ZGVzYz5DcmVhdGVkIHdpdGggU2tldGNoLjwvZGVzYz4KICAgIDxnIGlkPSJQYWdlLTEiIHN0cm9rZT0ibm9uZSIgc3Ryb2tlLXdpZHRoPSIxIiBmaWxsPSJub25lIiBmaWxsLXJ1bGU9ImV2ZW5vZGQiPgogICAgICAgIDxnIGlkPSJJQk0tVlBDLUJsYWNrIiB0cmFuc2Zvcm09InRyYW5zbGF0ZSgwLjc1MDAwMCwgLTEuMDAwMDAwKSIgZmlsbD0iIzAwMDAwMCI+CiAgICAgICAgICAgIDxwYXRoIGQ9Ik0wLjAwMDksMS4wMDAyIEwwLjAwMDksOS4wMDAyIEw2LjU4NjksOS4wMDAyIEwyMC4wMDA5LDIyLjQxNDIgTDIwLjAwMDksMjkuMDAwMiBMMjguMDAwOSwyOS4wMDAyIEwyOC4wMDA5LDIxLjAwMDIgTDIxLjQxNTksMjEuMDAwMiBMOC4wMDA5LDcuNTg1MiBMOC4wMDA5LDEuMDAwMiBMMC4wMDA5LDEuMDAwMiBaIE0yLjAwMDksNy4wMDAyIEw2LjAwMDksNy4wMDAyIEw2LjAwMDksMy4wMDAyIEwyLjAwMDksMy4wMDAyIEwyLjAwMDksNy4wMDAyIFogTTIyLjAwMDksMjcuMDAxMiBMMjYuMDAxOSwyNy4wMDEyIEwyNi4wMDE5LDIzLjAwMDIgTDIyLjAwMDksMjMuMDAwMiBMMjIuMDAwOSwyNy4wMDEyIFoiIGlkPSJGaWxsLTEiPjwvcGF0aD4KICAgICAgICAgICAgPGcgaWQ9Ikdyb3VwLTgiIHRyYW5zZm9ybT0idHJhbnNsYXRlKDAuMDAwMDAwLCAwLjAwMTkwMCkiPgogICAgICAgICAgICAgICAgPGcgaWQ9Ikdyb3VwLTQiIHRyYW5zZm9ybT0idHJhbnNsYXRlKDExLjAwMDAwMCwgMC4wMDAwMDApIj4KICAgICAgICAgICAgICAgICAgICA8cGF0aCBkPSJNMTIuNjQ2Nyw2LjgxNzkgQzExLjU0MjcsNi44MTc5IDEwLjY0NjcsNS45MjI5IDEwLjY0NjcsNC44MTc5IEMxMC42NDY3LDMuNzEzOSAxMS41NDI3LDIuODE3OSAxMi42NDY3LDIuODE3OSBDMTMuNzUwNywyLjgxNzkgMTQuNjQ2NywzLjcxMzkgMTQuNjQ2Nyw0LjgxNzkgQzE0LjY0NTcsNS45MjE5IDEzLjc1MDcsNi44MTY5IDEyLjY0NjcsNi44MTc5IE0xNi43MzM3LDMuNTE4OSBDMTYuMzU2NywyLjQ5ODkgMTUuNTMxNywxLjY2NzkgMTQuNTE1NywxLjI4MDkgQzEyLjEyNzcsMC4zNzA5IDkuNzE3NywxLjc1NTkgOS4xNDI3LDMuOTk3OSBMMC4wMDA3LDMuOTk3OSBMMC4wMDA3LDUuOTk3OSBMOS4xNDI3LDUuOTk3OSBDOS41MDc3LDcuMzk3OSAxMC42MDE3LDguNDkwOSAxMi4wMDA3LDguODU1OSBMMTIuMDAwNywxNy45OTc5IEwxNC4wMDA3LDE3Ljk5NzkgTDE0LjAwMDcsOC44NTU5IEMxNi4yMjk3LDguMjgxOSAxNy42MTE3LDUuODk2OSAxNi43MzM3LDMuNTE4OSIgaWQ9IkZpbGwtMiI+PC9wYXRoPgogICAgICAgICAgICAgICAgPC9nPgogICAgICAgICAgICAgICAgPGcgaWQ9Ikdyb3VwLTciIHRyYW5zZm9ybT0idHJhbnNsYXRlKDAuMDAwMDAwLCAxMS4wMDAwMDApIj4KICAgICAgICAgICAgICAgICAgICA8cGF0aCBkPSJNMy42NDY3LDE1LjgxNzkgQzIuNTQyNywxNS44MTc5IDEuNjQ2NywxNC45MjI5IDEuNjQ2NywxMy44MTc5IEMxLjY0NjcsMTIuNzEzOSAyLjU0MjcsMTEuODE3OSAzLjY0NjcsMTEuODE3OSBDNC43NTA3LDExLjgxNzkgNS42NDY3LDEyLjcxMzkgNS42NDY3LDEzLjgxNzkgQzUuNjQ1NywxNC45MjE5IDQuNzUwNywxNS44MTY5IDMuNjQ2NywxNS44MTc5IEwzLjY0NjcsMTUuODE3OSBaIE0xNy4wMDA3LDEyLjk5NzkgTDcuODU4NywxMi45OTc5IEM3LjQ5MzcsMTEuNTk3OSA2LjQwMDcsMTAuNTA0OSA1LjAwMDcsMTAuMTM5OSBMNS4wMDA3LDAuOTk3OSBMMy4wMDA3LDAuOTk3OSBMMy4wMDA3LDEwLjEzOTkgQzAuNDg3NywxMC43ODQ5IC0wLjg1MTMsMTMuNjgzOSAwLjU5NDcsMTYuMTE5OSBDMS4xNTA3LDE3LjA1NTkgMi4xMTE3LDE3LjcyODkgMy4xODI3LDE3LjkyNjkgQzUuNDAyNywxOC4zMzc5IDcuMzUzNywxNi45Njk5IDcuODU4NywxNC45OTc5IEwxNy4wMDA3LDE0Ljk5NzkgTDE3LjAwMDcsMTIuOTk3OSBaIiBpZD0iRmlsbC01Ij48L3BhdGg+CiAgICAgICAgICAgICAgICA8L2c+CiAgICAgICAgICAgIDwvZz4KICAgICAgICA8L2c+CiAgICA8L2c+Cjwvc3ZnPg==;fontFamily=IBM Plex Sans;" parent="snGLk7mVCXV_w4UDnkFq-153" vertex="1">
          <mxGeometry x="17" y="9.849999999999909" width="24" height="24" as="geometry" />
        </mxCell>
        <mxCell id="snGLk7mVCXV_w4UDnkFq-156" value="10.7.0.0/16" style="shape=image;verticalLabelPosition=bottom;verticalAlign=top;imageAspect=0;aspect=fixed;image=data:image/svg+xml,PHN2ZyB4bWxuczp4bGluaz0iaHR0cDovL3d3dy53My5vcmcvMTk5OS94bGluayIgeG1sbnM9Imh0dHA6Ly93d3cudzMub3JnLzIwMDAvc3ZnIiB2ZXJzaW9uPSIxLjEiIHZpZXdCb3g9IjAgMCA0OCA0OCIgaGVpZ2h0PSI0OHB4IiB3aWR0aD0iNDhweCI+JiN4YTsgICAgPHRpdGxlPmlibS1jbG91ZC0tc3VibmV0czwvdGl0bGU+JiN4YTsgICAgPGcgZmlsbC1ydWxlPSJldmVub2RkIiBmaWxsPSJub25lIiBzdHJva2Utd2lkdGg9IjEiIHN0cm9rZT0ibm9uZSIgaWQ9IlYyLUljb25zIj4mI3hhOyAgICAgICAgPGcgdHJhbnNmb3JtPSJ0cmFuc2xhdGUoLTk2MSwgLTI0KSIgaWQ9IklCTS9DbG91ZC9OZXR3b3JrIj4mI3hhOyAgICAgICAgICAgIDxnIHRyYW5zZm9ybT0idHJhbnNsYXRlKDk2MSwgMjQpIiBpZD0iaWJtLWNsb3VkLS1zdWJuZXRzIj4mI3hhOyAgICAgICAgICAgICAgICA8cmVjdCBoZWlnaHQ9IjQ4IiB3aWR0aD0iNDgiIHk9IjAiIHg9IjAiIGZpbGw9IiMxMTkyRTgiIGlkPSJSZWN0YW5nbGUtQ29weS00NSIvPiYjeGE7ICAgICAgICAgICAgICAgIDxnIHRyYW5zZm9ybT0idHJhbnNsYXRlKDEyLjAwMDQsIDEyKSI+JiN4YTsgICAgICAgICAgICAgICAgICAgIDxwYXRoIGZpbGwtcnVsZT0ibm9uemVybyIgZmlsbD0iI0ZGRkZGRiIgaWQ9IlNoYXBlIiBkPSJNMTkuNSwxNi41IEMxOC45NjY1Njg0LDE2LjQ5ODgyNjggMTguNDQ0Njk2MiwxNi42NTUzODg1IDE4LDE2Ljk1IEwxNC41NjA3MjUsMTMuNSBMMTMuNSwxNC41NjA1NzUgTDE2Ljk1LDE4IEMxNi44MTgwNDE1LDE4LjIzNjAwMDUgMTYuNzE3MjAyOCwxOC40ODgwOTcyIDE2LjY1LDE4Ljc1IEw3LjM5MzcyNSwxOC43NSBDNy4zMTg3ODU0OCwxOC40ODM2Njk5IDcuMjAyODIwNTgsMTguMjMwNjM3MiA3LjA1LDE4IEwxOCw3LjA1IEMxOC40NDQ2OTYyLDcuMzQ0NjExNTMgMTguOTY2NTY4NCw3LjUwMTE3MzE3IDE5LjUsNy41IEMyMS4wNjA1NDI4LDcuNTA2MjcxNDggMjIuMzY1Mjc4NSw2LjMxNTA4Nzg3IDIyLjUwMDczMzcsNC43NjA0MjIyNSBDMjIuNjM2MTg4OSwzLjIwNTc1NjY0IDIxLjU1NzEyMDcsMS44MDY4NzY1MyAyMC4wMTkwMDgsMS41NDMxNjc3OSBDMTguNDgwODk1MiwxLjI3OTQ1OTA1IDE2Ljk5NzQ3NjUsMi4yMzkwMDE5NSAxNi42MDczMjUsMy43NSBMNy40MjUsMy43NSBDNy4wNjMxMzgwNCwyLjQzMDA5OTk3IDUuODY4NTU5NDIsMS41MTExOTMzNCA0LjUsMS41IEMyLjg0MzE0NTc1LDEuNSAxLjUsMi44NDMxNDU3NSAxLjUsNC41IEMxLjUsNi4xNTY4NTQyNSAyLjg0MzE0NTc1LDcuNSA0LjUsNy41IEM1LjAzMzQzMzU5LDcuNTAxMTg2NiA1LjU1NTMwOTU0LDcuMzQ0NjIzODEgNiw3LjA1IEw5LjQzOTM1LDEwLjUgTDEwLjUsOS40Mzk0MjUgTDcuMDUsNiBDNy4xODE5NjIzMiw1Ljc2NDAwMTI4IDcuMjgyODAxMTgsNS41MTE5MDQxMiA3LjM1LDUuMjUgTDE2LjYwNjM1LDUuMjUgQzE2LjY4MTI5ODQsNS41MTYzMTM4MSAxNi43OTcyMzU2LDUuNzY5MzQxNDcgMTYuOTUsNiBMNiwxNi45NSBDNS41NTUzMDk1NCwxNi42NTUzNzYyIDUuMDMzNDMzNTksMTYuNDk4ODEzNCA0LjUsMTYuNSBDMi45Mzk0NTcxNiwxNi40OTM3Mjg1IDEuNjM0NzIxNDksMTcuNjg0OTEyMSAxLjQ5OTI2NjMsMTkuMjM5NTc3NyBDMS4zNjM4MTExMSwyMC43OTQyNDM0IDIuNDQyODc5MjUsMjIuMTkzMTIzNSAzLjk4MDk5MjA1LDIyLjQ1NjgzMjIgQzUuNTE5MTA0ODUsMjIuNzIwNTQxIDcuMDAyNTIzNTQsMjEuNzYwOTk4MSA3LjM5MjY3NSwyMC4yNSBMMTYuNTc1LDIwLjI1IEMxNi45NjAyNDE3LDIxLjc2NTc0OTcgMTguNDQyNDY5MiwyMi43MzM2NDQzIDE5Ljk4NTE4MjYsMjIuNDc2ODQ5MyBDMjEuNTI3ODk2LDIyLjIyMDA1NDMgMjIuNjE2NjYxOCwyMC44MjQyMDA4IDIyLjQ5MDEyMjEsMTkuMjY1Mzg4NCBDMjIuMzYzNTgyNCwxNy43MDY1NzYgMjEuMDYzOTMzMiwxNi41MDQ2MDY4IDE5LjUsMTYuNSBaIE0xOS41LDMgQzIwLjMyODQyNzEsMyAyMSwzLjY3MTU3Mjg4IDIxLDQuNSBDMjEsNS4zMjg0MjcxMiAyMC4zMjg0MjcxLDYgMTkuNSw2IEMxOC42NzE1NzI5LDYgMTgsNS4zMjg0MjcxMiAxOCw0LjUgQzE4LjAwMjM4OTIsMy42NzI1NjQ1MyAxOC42NzI1NjQ1LDMuMDAyMzg5MTggMTkuNSwzIEwxOS41LDMgWiBNNC41LDYgQzMuNjcxNTcyODgsNiAzLDUuMzI4NDI3MTIgMyw0LjUgQzMsMy42NzE1NzI4OCAzLjY3MTU3Mjg4LDMgNC41LDMgQzUuMzI4NDI3MTIsMyA2LDMuNjcxNTcyODggNiw0LjUgQzUuOTk3NjEwODIsNS4zMjc0MzU0NyA1LjMyNzQzNTQ3LDUuOTk3NjEwODIgNC41LDYgWiBNNC41LDIxIEMzLjY3MTU3Mjg4LDIxIDMsMjAuMzI4NDI3MSAzLDE5LjUgQzMsMTguNjcxNTcyOSAzLjY3MTU3Mjg4LDE4IDQuNSwxOCBDNS4zMjg0MjcxMiwxOCA2LDE4LjY3MTU3MjkgNiwxOS41IEM1Ljk5NzYxMDgyLDIwLjMyNzQzNTUgNS4zMjc0MzU0NywyMC45OTc2MTA4IDQuNSwyMSBMNC41LDIxIFogTTE5LjUsMjEgQzE4LjY3MTU3MjksMjEgMTgsMjAuMzI4NDI3MSAxOCwxOS41IEMxOCwxOC42NzE1NzI5IDE4LjY3MTU3MjksMTggMTkuNSwxOCBDMjAuMzI4NDI3MSwxOCAyMSwxOC42NzE1NzI5IDIxLDE5LjUgQzIwLjk5NzYxMDgsMjAuMzI3NDM1NSAyMC4zMjc0MzU1LDIwLjk5NzYxMDggMTkuNSwyMSBMMTkuNSwyMSBaIi8+JiN4YTsgICAgICAgICAgICAgICAgICAgIDxyZWN0IGhlaWdodD0iMjQiIHdpZHRoPSIyNCIgeT0iMCIgeD0iMCIgaWQ9Il9UcmFuc3BhcmVudF9SZWN0YW5nbGVfIi8+JiN4YTsgICAgICAgICAgICAgICAgPC9nPiYjeGE7ICAgICAgICAgICAgPC9nPiYjeGE7ICAgICAgICA8L2c+JiN4YTsgICAgPC9nPiYjeGE7PC9zdmc+;fontFamily=IBM Plex Sans;fontSize=14;spacingTop=-7;labelPosition=center;align=center;" parent="snGLk7mVCXV_w4UDnkFq-153" vertex="1">
          <mxGeometry x="50" y="50" width="48" height="48" as="geometry" />
        </mxCell>
        <mxCell id="snGLk7mVCXV_w4UDnkFq-157" value="VPC D" style="text;html=1;strokeColor=none;fillColor=none;align=left;verticalAlign=middle;whiteSpace=wrap;rounded=0;fontFamily=IBM Plex Sans;fontSize=14;" parent="snGLk7mVCXV_w4UDnkFq-153" vertex="1">
          <mxGeometry x="50" y="9.849999999999909" width="79" height="20" as="geometry" />
        </mxCell>
        <mxCell id="snGLk7mVCXV_w4UDnkFq-158" value="" style="endArrow=open;html=1;strokeWidth=1;edgeStyle=orthogonalEdgeStyle;rounded=0;endFill=0;exitX=1.003;exitY=0.669;exitDx=0;exitDy=0;jumpStyle=none;exitPerimeter=0;fontFamily=IBM Plex Sans;" parent="oL_wjMoZXA4-4voO2rJ6-1" source="snGLk7mVCXV_w4UDnkFq-148" target="snGLk7mVCXV_w4UDnkFq-171" edge="1">
          <mxGeometry width="50" height="50" relative="1" as="geometry">
            <mxPoint x="195" y="1429" as="sourcePoint" />
            <mxPoint x="456" y="1666" as="targetPoint" />
            <Array as="points">
              <mxPoint x="455" y="1556" />
              <mxPoint x="455" y="1666" />
            </Array>
          </mxGeometry>
        </mxCell>
        <mxCell id="snGLk7mVCXV_w4UDnkFq-159" value="Routes using" style="edgeLabel;html=1;align=center;verticalAlign=middle;resizable=0;points=[];rotation=90;fontFamily=IBM Plex Sans;" parent="snGLk7mVCXV_w4UDnkFq-158" vertex="1" connectable="0">
          <mxGeometry x="-0.0774" y="-2" relative="1" as="geometry">
            <mxPoint x="10.96" y="98" as="offset" />
          </mxGeometry>
        </mxCell>
        <mxCell id="snGLk7mVCXV_w4UDnkFq-160" value="Transit Gateway (Global)" style="shape=image;verticalLabelPosition=bottom;labelBackgroundColor=#ffffff;verticalAlign=top;aspect=fixed;imageAspect=0;image=data:image/svg+xml,PHN2ZyB4bWxuczp4bGluaz0iaHR0cDovL3d3dy53My5vcmcvMTk5OS94bGluayIgeG1sbnM9Imh0dHA6Ly93d3cudzMub3JnLzIwMDAvc3ZnIiB2ZXJzaW9uPSIxLjEiIHZpZXdCb3g9IjAgMCA0OCA0OCIgaGVpZ2h0PSI0OHB4IiB3aWR0aD0iNDhweCI+JiN4YTsgICAgPHRpdGxlPnRyYW5zaXQtZ2F0ZXdheTwvdGl0bGU+JiN4YTsgICAgPGcgZmlsbC1ydWxlPSJldmVub2RkIiBmaWxsPSJub25lIiBzdHJva2Utd2lkdGg9IjEiIHN0cm9rZT0ibm9uZSIgaWQ9IlYyLUljb25zIj4mI3hhOyAgICAgICAgPGcgdHJhbnNmb3JtPSJ0cmFuc2xhdGUoLTExNjIsIC04MSkiIGlkPSJJQk0vQ2xvdWQvTmV0d29yayI+JiN4YTsgICAgICAgICAgICA8ZyB0cmFuc2Zvcm09InRyYW5zbGF0ZSgxMTYyLCA4MSkiIGlkPSJ0cmFuc2l0LWdhdGV3YXkiPiYjeGE7ICAgICAgICAgICAgICAgIDxyZWN0IGhlaWdodD0iNDgiIHdpZHRoPSI0OCIgeT0iMCIgeD0iMCIgZmlsbD0iIzExOTJFOCIgaWQ9IlJlY3RhbmdsZS1Db3B5Ii8+JiN4YTsgICAgICAgICAgICAgICAgPGcgdHJhbnNmb3JtPSJ0cmFuc2xhdGUoMTIsIDEyKSI+JiN4YTsgICAgICAgICAgICAgICAgICAgIDxwYXRoIGZpbGwtcnVsZT0ibm9uemVybyIgZmlsbD0iI0ZGRkZGRiIgaWQ9IlBhdGgiIGQ9Ik05LjM3NSw1LjYyNSBMOC4zMjUsNC41NzUgTDEwLjk1LDEuOTUgQzExLjU1LDEuMzUgMTIuNTI1LDEuMzUgMTMuMDUsMS45NSBMMTUuNjc1LDQuNTc1IEwxNC42MjUsNS42MjUgTDEyLDMgTDkuMzc1LDUuNjI1IFoiLz4mI3hhOyAgICAgICAgICAgICAgICAgICAgPHBhdGggZmlsbC1ydWxlPSJub256ZXJvIiBmaWxsPSIjRkZGRkZGIiBpZD0iUGF0aCIgZD0iTTE0LjYyNSwxOC4zNzUgTDE1LjY3NSwxOS40MjUgTDEzLjA1LDIyLjA1IEMxMi40NSwyMi42NSAxMS40NzUsMjIuNjUgMTAuOTUsMjIuMDUgTDguMzI1LDE5LjQyNSBMOS4zNzUsMTguMzc1IEwxMiwyMSBMMTQuNjI1LDE4LjM3NSBaIi8+JiN4YTsgICAgICAgICAgICAgICAgICAgIDxwYXRoIGZpbGwtcnVsZT0ibm9uemVybyIgZmlsbD0iI0ZGRkZGRiIgaWQ9IlBhdGgiIGQ9Ik0xOC4zNzUsOS4zNzUgTDE5LjQyNSw4LjMyNSBMMjIuMDUsMTAuOTUgQzIyLjY1LDExLjU1IDIyLjY1LDEyLjUyNSAyMi4wNSwxMy4wNSBMMTkuNDI1LDE1LjY3NSBMMTguMzc1LDE0LjYyNSBMMjEsMTIgTDE4LjM3NSw5LjM3NSBaIi8+JiN4YTsgICAgICAgICAgICAgICAgICAgIDxwYXRoIGZpbGwtcnVsZT0ibm9uemVybyIgZmlsbD0iI0ZGRkZGRiIgaWQ9IlBhdGgiIGQ9Ik01LjYyNSwxNC42MjUgTDQuNTc1LDE1LjY3NSBMMS45NSwxMy4wNSBDMS4zNSwxMi40NSAxLjM1LDExLjQ3NSAxLjk1LDEwLjk1IEw0LjU3NSw4LjMyNSBMNS42MjUsOS4zNzUgTDMsMTIgTDUuNjI1LDE0LjYyNSBaIi8+JiN4YTsgICAgICAgICAgICAgICAgICAgIDxwYXRoIGZpbGwtcnVsZT0ibm9uemVybyIgZmlsbD0iI0ZGRkZGRiIgaWQ9IlNoYXBlIiBkPSJNMTkuNSwxOCBDMTkuMzUsMTggMTkuMjc1LDE4IDE5LjEyNSwxOC4wNzUgTDE0LjU1LDEzLjUgQzE1LjE1LDEyLjYgMTUuMTUsMTEuNCAxNC41NSwxMC41IEwxOS4xMjUsNS45MjUgQzE5LjI3NSw2IDE5LjM1LDYgMTkuNSw2IEMyMC4zMjUsNiAyMSw1LjMyNSAyMSw0LjUgQzIxLDMuNjc1IDIwLjMyNSwzIDE5LjUsMyBDMTguNjc1LDMgMTgsMy42NzUgMTgsNC41IEMxOCw0LjY1IDE4LDQuNzI1IDE4LjA3NSw0Ljg3NSBMMTMuNSw5LjQ1IEMxMi42LDguODUgMTEuNCw4Ljg1IDEwLjUsOS40NSBMNS45MjUsNC44NzUgQzYsNC43MjUgNiw0LjY1IDYsNC41IEM2LDMuNjc1IDUuMzI1LDMgNC41LDMgQzMuNjc1LDMgMywzLjY3NSAzLDQuNSBDMyw1LjMyNSAzLjY3NSw2IDQuNSw2IEM0LjY1LDYgNC43MjUsNiA0Ljg3NSw1LjkyNSBMOS40NSwxMC41IEM4Ljg1LDExLjQgOC44NSwxMi42IDkuNDUsMTMuNSBMNC44NzUsMTguMDc1IEM0LjcyNSwxOCA0LjY1LDE4IDQuNSwxOCBDMy42NzUsMTggMywxOC42NzUgMywxOS41IEMzLDIwLjMyNSAzLjY3NSwyMSA0LjUsMjEgQzUuMzI1LDIxIDYsMjAuMzI1IDYsMTkuNSBDNiwxOS4zNSA2LDE5LjI3NSA1LjkyNSwxOS4xMjUgTDEwLjUsMTQuNTUgQzExLjQsMTUuMTUgMTIuNiwxNS4xNSAxMy41LDE0LjU1IEwxOC4wNzUsMTkuMTI1IEMxOC4wNzUsMTkuMjc1IDE4LDE5LjM1IDE4LDE5LjUgQzE4LDIwLjMyNSAxOC42NzUsMjEgMTkuNSwyMSBDMjAuMzI1LDIxIDIxLDIwLjMyNSAyMSwxOS41IEMyMSwxOC42NzUgMjAuMzI1LDE4IDE5LjUsMTggWiBNMTIsMTMuNSBDMTEuMTc1LDEzLjUgMTAuNSwxMi44MjUgMTAuNSwxMiBDMTAuNSwxMS4xNzUgMTEuMTc1LDEwLjUgMTIsMTAuNSBDMTIuODI1LDEwLjUgMTMuNSwxMS4xNzUgMTMuNSwxMiBDMTMuNSwxMi44MjUgMTIuODI1LDEzLjUgMTIsMTMuNSBaIi8+JiN4YTsgICAgICAgICAgICAgICAgICAgIDxyZWN0IGhlaWdodD0iMjQiIHdpZHRoPSIyNCIgeT0iMCIgeD0iMCIgaWQ9Il9UcmFuc3BhcmVudF9SZWN0YW5nbGVfIi8+JiN4YTsgICAgICAgICAgICAgICAgPC9nPiYjeGE7ICAgICAgICAgICAgPC9nPiYjeGE7ICAgICAgICA8L2c+JiN4YTsgICAgPC9nPiYjeGE7PC9zdmc+;whiteSpace=wrap;fontFamily=IBM Plex Sans;" parent="oL_wjMoZXA4-4voO2rJ6-1" vertex="1">
          <mxGeometry x="352.75" y="1529" width="50" height="50" as="geometry" />
        </mxCell>
        <mxCell id="snGLk7mVCXV_w4UDnkFq-161" value="" style="endArrow=open;html=1;strokeWidth=1;exitX=1.01;exitY=0.471;exitDx=0;exitDy=0;exitPerimeter=0;entryX=1;entryY=0.5;entryDx=0;entryDy=0;edgeStyle=orthogonalEdgeStyle;rounded=0;endFill=0;fontFamily=IBM Plex Sans;" parent="oL_wjMoZXA4-4voO2rJ6-1" source="snGLk7mVCXV_w4UDnkFq-153" target="snGLk7mVCXV_w4UDnkFq-172" edge="1">
          <mxGeometry width="50" height="50" relative="1" as="geometry">
            <mxPoint x="687.5305000000001" y="1525" as="sourcePoint" />
            <mxPoint x="626" y="1491" as="targetPoint" />
            <Array as="points">
              <mxPoint x="745" y="1524" />
              <mxPoint x="745" y="1746" />
            </Array>
          </mxGeometry>
        </mxCell>
        <mxCell id="snGLk7mVCXV_w4UDnkFq-162" value="Routes using" style="edgeLabel;html=1;align=center;verticalAlign=middle;resizable=0;points=[];rotation=90;fontFamily=IBM Plex Sans;" parent="snGLk7mVCXV_w4UDnkFq-161" vertex="1" connectable="0">
          <mxGeometry x="-0.4924" y="-57" relative="1" as="geometry">
            <mxPoint x="59" y="125.97" as="offset" />
          </mxGeometry>
        </mxCell>
        <mxCell id="snGLk7mVCXV_w4UDnkFq-163" style="edgeStyle=orthogonalEdgeStyle;rounded=0;orthogonalLoop=1;jettySize=auto;html=1;exitX=0;exitY=0.5;exitDx=0;exitDy=0;entryX=0.5;entryY=1;entryDx=0;entryDy=0;startArrow=open;startFill=0;endArrow=none;endFill=0;strokeWidth=1;fontFamily=IBM Plex Sans;" parent="oL_wjMoZXA4-4voO2rJ6-1" source="snGLk7mVCXV_w4UDnkFq-173" target="snGLk7mVCXV_w4UDnkFq-143" edge="1">
          <mxGeometry relative="1" as="geometry">
            <Array as="points">
              <mxPoint x="455" y="1826" />
              <mxPoint x="455" y="1851" />
              <mxPoint x="206" y="1851" />
              <mxPoint x="206" y="1839" />
            </Array>
            <mxPoint x="206.03999999999996" y="1821" as="targetPoint" />
          </mxGeometry>
        </mxCell>
        <mxCell id="snGLk7mVCXV_w4UDnkFq-164" value="Routes using" style="edgeLabel;html=1;align=center;verticalAlign=middle;resizable=0;points=[];fontFamily=IBM Plex Sans;" parent="snGLk7mVCXV_w4UDnkFq-163" vertex="1" connectable="0">
          <mxGeometry x="0.0361" y="-1" relative="1" as="geometry">
            <mxPoint as="offset" />
          </mxGeometry>
        </mxCell>
        <mxCell id="snGLk7mVCXV_w4UDnkFq-165" value="" style="endArrow=oval;html=1;exitX=1.008;exitY=0.127;exitDx=0;exitDy=0;exitPerimeter=0;entryX=0.25;entryY=0;entryDx=0;entryDy=0;startArrow=oval;startFill=1;endFill=1;strokeWidth=2;edgeStyle=orthogonalEdgeStyle;rounded=0;fontFamily=IBM Plex Sans;" parent="oL_wjMoZXA4-4voO2rJ6-1" source="snGLk7mVCXV_w4UDnkFq-148" target="snGLk7mVCXV_w4UDnkFq-160" edge="1">
          <mxGeometry x="186" y="1202" width="50" height="50" as="geometry">
            <mxPoint x="293.0799999999999" y="1469.9599999999998" as="sourcePoint" />
            <mxPoint x="541" y="1351" as="targetPoint" />
            <Array as="points">
              <mxPoint x="365" y="1469" />
            </Array>
          </mxGeometry>
        </mxCell>
        <mxCell id="snGLk7mVCXV_w4UDnkFq-166" value="&lt;b&gt;[Protocol HTTPS&lt;br&gt;&amp;nbsp;SSL:443]&lt;/b&gt;" style="edgeLabel;html=1;align=center;verticalAlign=middle;resizable=0;points=[];rotation=90;fontFamily=IBM Plex Sans;" parent="snGLk7mVCXV_w4UDnkFq-165" vertex="1" connectable="0">
          <mxGeometry relative="1" as="geometry">
            <mxPoint x="-19.08" y="12.02" as="offset" />
          </mxGeometry>
        </mxCell>
        <mxCell id="snGLk7mVCXV_w4UDnkFq-167" style="edgeStyle=orthogonalEdgeStyle;rounded=0;orthogonalLoop=1;jettySize=auto;html=1;exitX=0.75;exitY=0;exitDx=0;exitDy=0;strokeWidth=2;endArrow=oval;endFill=1;startArrow=oval;startFill=1;fontFamily=IBM Plex Sans;" parent="oL_wjMoZXA4-4voO2rJ6-1" source="snGLk7mVCXV_w4UDnkFq-160" edge="1">
          <mxGeometry relative="1" as="geometry">
            <mxPoint x="516" y="1469" as="targetPoint" />
            <Array as="points">
              <mxPoint x="390" y="1469" />
            </Array>
          </mxGeometry>
        </mxCell>
        <mxCell id="snGLk7mVCXV_w4UDnkFq-168" value="&lt;b&gt;[Protocol HTTPS&lt;br&gt;&amp;nbsp;SSL:443]&lt;/b&gt;" style="edgeLabel;html=1;align=center;verticalAlign=middle;resizable=0;points=[];rotation=90;fontFamily=IBM Plex Sans;" parent="snGLk7mVCXV_w4UDnkFq-167" vertex="1" connectable="0">
          <mxGeometry x="-0.0786" relative="1" as="geometry">
            <mxPoint x="-5.3" y="13.01" as="offset" />
          </mxGeometry>
        </mxCell>
        <mxCell id="snGLk7mVCXV_w4UDnkFq-169" style="edgeStyle=orthogonalEdgeStyle;rounded=0;orthogonalLoop=1;jettySize=auto;html=1;exitX=0.5;exitY=1;exitDx=0;exitDy=0;startArrow=oval;startFill=1;endArrow=oval;endFill=1;strokeWidth=2;fontFamily=IBM Plex Sans;" parent="oL_wjMoZXA4-4voO2rJ6-1" source="snGLk7mVCXV_w4UDnkFq-160" edge="1">
          <mxGeometry relative="1" as="geometry">
            <mxPoint x="285" y="1785" as="targetPoint" />
            <Array as="points">
              <mxPoint x="378" y="1785" />
            </Array>
          </mxGeometry>
        </mxCell>
        <mxCell id="snGLk7mVCXV_w4UDnkFq-170" value="&lt;b&gt;[Protocol HTTPS&lt;br&gt;SSL:443]&lt;/b&gt;" style="edgeLabel;html=1;align=center;verticalAlign=middle;resizable=0;points=[];rotation=0;fontFamily=IBM Plex Sans;" parent="snGLk7mVCXV_w4UDnkFq-169" vertex="1" connectable="0">
          <mxGeometry x="-0.2369" y="2" relative="1" as="geometry">
            <mxPoint as="offset" />
          </mxGeometry>
        </mxCell>
        <mxCell id="snGLk7mVCXV_w4UDnkFq-171" value="&lt;div&gt;VPC A Routing Table&lt;/div&gt;&lt;div style=&quot;text-align: left&quot;&gt;10.4.0.0/16 from Local&lt;/div&gt;&lt;div style=&quot;text-align: left&quot;&gt;10.7.0.016 from VPC D via Transit Gateway&lt;/div&gt;&lt;div&gt;&lt;div style=&quot;text-align: left&quot;&gt;10.8.0.016 from VPC E via Transit Gateway&lt;/div&gt;&lt;/div&gt;" style="fontStyle=0;verticalAlign=top;align=center;spacingTop=-2;fillColor=#DFF8FF;rounded=0;whiteSpace=wrap;html=1;strokeWidth=1;dashed=0;container=1;collapsible=0;expand=0;recursiveResize=0;fontFamily=IBM Plex Sans;" parent="oL_wjMoZXA4-4voO2rJ6-1" vertex="1">
          <mxGeometry x="495" y="1631" width="240" height="70" as="geometry" />
        </mxCell>
        <mxCell id="snGLk7mVCXV_w4UDnkFq-172" value="&lt;div&gt;VPC D Routing Table&lt;/div&gt;&lt;div style=&quot;text-align: left&quot;&gt;10.7.0.0/16 from Local&lt;/div&gt;&lt;div style=&quot;text-align: left&quot;&gt;10.4.0.016 from VPC A via Transit Gateway&lt;/div&gt;&lt;div&gt;&lt;div style=&quot;text-align: left&quot;&gt;10.4.0.016 from VPC E via Transit Gateway&lt;/div&gt;&lt;/div&gt;" style="fontStyle=0;verticalAlign=top;align=center;spacingTop=-2;fillColor=#DFF8FF;rounded=0;whiteSpace=wrap;html=1;strokeWidth=1;dashed=0;container=1;collapsible=0;expand=0;recursiveResize=0;fontFamily=IBM Plex Sans;" parent="oL_wjMoZXA4-4voO2rJ6-1" vertex="1">
          <mxGeometry x="495" y="1711" width="240" height="70" as="geometry" />
        </mxCell>
        <mxCell id="snGLk7mVCXV_w4UDnkFq-173" value="&lt;div&gt;VPC E Routing Table&lt;/div&gt;&lt;div style=&quot;text-align: left&quot;&gt;10.8.0.0/16 from Local&lt;/div&gt;&lt;div style=&quot;text-align: left&quot;&gt;10.4.0.016 from VPC A via Transit Gateway&lt;/div&gt;&lt;div&gt;&lt;div style=&quot;text-align: left&quot;&gt;10.7.0.016 from VPC D via Transit Gateway&lt;/div&gt;&lt;/div&gt;" style="fontStyle=0;verticalAlign=top;align=center;spacingTop=-2;fillColor=#DFF8FF;rounded=0;whiteSpace=wrap;html=1;strokeWidth=1;dashed=0;container=1;collapsible=0;expand=0;recursiveResize=0;fontFamily=IBM Plex Sans;" parent="oL_wjMoZXA4-4voO2rJ6-1" vertex="1">
          <mxGeometry x="495" y="1791" width="240" height="70" as="geometry" />
        </mxCell>
        <mxCell id="JVljuf7-O5NbosCpgxwc-0" value="Subnets" style="shape=image;verticalLabelPosition=bottom;verticalAlign=top;imageAspect=0;aspect=fixed;image=data:image/svg+xml,PHN2ZyB4bWxuczp4bGluaz0iaHR0cDovL3d3dy53My5vcmcvMTk5OS94bGluayIgeG1sbnM9Imh0dHA6Ly93d3cudzMub3JnLzIwMDAvc3ZnIiB2ZXJzaW9uPSIxLjEiIHZpZXdCb3g9IjAgMCA0OCA0OCIgaGVpZ2h0PSI0OHB4IiB3aWR0aD0iNDhweCI+JiN4YTsgICAgPHRpdGxlPmlibS1jbG91ZC0tc3VibmV0czwvdGl0bGU+JiN4YTsgICAgPGcgZmlsbC1ydWxlPSJldmVub2RkIiBmaWxsPSJub25lIiBzdHJva2Utd2lkdGg9IjEiIHN0cm9rZT0ibm9uZSIgaWQ9IlYyLUljb25zIj4mI3hhOyAgICAgICAgPGcgdHJhbnNmb3JtPSJ0cmFuc2xhdGUoLTk2MSwgLTI0KSIgaWQ9IklCTS9DbG91ZC9OZXR3b3JrIj4mI3hhOyAgICAgICAgICAgIDxnIHRyYW5zZm9ybT0idHJhbnNsYXRlKDk2MSwgMjQpIiBpZD0iaWJtLWNsb3VkLS1zdWJuZXRzIj4mI3hhOyAgICAgICAgICAgICAgICA8cmVjdCBoZWlnaHQ9IjQ4IiB3aWR0aD0iNDgiIHk9IjAiIHg9IjAiIGZpbGw9IiMxMTkyRTgiIGlkPSJSZWN0YW5nbGUtQ29weS00NSIvPiYjeGE7ICAgICAgICAgICAgICAgIDxnIHRyYW5zZm9ybT0idHJhbnNsYXRlKDEyLjAwMDQsIDEyKSI+JiN4YTsgICAgICAgICAgICAgICAgICAgIDxwYXRoIGZpbGwtcnVsZT0ibm9uemVybyIgZmlsbD0iI0ZGRkZGRiIgaWQ9IlNoYXBlIiBkPSJNMTkuNSwxNi41IEMxOC45NjY1Njg0LDE2LjQ5ODgyNjggMTguNDQ0Njk2MiwxNi42NTUzODg1IDE4LDE2Ljk1IEwxNC41NjA3MjUsMTMuNSBMMTMuNSwxNC41NjA1NzUgTDE2Ljk1LDE4IEMxNi44MTgwNDE1LDE4LjIzNjAwMDUgMTYuNzE3MjAyOCwxOC40ODgwOTcyIDE2LjY1LDE4Ljc1IEw3LjM5MzcyNSwxOC43NSBDNy4zMTg3ODU0OCwxOC40ODM2Njk5IDcuMjAyODIwNTgsMTguMjMwNjM3MiA3LjA1LDE4IEwxOCw3LjA1IEMxOC40NDQ2OTYyLDcuMzQ0NjExNTMgMTguOTY2NTY4NCw3LjUwMTE3MzE3IDE5LjUsNy41IEMyMS4wNjA1NDI4LDcuNTA2MjcxNDggMjIuMzY1Mjc4NSw2LjMxNTA4Nzg3IDIyLjUwMDczMzcsNC43NjA0MjIyNSBDMjIuNjM2MTg4OSwzLjIwNTc1NjY0IDIxLjU1NzEyMDcsMS44MDY4NzY1MyAyMC4wMTkwMDgsMS41NDMxNjc3OSBDMTguNDgwODk1MiwxLjI3OTQ1OTA1IDE2Ljk5NzQ3NjUsMi4yMzkwMDE5NSAxNi42MDczMjUsMy43NSBMNy40MjUsMy43NSBDNy4wNjMxMzgwNCwyLjQzMDA5OTk3IDUuODY4NTU5NDIsMS41MTExOTMzNCA0LjUsMS41IEMyLjg0MzE0NTc1LDEuNSAxLjUsMi44NDMxNDU3NSAxLjUsNC41IEMxLjUsNi4xNTY4NTQyNSAyLjg0MzE0NTc1LDcuNSA0LjUsNy41IEM1LjAzMzQzMzU5LDcuNTAxMTg2NiA1LjU1NTMwOTU0LDcuMzQ0NjIzODEgNiw3LjA1IEw5LjQzOTM1LDEwLjUgTDEwLjUsOS40Mzk0MjUgTDcuMDUsNiBDNy4xODE5NjIzMiw1Ljc2NDAwMTI4IDcuMjgyODAxMTgsNS41MTE5MDQxMiA3LjM1LDUuMjUgTDE2LjYwNjM1LDUuMjUgQzE2LjY4MTI5ODQsNS41MTYzMTM4MSAxNi43OTcyMzU2LDUuNzY5MzQxNDcgMTYuOTUsNiBMNiwxNi45NSBDNS41NTUzMDk1NCwxNi42NTUzNzYyIDUuMDMzNDMzNTksMTYuNDk4ODEzNCA0LjUsMTYuNSBDMi45Mzk0NTcxNiwxNi40OTM3Mjg1IDEuNjM0NzIxNDksMTcuNjg0OTEyMSAxLjQ5OTI2NjMsMTkuMjM5NTc3NyBDMS4zNjM4MTExMSwyMC43OTQyNDM0IDIuNDQyODc5MjUsMjIuMTkzMTIzNSAzLjk4MDk5MjA1LDIyLjQ1NjgzMjIgQzUuNTE5MTA0ODUsMjIuNzIwNTQxIDcuMDAyNTIzNTQsMjEuNzYwOTk4MSA3LjM5MjY3NSwyMC4yNSBMMTYuNTc1LDIwLjI1IEMxNi45NjAyNDE3LDIxLjc2NTc0OTcgMTguNDQyNDY5MiwyMi43MzM2NDQzIDE5Ljk4NTE4MjYsMjIuNDc2ODQ5MyBDMjEuNTI3ODk2LDIyLjIyMDA1NDMgMjIuNjE2NjYxOCwyMC44MjQyMDA4IDIyLjQ5MDEyMjEsMTkuMjY1Mzg4NCBDMjIuMzYzNTgyNCwxNy43MDY1NzYgMjEuMDYzOTMzMiwxNi41MDQ2MDY4IDE5LjUsMTYuNSBaIE0xOS41LDMgQzIwLjMyODQyNzEsMyAyMSwzLjY3MTU3Mjg4IDIxLDQuNSBDMjEsNS4zMjg0MjcxMiAyMC4zMjg0MjcxLDYgMTkuNSw2IEMxOC42NzE1NzI5LDYgMTgsNS4zMjg0MjcxMiAxOCw0LjUgQzE4LjAwMjM4OTIsMy42NzI1NjQ1MyAxOC42NzI1NjQ1LDMuMDAyMzg5MTggMTkuNSwzIEwxOS41LDMgWiBNNC41LDYgQzMuNjcxNTcyODgsNiAzLDUuMzI4NDI3MTIgMyw0LjUgQzMsMy42NzE1NzI4OCAzLjY3MTU3Mjg4LDMgNC41LDMgQzUuMzI4NDI3MTIsMyA2LDMuNjcxNTcyODggNiw0LjUgQzUuOTk3NjEwODIsNS4zMjc0MzU0NyA1LjMyNzQzNTQ3LDUuOTk3NjEwODIgNC41LDYgWiBNNC41LDIxIEMzLjY3MTU3Mjg4LDIxIDMsMjAuMzI4NDI3MSAzLDE5LjUgQzMsMTguNjcxNTcyOSAzLjY3MTU3Mjg4LDE4IDQuNSwxOCBDNS4zMjg0MjcxMiwxOCA2LDE4LjY3MTU3MjkgNiwxOS41IEM1Ljk5NzYxMDgyLDIwLjMyNzQzNTUgNS4zMjc0MzU0NywyMC45OTc2MTA4IDQuNSwyMSBMNC41LDIxIFogTTE5LjUsMjEgQzE4LjY3MTU3MjksMjEgMTgsMjAuMzI4NDI3MSAxOCwxOS41IEMxOCwxOC42NzE1NzI5IDE4LjY3MTU3MjksMTggMTkuNSwxOCBDMjAuMzI4NDI3MSwxOCAyMSwxOC42NzE1NzI5IDIxLDE5LjUgQzIwLjk5NzYxMDgsMjAuMzI3NDM1NSAyMC4zMjc0MzU1LDIwLjk5NzYxMDggMTkuNSwyMSBMMTkuNSwyMSBaIi8+JiN4YTsgICAgICAgICAgICAgICAgICAgIDxyZWN0IGhlaWdodD0iMjQiIHdpZHRoPSIyNCIgeT0iMCIgeD0iMCIgaWQ9Il9UcmFuc3BhcmVudF9SZWN0YW5nbGVfIi8+JiN4YTsgICAgICAgICAgICAgICAgPC9nPiYjeGE7ICAgICAgICAgICAgPC9nPiYjeGE7ICAgICAgICA8L2c+JiN4YTsgICAgPC9nPiYjeGE7PC9zdmc+;fontFamily=IBM Plex Sans;fontSize=14;spacingTop=-7;labelPosition=center;align=center;" parent="oL_wjMoZXA4-4voO2rJ6-1" vertex="1">
          <mxGeometry x="110" y="2010" width="48" height="48" as="geometry" />
        </mxCell>
      </root>
    </mxGraphModel>
  </diagram>
</mxfile>
